G04 (created by PCBNEW (2013-mar-13)-testing) date czw, 7 sie 2014, 20:04:06*
%MOIN*%
G04 Gerber Fmt 3.4, Leading zero omitted, Abs format*
%FSLAX34Y34*%
G01*
G70*
G90*
G04 APERTURE LIST*
%ADD10C,0.005906*%
%ADD11R,0.035000X0.055000*%
%ADD12R,0.157500X0.094500*%
%ADD13C,0.035400*%
%ADD14R,0.060000X0.060000*%
%ADD15C,0.060000*%
%ADD16O,0.156000X0.078000*%
%ADD17C,0.189000*%
%ADD18R,0.189000X0.189000*%
%ADD19R,0.055000X0.035000*%
%ADD20C,0.055000*%
%ADD21C,0.070000*%
%ADD22R,0.070000X0.070000*%
%ADD23R,0.055000X0.055000*%
G04 APERTURE END LIST*
G54D10*
G54D11*
X13667Y-9077D03*
X12917Y-9077D03*
G54D12*
X9267Y-16777D03*
X6117Y-16777D03*
X5767Y-4177D03*
X2617Y-4177D03*
X14967Y-6577D03*
X11817Y-6577D03*
G54D13*
X1827Y-9711D03*
X1827Y-11443D03*
G54D14*
X5592Y-577D03*
G54D15*
X4592Y-577D03*
X3592Y-577D03*
X2592Y-577D03*
G54D16*
X17192Y-16687D03*
X17192Y-18657D03*
G54D17*
X1592Y-17977D03*
G54D18*
X3992Y-17977D03*
G54D17*
X2492Y-15977D03*
G54D16*
X17192Y-1087D03*
X17192Y-3057D03*
X17192Y-12387D03*
X17192Y-14357D03*
G54D14*
X11692Y-10377D03*
G54D15*
X11692Y-9377D03*
G54D14*
X10192Y-5877D03*
G54D15*
X10192Y-4877D03*
X10192Y-3877D03*
X10192Y-2877D03*
X10192Y-1877D03*
G54D19*
X592Y-8352D03*
X592Y-7602D03*
X1592Y-8352D03*
X1592Y-7602D03*
X7592Y-5102D03*
X7592Y-5852D03*
G54D20*
X12192Y-14977D03*
X12192Y-11977D03*
X19092Y-10477D03*
X19092Y-8477D03*
X16092Y-10477D03*
X16092Y-8477D03*
G54D21*
X13692Y-12477D03*
X13692Y-13477D03*
G54D22*
X13692Y-14477D03*
G54D14*
X592Y-1677D03*
G54D15*
X1592Y-1677D03*
X2592Y-1677D03*
X3592Y-1677D03*
X4592Y-1677D03*
X5592Y-1677D03*
G54D14*
X6592Y-1677D03*
G54D15*
X7592Y-1677D03*
X7592Y-6677D03*
X6592Y-6677D03*
X5592Y-6677D03*
X4592Y-6677D03*
X3592Y-6677D03*
X2592Y-6677D03*
X1592Y-6677D03*
X592Y-6677D03*
G54D23*
X11692Y-18977D03*
G54D20*
X12692Y-18977D03*
X13692Y-18977D03*
X13692Y-15977D03*
X12692Y-15977D03*
X11692Y-15977D03*
M02*
