G04 (created by PCBNEW (2013-mar-13)-testing) date czw, 7 sie 2014, 20:04:06*
%MOIN*%
G04 Gerber Fmt 3.4, Leading zero omitted, Abs format*
%FSLAX34Y34*%
G01*
G70*
G90*
G04 APERTURE LIST*
%ADD10C,0.005906*%
%ADD11R,0.035000X0.055000*%
%ADD12R,0.055000X0.035000*%
%ADD13R,0.080000X0.060000*%
%ADD14R,0.090600X0.019700*%
%ADD15R,0.098400X0.078700*%
%ADD16R,0.060000X0.060000*%
%ADD17C,0.060000*%
%ADD18R,0.080000X0.050000*%
%ADD19O,0.156000X0.078000*%
%ADD20C,0.189000*%
%ADD21R,0.189000X0.189000*%
%ADD22R,0.120000X0.065000*%
%ADD23R,0.240000X0.240000*%
%ADD24C,0.055000*%
%ADD25R,0.060000X0.080000*%
%ADD26R,0.065000X0.120000*%
%ADD27C,0.070000*%
%ADD28R,0.070000X0.070000*%
%ADD29R,0.216500X0.078700*%
%ADD30R,0.078700X0.017700*%
%ADD31R,0.017700X0.078700*%
%ADD32R,0.055000X0.055000*%
%ADD33R,0.023600X0.055100*%
%ADD34C,0.035000*%
%ADD35C,0.039370*%
%ADD36C,0.010000*%
%ADD37C,0.012000*%
%ADD38C,0.016000*%
%ADD39C,0.032000*%
%ADD40C,0.064000*%
G04 APERTURE END LIST*
G54D10*
G54D11*
X10917Y-7577D03*
X11667Y-7577D03*
G54D12*
X6592Y-4452D03*
X6592Y-3702D03*
X9292Y-14952D03*
X9292Y-14202D03*
X12992Y-5852D03*
X12992Y-5102D03*
G54D11*
X11617Y-1277D03*
X12367Y-1277D03*
X7467Y-2577D03*
X6717Y-2577D03*
X4217Y-16477D03*
X4967Y-16477D03*
X4217Y-14877D03*
X4967Y-14877D03*
X14367Y-9977D03*
X13617Y-9977D03*
G54D12*
X4692Y-10702D03*
X4692Y-11452D03*
X3892Y-11452D03*
X3892Y-10702D03*
G54D11*
X3817Y-8977D03*
X4567Y-8977D03*
X9317Y-17077D03*
X10067Y-17077D03*
G54D13*
X14292Y-7027D03*
X14292Y-5727D03*
G54D12*
X10492Y-9902D03*
X10492Y-10652D03*
G54D14*
X2850Y-9947D03*
X2850Y-10262D03*
X2850Y-10577D03*
X2850Y-10892D03*
X2850Y-11207D03*
G54D15*
X2811Y-8825D03*
X646Y-8825D03*
X2811Y-12329D03*
X646Y-12329D03*
G54D16*
X5592Y-577D03*
G54D17*
X4592Y-577D03*
X3592Y-577D03*
X2592Y-577D03*
G54D18*
X13392Y-9177D03*
X9492Y-12377D03*
G54D19*
X17192Y-16687D03*
X17192Y-18657D03*
G54D18*
X10592Y-12377D03*
G54D20*
X1592Y-17977D03*
G54D21*
X3992Y-17977D03*
G54D20*
X2492Y-15977D03*
G54D18*
X10592Y-11577D03*
X9992Y-7577D03*
X14592Y-9177D03*
G54D19*
X17192Y-1087D03*
X17192Y-3057D03*
X17192Y-12387D03*
X17192Y-14357D03*
G54D16*
X11692Y-10377D03*
G54D17*
X11692Y-9377D03*
G54D16*
X10192Y-5877D03*
G54D17*
X10192Y-4877D03*
X10192Y-3877D03*
X10192Y-2877D03*
X10192Y-1877D03*
G54D22*
X15692Y-5177D03*
G54D23*
X18192Y-6077D03*
G54D22*
X15692Y-6977D03*
G54D11*
X15067Y-10777D03*
X14317Y-10777D03*
X14217Y-8027D03*
X14967Y-8027D03*
X4567Y-9777D03*
X3817Y-9777D03*
X2517Y-7877D03*
X3267Y-7877D03*
X10067Y-17877D03*
X9317Y-17877D03*
X10117Y-18977D03*
X10867Y-18977D03*
G54D24*
X12192Y-14977D03*
X12192Y-11977D03*
G54D12*
X11992Y-5852D03*
X11992Y-5102D03*
G54D25*
X13942Y-2477D03*
X15242Y-2477D03*
X13942Y-3577D03*
X15242Y-3577D03*
G54D12*
X4892Y-7502D03*
X4892Y-8252D03*
X4092Y-7502D03*
X4092Y-8252D03*
G54D11*
X13767Y-1277D03*
X13017Y-1277D03*
G54D12*
X10492Y-8502D03*
X10492Y-9252D03*
X4592Y-5952D03*
X4592Y-5202D03*
X5592Y-5952D03*
X5592Y-5202D03*
X6592Y-5952D03*
X6592Y-5202D03*
G54D24*
X19092Y-10477D03*
X19092Y-8477D03*
X16092Y-10477D03*
X16092Y-8477D03*
G54D26*
X5992Y-18377D03*
G54D23*
X6892Y-15877D03*
G54D26*
X7792Y-18377D03*
G54D27*
X13692Y-12477D03*
X13692Y-13477D03*
G54D28*
X13692Y-14477D03*
G54D16*
X592Y-1677D03*
G54D17*
X1592Y-1677D03*
X2592Y-1677D03*
X3592Y-1677D03*
X4592Y-1677D03*
X5592Y-1677D03*
G54D16*
X6592Y-1677D03*
G54D17*
X7592Y-1677D03*
X7592Y-6677D03*
X6592Y-6677D03*
X5592Y-6677D03*
X4592Y-6677D03*
X3592Y-6677D03*
X2592Y-6677D03*
X1592Y-6677D03*
X592Y-6677D03*
G54D29*
X4742Y-13377D03*
X8442Y-13377D03*
G54D30*
X5696Y-10870D03*
X5696Y-10555D03*
X5696Y-10240D03*
X5696Y-9925D03*
X5696Y-9610D03*
X5696Y-9295D03*
X5696Y-8980D03*
X5696Y-8665D03*
X9462Y-8667D03*
X9462Y-10877D03*
X9462Y-10557D03*
X9462Y-10237D03*
X9462Y-9927D03*
X9462Y-9607D03*
X9462Y-9297D03*
X9462Y-8977D03*
G54D31*
X6480Y-7877D03*
X6794Y-7877D03*
X7110Y-7877D03*
X7424Y-7877D03*
X7740Y-7877D03*
X8054Y-7877D03*
X8370Y-7877D03*
X8684Y-7877D03*
X6482Y-11657D03*
X6792Y-11657D03*
X7112Y-11657D03*
X7422Y-11657D03*
X7732Y-11657D03*
X8052Y-11657D03*
X8372Y-11657D03*
X8692Y-11657D03*
G54D32*
X11692Y-18977D03*
G54D24*
X12692Y-18977D03*
X13692Y-18977D03*
X13692Y-15977D03*
X12692Y-15977D03*
X11692Y-15977D03*
G54D33*
X11442Y-2227D03*
X11442Y-4327D03*
X11942Y-2227D03*
X12442Y-2227D03*
X12942Y-2227D03*
X11942Y-4327D03*
X12442Y-4327D03*
X12942Y-4327D03*
G54D34*
X10242Y-15227D03*
X10692Y-17677D03*
X11192Y-5677D03*
X7342Y-10777D03*
X10542Y-6977D03*
X12992Y-6677D03*
X3442Y-8527D03*
X8692Y-10877D03*
X7842Y-10327D03*
X7442Y-12427D03*
G54D35*
X3892Y-5127D03*
G54D34*
X8342Y-10177D03*
X8442Y-14777D03*
G54D35*
X8642Y-18877D03*
G54D36*
X7112Y-12207D02*
X7112Y-11657D01*
X6992Y-12327D02*
X7112Y-12207D01*
X6992Y-12727D02*
X6992Y-12327D01*
X7092Y-12827D02*
X6992Y-12727D01*
X8142Y-12827D02*
X7092Y-12827D01*
X9692Y-12827D02*
X8142Y-12827D01*
X9992Y-13127D02*
X9692Y-12827D01*
G54D37*
X9992Y-14977D02*
X9992Y-13127D01*
X10242Y-15227D02*
X9992Y-14977D01*
X10492Y-17877D02*
X10692Y-17677D01*
X10067Y-17877D02*
X10492Y-17877D01*
G54D38*
X10117Y-18977D02*
X10117Y-17927D01*
X10117Y-17927D02*
X10067Y-17877D01*
G54D37*
X9462Y-10557D02*
X10397Y-10557D01*
X10397Y-10557D02*
X10492Y-10652D01*
X2850Y-10577D02*
X1792Y-10577D01*
X2192Y-7877D02*
X2517Y-7877D01*
X1992Y-8077D02*
X2192Y-7877D01*
X1992Y-8877D02*
X1992Y-8077D01*
X1392Y-9477D02*
X1992Y-8877D01*
X1392Y-10177D02*
X1392Y-9477D01*
X1792Y-10577D02*
X1392Y-10177D01*
X2850Y-10577D02*
X3767Y-10577D01*
X3767Y-10577D02*
X3892Y-10702D01*
X2850Y-10262D02*
X4107Y-10262D01*
X4392Y-8977D02*
X4567Y-8977D01*
X4192Y-9177D02*
X4392Y-8977D01*
X4192Y-10177D02*
X4192Y-9177D01*
X4107Y-10262D02*
X4192Y-10177D01*
X4567Y-8977D02*
X4567Y-8577D01*
X4567Y-8577D02*
X4892Y-8252D01*
X4892Y-8252D02*
X4092Y-8252D01*
X8692Y-11657D02*
X9672Y-11657D01*
X10392Y-12377D02*
X10592Y-12377D01*
X9672Y-11657D02*
X10392Y-12377D01*
X9492Y-12377D02*
X8592Y-12377D01*
X8372Y-12157D02*
X8372Y-11657D01*
X8592Y-12377D02*
X8372Y-12157D01*
X6792Y-11657D02*
X6792Y-11177D01*
X11367Y-5852D02*
X11992Y-5852D01*
X11192Y-5677D02*
X11367Y-5852D01*
X7192Y-10777D02*
X7342Y-10777D01*
X6792Y-11177D02*
X7192Y-10777D01*
G54D38*
X12992Y-5852D02*
X11992Y-5852D01*
G54D37*
X10917Y-7577D02*
X10917Y-7352D01*
X10917Y-7352D02*
X10542Y-6977D01*
G54D38*
X16092Y-8477D02*
X15642Y-8027D01*
X15642Y-8027D02*
X14967Y-8027D01*
X9992Y-7577D02*
X10917Y-7577D01*
X16092Y-8477D02*
X19092Y-8477D01*
G54D37*
X9992Y-7577D02*
X9792Y-7577D01*
X7424Y-8509D02*
X7424Y-7877D01*
X7492Y-8577D02*
X7424Y-8509D01*
X8792Y-8577D02*
X7492Y-8577D01*
X9792Y-7577D02*
X8792Y-8577D01*
X10592Y-11577D02*
X10192Y-11577D01*
X9492Y-10877D02*
X9462Y-10877D01*
X10192Y-11577D02*
X9492Y-10877D01*
X9462Y-8977D02*
X9992Y-8977D01*
X10467Y-8502D02*
X10492Y-8502D01*
X9992Y-8977D02*
X10467Y-8502D01*
X10492Y-8502D02*
X10817Y-8502D01*
X10817Y-8502D02*
X11692Y-9377D01*
G54D38*
X2850Y-11207D02*
X2850Y-11219D01*
X1942Y-14327D02*
X1792Y-14477D01*
X1942Y-11927D02*
X1942Y-14327D01*
X2192Y-11677D02*
X1942Y-11927D01*
X2392Y-11677D02*
X2192Y-11677D01*
X2850Y-11219D02*
X2392Y-11677D01*
X9292Y-14952D02*
X9117Y-14952D01*
X6892Y-14677D02*
X6892Y-15877D01*
X7492Y-14077D02*
X6892Y-14677D01*
X8542Y-14077D02*
X7492Y-14077D01*
X8742Y-14277D02*
X8542Y-14077D01*
X8742Y-14577D02*
X8742Y-14277D01*
X9117Y-14952D02*
X8742Y-14577D01*
X13542Y-7327D02*
X13542Y-7227D01*
X13542Y-7227D02*
X12992Y-6677D01*
X10067Y-15927D02*
X10342Y-15927D01*
X11392Y-14877D02*
X11392Y-14027D01*
X10342Y-15927D02*
X11392Y-14877D01*
X10067Y-17077D02*
X10067Y-15927D01*
X14117Y-10577D02*
X14317Y-10777D01*
X11392Y-14027D02*
X11392Y-11327D01*
X11392Y-11327D02*
X11692Y-11027D01*
X11692Y-11027D02*
X12342Y-11027D01*
X12342Y-11027D02*
X12792Y-10577D01*
X12792Y-10577D02*
X14117Y-10577D01*
G54D37*
X2811Y-8825D02*
X3144Y-8825D01*
X3144Y-8825D02*
X3442Y-8527D01*
G54D38*
X11667Y-7577D02*
X11667Y-8002D01*
X11667Y-8002D02*
X12292Y-8627D01*
X14292Y-7027D02*
X13842Y-7027D01*
X12292Y-8577D02*
X12292Y-8627D01*
X12292Y-8627D02*
X12292Y-9477D01*
X13842Y-7027D02*
X13542Y-7327D01*
X13542Y-7327D02*
X12292Y-8577D01*
G54D39*
X14292Y-7027D02*
X15642Y-7027D01*
X15642Y-7027D02*
X15692Y-6977D01*
X6717Y-2577D02*
X6717Y-1802D01*
X6717Y-1802D02*
X6592Y-1677D01*
X6592Y-3702D02*
X6592Y-2702D01*
X6592Y-2702D02*
X6717Y-2577D01*
G54D38*
X14292Y-7027D02*
X14142Y-7027D01*
X14142Y-7027D02*
X13592Y-6477D01*
X13592Y-6477D02*
X13592Y-5102D01*
X12992Y-5102D02*
X13592Y-5102D01*
X13592Y-5102D02*
X13667Y-5102D01*
X13667Y-5102D02*
X14592Y-4177D01*
X14592Y-4177D02*
X14592Y-1977D01*
X14592Y-1977D02*
X14392Y-1777D01*
X14392Y-1777D02*
X12942Y-1777D01*
X12942Y-1777D02*
X12992Y-1777D01*
X12992Y-1777D02*
X12942Y-1777D01*
X12992Y-5102D02*
X12992Y-4377D01*
X12992Y-4377D02*
X12942Y-4327D01*
X12367Y-1277D02*
X13017Y-1277D01*
X12942Y-2227D02*
X12942Y-1777D01*
X12942Y-1777D02*
X12942Y-1352D01*
X12942Y-1352D02*
X13017Y-1277D01*
X14592Y-9177D02*
X14592Y-7327D01*
X14592Y-7327D02*
X14292Y-7027D01*
X14367Y-9977D02*
X14367Y-9402D01*
X14367Y-9402D02*
X14592Y-9177D01*
X14317Y-10777D02*
X14317Y-10027D01*
X14317Y-10027D02*
X14367Y-9977D01*
X10067Y-17077D02*
X10067Y-15727D01*
X10067Y-15727D02*
X9292Y-14952D01*
X12692Y-18977D02*
X12692Y-18377D01*
X11392Y-17077D02*
X10067Y-17077D01*
X12692Y-18377D02*
X11392Y-17077D01*
G54D40*
X3892Y-14877D02*
X3892Y-15177D01*
X3892Y-15177D02*
X4392Y-15677D01*
X4392Y-15677D02*
X6692Y-15677D01*
X6692Y-15677D02*
X6892Y-15877D01*
X1592Y-17977D02*
X1592Y-17477D01*
X1592Y-17477D02*
X892Y-16777D01*
X892Y-16777D02*
X892Y-15377D01*
X892Y-15377D02*
X1792Y-14477D01*
X3892Y-14877D02*
X3992Y-14877D01*
X3492Y-14477D02*
X3892Y-14877D01*
X1792Y-14477D02*
X3492Y-14477D01*
G54D37*
X10517Y-9277D02*
X10492Y-9252D01*
X12292Y-9477D02*
X12292Y-9577D01*
X12292Y-9577D02*
X11992Y-9877D01*
X11992Y-9877D02*
X11392Y-9877D01*
X11392Y-9877D02*
X10792Y-9277D01*
X10792Y-9277D02*
X10517Y-9277D01*
X9462Y-9607D02*
X9962Y-9607D01*
X10317Y-9252D02*
X10492Y-9252D01*
X9962Y-9607D02*
X10317Y-9252D01*
X3892Y-11452D02*
X4692Y-11452D01*
X3817Y-8977D02*
X2963Y-8977D01*
X2963Y-8977D02*
X2811Y-8825D01*
X2850Y-11207D02*
X3647Y-11207D01*
X3647Y-11207D02*
X3892Y-11452D01*
X4967Y-16477D02*
X4967Y-15477D01*
X4967Y-15477D02*
X4992Y-15477D01*
X4217Y-14877D02*
X4217Y-15302D01*
X6492Y-15477D02*
X6892Y-15877D01*
X4992Y-15477D02*
X6492Y-15477D01*
X4392Y-15477D02*
X4992Y-15477D01*
X4217Y-15302D02*
X4392Y-15477D01*
X9462Y-9607D02*
X6492Y-9607D01*
X6492Y-9607D02*
X6492Y-9577D01*
X5696Y-9295D02*
X6310Y-9295D01*
X6344Y-9925D02*
X5696Y-9925D01*
X6492Y-9777D02*
X6344Y-9925D01*
X6492Y-9477D02*
X6492Y-9577D01*
X6492Y-9577D02*
X6492Y-9777D01*
X6310Y-9295D02*
X6492Y-9477D01*
X4967Y-14877D02*
X4967Y-13602D01*
X4967Y-13602D02*
X4742Y-13377D01*
X5696Y-10870D02*
X5696Y-12423D01*
X5696Y-12423D02*
X4742Y-13377D01*
X8054Y-7877D02*
X8054Y-7315D01*
X9292Y-3777D02*
X10192Y-2877D01*
X9292Y-4877D02*
X9292Y-3777D01*
X8592Y-5577D02*
X9292Y-4877D01*
X8592Y-6777D02*
X8592Y-5577D01*
X8054Y-7315D02*
X8592Y-6777D01*
X9462Y-8667D02*
X9462Y-8407D01*
X11292Y-6977D02*
X10192Y-5877D01*
X11292Y-7977D02*
X11292Y-6977D01*
X11192Y-8077D02*
X11292Y-7977D01*
X9792Y-8077D02*
X11192Y-8077D01*
X9462Y-8407D02*
X9792Y-8077D01*
X3267Y-7877D02*
X6480Y-7877D01*
G54D39*
X18192Y-6077D02*
X18192Y-4057D01*
X18192Y-4057D02*
X17192Y-3057D01*
G54D38*
X18192Y-6077D02*
X14642Y-6077D01*
X14642Y-6077D02*
X14292Y-5727D01*
X13942Y-2477D02*
X13942Y-2577D01*
X13942Y-2577D02*
X13442Y-3077D01*
X12442Y-2227D02*
X12442Y-2627D01*
X13442Y-3077D02*
X13942Y-3577D01*
X12892Y-3077D02*
X13442Y-3077D01*
X12442Y-2627D02*
X12892Y-3077D01*
X12442Y-2227D02*
X11942Y-2227D01*
X11942Y-2227D02*
X11942Y-1602D01*
X11942Y-1602D02*
X11617Y-1277D01*
X11942Y-4327D02*
X11942Y-5052D01*
X11942Y-5052D02*
X11992Y-5102D01*
X13767Y-1277D02*
X14792Y-1277D01*
X15242Y-1727D02*
X15242Y-2477D01*
X14792Y-1277D02*
X15242Y-1727D01*
X15242Y-3577D02*
X15242Y-2477D01*
X15692Y-5177D02*
X15692Y-4027D01*
X15692Y-4027D02*
X15242Y-3577D01*
G54D37*
X4892Y-7502D02*
X5967Y-7502D01*
X6794Y-7279D02*
X6794Y-7877D01*
X6792Y-7277D02*
X6794Y-7279D01*
X6192Y-7277D02*
X6792Y-7277D01*
X5967Y-7502D02*
X6192Y-7277D01*
G54D38*
X16092Y-10477D02*
X15367Y-10477D01*
X15367Y-10477D02*
X15067Y-10777D01*
X19092Y-10477D02*
X16092Y-10477D01*
G54D37*
X8370Y-7877D02*
X8370Y-7399D01*
X9592Y-4477D02*
X10192Y-3877D01*
X9592Y-4977D02*
X9592Y-4477D01*
X8892Y-5677D02*
X9592Y-4977D01*
X8892Y-6877D02*
X8892Y-5677D01*
X8370Y-7399D02*
X8892Y-6877D01*
X8442Y-13377D02*
X6892Y-13377D01*
X6270Y-10555D02*
X5696Y-10555D01*
X6492Y-10777D02*
X6270Y-10555D01*
X6492Y-10877D02*
X6492Y-10777D01*
X6042Y-11327D02*
X6492Y-10877D01*
X6042Y-12527D02*
X6042Y-11327D01*
X6892Y-13377D02*
X6042Y-12527D01*
G54D38*
X9292Y-14202D02*
X9267Y-14202D01*
X9267Y-14202D02*
X8442Y-13377D01*
G54D37*
X8052Y-11657D02*
X8052Y-11017D01*
X8192Y-10877D02*
X8692Y-10877D01*
X8052Y-11017D02*
X8192Y-10877D01*
X7732Y-10437D02*
X7732Y-11657D01*
X7842Y-10327D02*
X7732Y-10437D01*
X7422Y-12407D02*
X7422Y-11657D01*
X7442Y-12427D02*
X7422Y-12407D01*
X4567Y-9677D02*
X4567Y-10577D01*
X4567Y-10577D02*
X4692Y-10702D01*
G54D40*
X17192Y-18657D02*
X16972Y-18657D01*
X14992Y-13477D02*
X13692Y-13477D01*
X15592Y-14077D02*
X14992Y-13477D01*
X15592Y-17277D02*
X15592Y-14077D01*
X16972Y-18657D02*
X15592Y-17277D01*
G54D37*
X2850Y-9947D02*
X3547Y-9947D01*
X3547Y-9947D02*
X3817Y-9677D01*
X4592Y-6677D02*
X4592Y-5952D01*
X5592Y-6677D02*
X5592Y-5952D01*
X6592Y-6677D02*
X6592Y-5952D01*
G54D39*
X5592Y-1677D02*
X5592Y-577D01*
X4592Y-1677D02*
X4592Y-577D01*
X3592Y-1677D02*
X3592Y-577D01*
G54D40*
X17192Y-16687D02*
X17192Y-14357D01*
G54D39*
X2592Y-1677D02*
X2592Y-577D01*
G54D38*
X13692Y-12477D02*
X12692Y-12477D01*
X12692Y-12477D02*
X12192Y-11977D01*
G54D40*
X13692Y-12477D02*
X17102Y-12477D01*
X17102Y-12477D02*
X17192Y-12387D01*
G54D38*
X11692Y-15977D02*
X11692Y-15477D01*
X11692Y-15477D02*
X12192Y-14977D01*
X13692Y-14477D02*
X13692Y-15977D01*
X11692Y-18977D02*
X10867Y-18977D01*
X9317Y-17877D02*
X9317Y-17077D01*
G54D37*
X8684Y-7877D02*
X8792Y-7877D01*
X9192Y-5877D02*
X10192Y-4877D01*
X9192Y-7477D02*
X9192Y-5877D01*
X8792Y-7877D02*
X9192Y-7477D01*
X7740Y-7877D02*
X7740Y-7229D01*
X7740Y-7229D02*
X7892Y-7077D01*
X10192Y-1877D02*
X10192Y-1977D01*
X8292Y-6677D02*
X7892Y-7077D01*
X8292Y-5477D02*
X8292Y-6677D01*
X8992Y-4777D02*
X8292Y-5477D01*
X8992Y-3177D02*
X8992Y-4777D01*
X10192Y-1977D02*
X8992Y-3177D01*
G54D40*
X17192Y-1087D02*
X16532Y-427D01*
X16532Y-427D02*
X8842Y-427D01*
X8842Y-427D02*
X7592Y-1677D01*
G54D37*
X7592Y-1677D02*
X7592Y-2452D01*
X7592Y-2452D02*
X7467Y-2577D01*
G54D38*
X11442Y-2227D02*
X11092Y-1877D01*
X11092Y-1877D02*
X11092Y-977D01*
X11092Y-977D02*
X11392Y-677D01*
X11392Y-677D02*
X16782Y-677D01*
X16782Y-677D02*
X17192Y-1087D01*
X11442Y-4327D02*
X11442Y-2227D01*
G54D40*
X3992Y-17977D02*
X5592Y-17977D01*
X5592Y-17977D02*
X5992Y-18377D01*
G54D37*
X4217Y-16477D02*
X4217Y-17752D01*
X4217Y-17752D02*
X3992Y-17977D01*
G54D38*
X8292Y-9927D02*
X8292Y-10127D01*
X3717Y-4952D02*
X3717Y-4902D01*
X3892Y-5127D02*
X3717Y-4952D01*
X8292Y-10127D02*
X8342Y-10177D01*
X8642Y-15727D02*
X8642Y-14977D01*
X8217Y-17702D02*
X8642Y-17277D01*
X8642Y-17277D02*
X8642Y-15977D01*
X8642Y-15977D02*
X8642Y-15727D01*
X8217Y-18802D02*
X8217Y-17702D01*
X8642Y-14977D02*
X8442Y-14777D01*
G54D40*
X8292Y-18877D02*
X8217Y-18802D01*
X8217Y-18802D02*
X7792Y-18377D01*
X8642Y-18877D02*
X8292Y-18877D01*
G54D38*
X14217Y-8027D02*
X13392Y-8852D01*
X13392Y-8852D02*
X13392Y-9177D01*
G54D39*
X6592Y-5202D02*
X6592Y-4452D01*
X5592Y-5202D02*
X6592Y-5202D01*
X4592Y-5202D02*
X5592Y-5202D01*
X1592Y-1677D02*
X1592Y-2777D01*
X1592Y-2777D02*
X3717Y-4902D01*
X4017Y-5202D02*
X4592Y-5202D01*
X3717Y-4902D02*
X4017Y-5202D01*
G54D38*
X9462Y-9927D02*
X8292Y-9927D01*
X8292Y-9927D02*
X6742Y-9927D01*
X6742Y-9927D02*
X6429Y-10240D01*
X6429Y-10240D02*
X5696Y-10240D01*
X9462Y-9927D02*
X10467Y-9927D01*
X10467Y-9927D02*
X10492Y-9902D01*
X11692Y-10377D02*
X11292Y-10377D01*
X11292Y-10377D02*
X10817Y-9902D01*
X10817Y-9902D02*
X10492Y-9902D01*
X13617Y-9977D02*
X12692Y-9977D01*
X12692Y-9977D02*
X12292Y-10377D01*
X12292Y-10377D02*
X11692Y-10377D01*
X13617Y-9977D02*
X13617Y-9402D01*
X13617Y-9402D02*
X13392Y-9177D01*
G54D37*
X10467Y-9927D02*
X10492Y-9902D01*
X4092Y-7502D02*
X4092Y-5277D01*
X4167Y-5202D02*
X4592Y-5202D01*
X4092Y-5277D02*
X4167Y-5202D01*
X5696Y-10240D02*
X5155Y-10240D01*
X5059Y-9610D02*
X5696Y-9610D01*
X4992Y-9677D02*
X5059Y-9610D01*
X4992Y-10077D02*
X4992Y-9677D01*
X5155Y-10240D02*
X4992Y-10077D01*
X6429Y-10240D02*
X5696Y-10240D01*
X6742Y-9927D02*
X6429Y-10240D01*
G54D10*
G36*
X3352Y-9559D02*
X3246Y-9559D01*
X2340Y-9559D01*
X2280Y-9584D01*
X2246Y-9503D01*
X2262Y-9509D01*
X2689Y-9509D01*
X2761Y-9436D01*
X2761Y-8875D01*
X2754Y-8875D01*
X2754Y-8775D01*
X2761Y-8775D01*
X2761Y-8768D01*
X2861Y-8768D01*
X2861Y-8775D01*
X2869Y-8775D01*
X2869Y-8875D01*
X2861Y-8875D01*
X2861Y-9436D01*
X2934Y-9509D01*
X3352Y-9509D01*
X3352Y-9559D01*
X3352Y-9559D01*
G37*
G54D36*
X3352Y-9559D02*
X3246Y-9559D01*
X2340Y-9559D01*
X2280Y-9584D01*
X2246Y-9503D01*
X2262Y-9509D01*
X2689Y-9509D01*
X2761Y-9436D01*
X2761Y-8875D01*
X2754Y-8875D01*
X2754Y-8775D01*
X2761Y-8775D01*
X2761Y-8768D01*
X2861Y-8768D01*
X2861Y-8775D01*
X2869Y-8775D01*
X2869Y-8875D01*
X2861Y-8875D01*
X2861Y-9436D01*
X2934Y-9509D01*
X3352Y-9509D01*
X3352Y-9559D01*
G54D10*
G36*
X3742Y-6101D02*
X3710Y-6088D01*
X3476Y-6087D01*
X3259Y-6177D01*
X3093Y-6343D01*
X3092Y-6343D01*
X2927Y-6178D01*
X2710Y-6088D01*
X2476Y-6087D01*
X2259Y-6177D01*
X2093Y-6343D01*
X2092Y-6343D01*
X1927Y-6178D01*
X1710Y-6088D01*
X1476Y-6087D01*
X1259Y-6177D01*
X1093Y-6343D01*
X1092Y-6343D01*
X927Y-6178D01*
X710Y-6088D01*
X476Y-6087D01*
X319Y-6152D01*
X319Y-2267D01*
X470Y-2267D01*
X542Y-2195D01*
X542Y-1727D01*
X535Y-1727D01*
X535Y-1627D01*
X542Y-1627D01*
X542Y-1160D01*
X470Y-1087D01*
X319Y-1087D01*
X319Y-319D01*
X2061Y-319D01*
X2003Y-460D01*
X2002Y-694D01*
X2092Y-911D01*
X2142Y-962D01*
X2142Y-1293D01*
X2093Y-1343D01*
X2092Y-1343D01*
X1927Y-1178D01*
X1710Y-1088D01*
X1476Y-1087D01*
X1259Y-1177D01*
X1163Y-1273D01*
X1138Y-1213D01*
X1057Y-1132D01*
X950Y-1087D01*
X715Y-1087D01*
X642Y-1160D01*
X642Y-1627D01*
X650Y-1627D01*
X650Y-1727D01*
X642Y-1727D01*
X642Y-2195D01*
X715Y-2267D01*
X950Y-2267D01*
X1057Y-2223D01*
X1138Y-2142D01*
X1142Y-2132D01*
X1142Y-2777D01*
X1177Y-2950D01*
X1274Y-3096D01*
X3399Y-5221D01*
X3408Y-5229D01*
X3479Y-5403D01*
X3616Y-5540D01*
X3742Y-5592D01*
X3742Y-6101D01*
X3742Y-6101D01*
G37*
G54D36*
X3742Y-6101D02*
X3710Y-6088D01*
X3476Y-6087D01*
X3259Y-6177D01*
X3093Y-6343D01*
X3092Y-6343D01*
X2927Y-6178D01*
X2710Y-6088D01*
X2476Y-6087D01*
X2259Y-6177D01*
X2093Y-6343D01*
X2092Y-6343D01*
X1927Y-6178D01*
X1710Y-6088D01*
X1476Y-6087D01*
X1259Y-6177D01*
X1093Y-6343D01*
X1092Y-6343D01*
X927Y-6178D01*
X710Y-6088D01*
X476Y-6087D01*
X319Y-6152D01*
X319Y-2267D01*
X470Y-2267D01*
X542Y-2195D01*
X542Y-1727D01*
X535Y-1727D01*
X535Y-1627D01*
X542Y-1627D01*
X542Y-1160D01*
X470Y-1087D01*
X319Y-1087D01*
X319Y-319D01*
X2061Y-319D01*
X2003Y-460D01*
X2002Y-694D01*
X2092Y-911D01*
X2142Y-962D01*
X2142Y-1293D01*
X2093Y-1343D01*
X2092Y-1343D01*
X1927Y-1178D01*
X1710Y-1088D01*
X1476Y-1087D01*
X1259Y-1177D01*
X1163Y-1273D01*
X1138Y-1213D01*
X1057Y-1132D01*
X950Y-1087D01*
X715Y-1087D01*
X642Y-1160D01*
X642Y-1627D01*
X650Y-1627D01*
X650Y-1727D01*
X642Y-1727D01*
X642Y-2195D01*
X715Y-2267D01*
X950Y-2267D01*
X1057Y-2223D01*
X1138Y-2142D01*
X1142Y-2132D01*
X1142Y-2777D01*
X1177Y-2950D01*
X1274Y-3096D01*
X3399Y-5221D01*
X3408Y-5229D01*
X3479Y-5403D01*
X3616Y-5540D01*
X3742Y-5592D01*
X3742Y-6101D01*
G54D10*
G36*
X3875Y-9027D02*
X3867Y-9027D01*
X3867Y-9035D01*
X3767Y-9035D01*
X3767Y-9027D01*
X3760Y-9027D01*
X3760Y-8927D01*
X3767Y-8927D01*
X3767Y-8920D01*
X3867Y-8920D01*
X3867Y-8927D01*
X3875Y-8927D01*
X3875Y-9027D01*
X3875Y-9027D01*
G37*
G54D36*
X3875Y-9027D02*
X3867Y-9027D01*
X3867Y-9035D01*
X3767Y-9035D01*
X3767Y-9027D01*
X3760Y-9027D01*
X3760Y-8927D01*
X3767Y-8927D01*
X3767Y-8920D01*
X3867Y-8920D01*
X3867Y-8927D01*
X3875Y-8927D01*
X3875Y-9027D01*
G54D10*
G36*
X5346Y-12278D02*
X5257Y-12367D01*
X5257Y-11685D01*
X5257Y-11575D01*
X5185Y-11502D01*
X4742Y-11502D01*
X4742Y-11845D01*
X4815Y-11917D01*
X4910Y-11917D01*
X5025Y-11917D01*
X5132Y-11873D01*
X5213Y-11792D01*
X5257Y-11685D01*
X5257Y-12367D01*
X4931Y-12694D01*
X4642Y-12694D01*
X4642Y-11845D01*
X4642Y-11502D01*
X4385Y-11502D01*
X4200Y-11502D01*
X3942Y-11502D01*
X3942Y-11845D01*
X4015Y-11917D01*
X4110Y-11917D01*
X4225Y-11917D01*
X4292Y-11890D01*
X4360Y-11917D01*
X4475Y-11917D01*
X4570Y-11917D01*
X4642Y-11845D01*
X4642Y-12694D01*
X3602Y-12694D01*
X3593Y-12698D01*
X3593Y-12665D01*
X3593Y-11917D01*
X3675Y-11917D01*
X3770Y-11917D01*
X3842Y-11845D01*
X3842Y-11502D01*
X3835Y-11502D01*
X3835Y-11402D01*
X3842Y-11402D01*
X3842Y-11395D01*
X3942Y-11395D01*
X3942Y-11402D01*
X4200Y-11402D01*
X4385Y-11402D01*
X4642Y-11402D01*
X4642Y-11395D01*
X4742Y-11395D01*
X4742Y-11402D01*
X5185Y-11402D01*
X5257Y-11330D01*
X5257Y-11249D01*
X5346Y-11249D01*
X5346Y-12278D01*
X5346Y-12278D01*
G37*
G54D36*
X5346Y-12278D02*
X5257Y-12367D01*
X5257Y-11685D01*
X5257Y-11575D01*
X5185Y-11502D01*
X4742Y-11502D01*
X4742Y-11845D01*
X4815Y-11917D01*
X4910Y-11917D01*
X5025Y-11917D01*
X5132Y-11873D01*
X5213Y-11792D01*
X5257Y-11685D01*
X5257Y-12367D01*
X4931Y-12694D01*
X4642Y-12694D01*
X4642Y-11845D01*
X4642Y-11502D01*
X4385Y-11502D01*
X4200Y-11502D01*
X3942Y-11502D01*
X3942Y-11845D01*
X4015Y-11917D01*
X4110Y-11917D01*
X4225Y-11917D01*
X4292Y-11890D01*
X4360Y-11917D01*
X4475Y-11917D01*
X4570Y-11917D01*
X4642Y-11845D01*
X4642Y-12694D01*
X3602Y-12694D01*
X3593Y-12698D01*
X3593Y-12665D01*
X3593Y-11917D01*
X3675Y-11917D01*
X3770Y-11917D01*
X3842Y-11845D01*
X3842Y-11502D01*
X3835Y-11502D01*
X3835Y-11402D01*
X3842Y-11402D01*
X3842Y-11395D01*
X3942Y-11395D01*
X3942Y-11402D01*
X4200Y-11402D01*
X4385Y-11402D01*
X4642Y-11402D01*
X4642Y-11395D01*
X4742Y-11395D01*
X4742Y-11402D01*
X5185Y-11402D01*
X5257Y-11330D01*
X5257Y-11249D01*
X5346Y-11249D01*
X5346Y-12278D01*
G54D10*
G36*
X8088Y-319D02*
X7161Y-1246D01*
X7155Y-1255D01*
X7138Y-1213D01*
X7057Y-1132D01*
X6950Y-1087D01*
X6715Y-1087D01*
X6642Y-1160D01*
X6642Y-1627D01*
X6650Y-1627D01*
X6650Y-1727D01*
X6642Y-1727D01*
X6642Y-1735D01*
X6542Y-1735D01*
X6542Y-1727D01*
X6535Y-1727D01*
X6535Y-1627D01*
X6542Y-1627D01*
X6542Y-1160D01*
X6470Y-1087D01*
X6235Y-1087D01*
X6128Y-1132D01*
X6047Y-1213D01*
X6042Y-1223D01*
X6042Y-1129D01*
X6057Y-1123D01*
X6138Y-1042D01*
X6182Y-935D01*
X6182Y-820D01*
X6182Y-319D01*
X8088Y-319D01*
X8088Y-319D01*
G37*
G54D36*
X8088Y-319D02*
X7161Y-1246D01*
X7155Y-1255D01*
X7138Y-1213D01*
X7057Y-1132D01*
X6950Y-1087D01*
X6715Y-1087D01*
X6642Y-1160D01*
X6642Y-1627D01*
X6650Y-1627D01*
X6650Y-1727D01*
X6642Y-1727D01*
X6642Y-1735D01*
X6542Y-1735D01*
X6542Y-1727D01*
X6535Y-1727D01*
X6535Y-1627D01*
X6542Y-1627D01*
X6542Y-1160D01*
X6470Y-1087D01*
X6235Y-1087D01*
X6128Y-1132D01*
X6047Y-1213D01*
X6042Y-1223D01*
X6042Y-1129D01*
X6057Y-1123D01*
X6138Y-1042D01*
X6182Y-935D01*
X6182Y-820D01*
X6182Y-319D01*
X8088Y-319D01*
G54D10*
G36*
X8727Y-14405D02*
X8706Y-14383D01*
X8535Y-14313D01*
X8350Y-14312D01*
X8179Y-14383D01*
X8168Y-14395D01*
X8150Y-14387D01*
X7015Y-14387D01*
X6942Y-14460D01*
X6942Y-15827D01*
X6950Y-15827D01*
X6950Y-15927D01*
X6942Y-15927D01*
X6942Y-17295D01*
X7015Y-17367D01*
X8029Y-17367D01*
X7956Y-17441D01*
X7925Y-17487D01*
X7410Y-17487D01*
X7303Y-17532D01*
X7222Y-17613D01*
X7177Y-17720D01*
X7177Y-17835D01*
X7177Y-19035D01*
X7222Y-19142D01*
X7303Y-19223D01*
X7410Y-19267D01*
X7525Y-19267D01*
X7820Y-19267D01*
X7861Y-19309D01*
X7945Y-19365D01*
X6842Y-19365D01*
X6842Y-17295D01*
X6842Y-15927D01*
X5475Y-15927D01*
X5402Y-16000D01*
X5402Y-16072D01*
X5388Y-16038D01*
X5307Y-15957D01*
X5200Y-15912D01*
X5090Y-15912D01*
X5017Y-15985D01*
X5017Y-16427D01*
X5025Y-16427D01*
X5025Y-16527D01*
X5017Y-16527D01*
X5017Y-16535D01*
X4917Y-16535D01*
X4917Y-16527D01*
X4910Y-16527D01*
X4910Y-16427D01*
X4917Y-16427D01*
X4917Y-15985D01*
X4845Y-15912D01*
X4735Y-15912D01*
X4628Y-15957D01*
X4592Y-15992D01*
X4557Y-15957D01*
X4450Y-15912D01*
X4335Y-15912D01*
X4167Y-15912D01*
X4167Y-15370D01*
X4167Y-14927D01*
X4167Y-14827D01*
X4167Y-14385D01*
X4095Y-14312D01*
X3985Y-14312D01*
X3878Y-14357D01*
X3797Y-14438D01*
X3752Y-14545D01*
X3752Y-14660D01*
X3752Y-14755D01*
X3825Y-14827D01*
X4167Y-14827D01*
X4167Y-14927D01*
X3825Y-14927D01*
X3752Y-15000D01*
X3752Y-15095D01*
X3752Y-15210D01*
X3797Y-15317D01*
X3878Y-15398D01*
X3985Y-15442D01*
X4095Y-15442D01*
X4167Y-15370D01*
X4167Y-15912D01*
X3985Y-15912D01*
X3878Y-15957D01*
X3797Y-16038D01*
X3752Y-16145D01*
X3752Y-16260D01*
X3752Y-16742D01*
X3474Y-16742D01*
X3539Y-16678D01*
X3727Y-16224D01*
X3728Y-15733D01*
X3540Y-15279D01*
X3193Y-14931D01*
X2739Y-14743D01*
X2248Y-14742D01*
X1794Y-14930D01*
X1446Y-15277D01*
X1258Y-15731D01*
X1257Y-16222D01*
X1445Y-16676D01*
X1511Y-16742D01*
X1346Y-16743D01*
X893Y-16930D01*
X789Y-17104D01*
X1592Y-17907D01*
X1598Y-17901D01*
X1669Y-17972D01*
X1663Y-17977D01*
X2466Y-18780D01*
X2640Y-18677D01*
X2757Y-18392D01*
X2757Y-18980D01*
X2802Y-19087D01*
X2883Y-19168D01*
X2990Y-19212D01*
X3105Y-19212D01*
X4995Y-19212D01*
X5102Y-19168D01*
X5183Y-19087D01*
X5227Y-18980D01*
X5227Y-18865D01*
X5227Y-18587D01*
X5340Y-18587D01*
X5377Y-18625D01*
X5377Y-19035D01*
X5422Y-19142D01*
X5503Y-19223D01*
X5610Y-19267D01*
X5725Y-19267D01*
X6375Y-19267D01*
X6482Y-19223D01*
X6563Y-19142D01*
X6607Y-19035D01*
X6607Y-18920D01*
X6607Y-17720D01*
X6563Y-17613D01*
X6482Y-17532D01*
X6375Y-17487D01*
X6260Y-17487D01*
X5936Y-17487D01*
X5826Y-17414D01*
X5592Y-17367D01*
X5227Y-17367D01*
X5227Y-17031D01*
X5307Y-16998D01*
X5388Y-16917D01*
X5402Y-16883D01*
X5402Y-17020D01*
X5402Y-17135D01*
X5447Y-17242D01*
X5528Y-17323D01*
X5635Y-17367D01*
X6770Y-17367D01*
X6842Y-17295D01*
X6842Y-19365D01*
X2395Y-19365D01*
X2395Y-18851D01*
X1592Y-18048D01*
X1522Y-18119D01*
X1522Y-17977D01*
X719Y-17174D01*
X545Y-17278D01*
X357Y-17732D01*
X358Y-18224D01*
X545Y-18677D01*
X719Y-18780D01*
X1522Y-17977D01*
X1522Y-18119D01*
X789Y-18851D01*
X893Y-19025D01*
X1347Y-19213D01*
X1839Y-19212D01*
X2292Y-19025D01*
X2395Y-18851D01*
X2395Y-19365D01*
X319Y-19365D01*
X319Y-13013D01*
X1196Y-13013D01*
X1303Y-12969D01*
X1384Y-12887D01*
X1428Y-12781D01*
X1428Y-12665D01*
X1428Y-11878D01*
X1384Y-11772D01*
X1303Y-11690D01*
X1196Y-11646D01*
X1081Y-11646D01*
X319Y-11646D01*
X319Y-9509D01*
X1042Y-9509D01*
X1042Y-10177D01*
X1069Y-10311D01*
X1145Y-10425D01*
X1545Y-10825D01*
X1658Y-10901D01*
X1658Y-10901D01*
X1792Y-10927D01*
X2107Y-10927D01*
X2107Y-11049D01*
X2108Y-11050D01*
X2107Y-11051D01*
X2107Y-11063D01*
X2092Y-11048D01*
X1921Y-10977D01*
X1735Y-10976D01*
X1563Y-11047D01*
X1432Y-11179D01*
X1360Y-11350D01*
X1360Y-11536D01*
X1431Y-11708D01*
X1563Y-11839D01*
X1734Y-11910D01*
X1920Y-11911D01*
X2036Y-11863D01*
X2029Y-11878D01*
X2029Y-11994D01*
X2029Y-12781D01*
X2074Y-12887D01*
X2155Y-12969D01*
X2262Y-13013D01*
X2377Y-13013D01*
X3361Y-13013D01*
X3370Y-13009D01*
X3370Y-13042D01*
X3370Y-13829D01*
X3414Y-13935D01*
X3496Y-14017D01*
X3602Y-14061D01*
X3718Y-14061D01*
X4617Y-14061D01*
X4617Y-14367D01*
X4592Y-14392D01*
X4557Y-14357D01*
X4450Y-14312D01*
X4340Y-14312D01*
X4267Y-14385D01*
X4267Y-14827D01*
X4275Y-14827D01*
X4275Y-14927D01*
X4267Y-14927D01*
X4267Y-15370D01*
X4340Y-15442D01*
X4450Y-15442D01*
X4557Y-15398D01*
X4592Y-15363D01*
X4628Y-15398D01*
X4735Y-15442D01*
X4850Y-15442D01*
X5200Y-15442D01*
X5307Y-15398D01*
X5388Y-15317D01*
X5402Y-15283D01*
X5402Y-15755D01*
X5475Y-15827D01*
X6842Y-15827D01*
X6842Y-14460D01*
X6770Y-14387D01*
X5635Y-14387D01*
X5528Y-14432D01*
X5447Y-14513D01*
X5432Y-14547D01*
X5432Y-14545D01*
X5388Y-14438D01*
X5317Y-14367D01*
X5317Y-14061D01*
X5883Y-14061D01*
X5989Y-14017D01*
X6071Y-13935D01*
X6115Y-13829D01*
X6115Y-13713D01*
X6115Y-13095D01*
X6645Y-13625D01*
X6758Y-13701D01*
X6758Y-13701D01*
X6892Y-13727D01*
X7070Y-13727D01*
X7070Y-13829D01*
X7114Y-13935D01*
X7196Y-14017D01*
X7302Y-14061D01*
X7418Y-14061D01*
X8603Y-14061D01*
X8727Y-14186D01*
X8727Y-14405D01*
X8727Y-14405D01*
G37*
G54D36*
X8727Y-14405D02*
X8706Y-14383D01*
X8535Y-14313D01*
X8350Y-14312D01*
X8179Y-14383D01*
X8168Y-14395D01*
X8150Y-14387D01*
X7015Y-14387D01*
X6942Y-14460D01*
X6942Y-15827D01*
X6950Y-15827D01*
X6950Y-15927D01*
X6942Y-15927D01*
X6942Y-17295D01*
X7015Y-17367D01*
X8029Y-17367D01*
X7956Y-17441D01*
X7925Y-17487D01*
X7410Y-17487D01*
X7303Y-17532D01*
X7222Y-17613D01*
X7177Y-17720D01*
X7177Y-17835D01*
X7177Y-19035D01*
X7222Y-19142D01*
X7303Y-19223D01*
X7410Y-19267D01*
X7525Y-19267D01*
X7820Y-19267D01*
X7861Y-19309D01*
X7945Y-19365D01*
X6842Y-19365D01*
X6842Y-17295D01*
X6842Y-15927D01*
X5475Y-15927D01*
X5402Y-16000D01*
X5402Y-16072D01*
X5388Y-16038D01*
X5307Y-15957D01*
X5200Y-15912D01*
X5090Y-15912D01*
X5017Y-15985D01*
X5017Y-16427D01*
X5025Y-16427D01*
X5025Y-16527D01*
X5017Y-16527D01*
X5017Y-16535D01*
X4917Y-16535D01*
X4917Y-16527D01*
X4910Y-16527D01*
X4910Y-16427D01*
X4917Y-16427D01*
X4917Y-15985D01*
X4845Y-15912D01*
X4735Y-15912D01*
X4628Y-15957D01*
X4592Y-15992D01*
X4557Y-15957D01*
X4450Y-15912D01*
X4335Y-15912D01*
X4167Y-15912D01*
X4167Y-15370D01*
X4167Y-14927D01*
X4167Y-14827D01*
X4167Y-14385D01*
X4095Y-14312D01*
X3985Y-14312D01*
X3878Y-14357D01*
X3797Y-14438D01*
X3752Y-14545D01*
X3752Y-14660D01*
X3752Y-14755D01*
X3825Y-14827D01*
X4167Y-14827D01*
X4167Y-14927D01*
X3825Y-14927D01*
X3752Y-15000D01*
X3752Y-15095D01*
X3752Y-15210D01*
X3797Y-15317D01*
X3878Y-15398D01*
X3985Y-15442D01*
X4095Y-15442D01*
X4167Y-15370D01*
X4167Y-15912D01*
X3985Y-15912D01*
X3878Y-15957D01*
X3797Y-16038D01*
X3752Y-16145D01*
X3752Y-16260D01*
X3752Y-16742D01*
X3474Y-16742D01*
X3539Y-16678D01*
X3727Y-16224D01*
X3728Y-15733D01*
X3540Y-15279D01*
X3193Y-14931D01*
X2739Y-14743D01*
X2248Y-14742D01*
X1794Y-14930D01*
X1446Y-15277D01*
X1258Y-15731D01*
X1257Y-16222D01*
X1445Y-16676D01*
X1511Y-16742D01*
X1346Y-16743D01*
X893Y-16930D01*
X789Y-17104D01*
X1592Y-17907D01*
X1598Y-17901D01*
X1669Y-17972D01*
X1663Y-17977D01*
X2466Y-18780D01*
X2640Y-18677D01*
X2757Y-18392D01*
X2757Y-18980D01*
X2802Y-19087D01*
X2883Y-19168D01*
X2990Y-19212D01*
X3105Y-19212D01*
X4995Y-19212D01*
X5102Y-19168D01*
X5183Y-19087D01*
X5227Y-18980D01*
X5227Y-18865D01*
X5227Y-18587D01*
X5340Y-18587D01*
X5377Y-18625D01*
X5377Y-19035D01*
X5422Y-19142D01*
X5503Y-19223D01*
X5610Y-19267D01*
X5725Y-19267D01*
X6375Y-19267D01*
X6482Y-19223D01*
X6563Y-19142D01*
X6607Y-19035D01*
X6607Y-18920D01*
X6607Y-17720D01*
X6563Y-17613D01*
X6482Y-17532D01*
X6375Y-17487D01*
X6260Y-17487D01*
X5936Y-17487D01*
X5826Y-17414D01*
X5592Y-17367D01*
X5227Y-17367D01*
X5227Y-17031D01*
X5307Y-16998D01*
X5388Y-16917D01*
X5402Y-16883D01*
X5402Y-17020D01*
X5402Y-17135D01*
X5447Y-17242D01*
X5528Y-17323D01*
X5635Y-17367D01*
X6770Y-17367D01*
X6842Y-17295D01*
X6842Y-19365D01*
X2395Y-19365D01*
X2395Y-18851D01*
X1592Y-18048D01*
X1522Y-18119D01*
X1522Y-17977D01*
X719Y-17174D01*
X545Y-17278D01*
X357Y-17732D01*
X358Y-18224D01*
X545Y-18677D01*
X719Y-18780D01*
X1522Y-17977D01*
X1522Y-18119D01*
X789Y-18851D01*
X893Y-19025D01*
X1347Y-19213D01*
X1839Y-19212D01*
X2292Y-19025D01*
X2395Y-18851D01*
X2395Y-19365D01*
X319Y-19365D01*
X319Y-13013D01*
X1196Y-13013D01*
X1303Y-12969D01*
X1384Y-12887D01*
X1428Y-12781D01*
X1428Y-12665D01*
X1428Y-11878D01*
X1384Y-11772D01*
X1303Y-11690D01*
X1196Y-11646D01*
X1081Y-11646D01*
X319Y-11646D01*
X319Y-9509D01*
X1042Y-9509D01*
X1042Y-10177D01*
X1069Y-10311D01*
X1145Y-10425D01*
X1545Y-10825D01*
X1658Y-10901D01*
X1658Y-10901D01*
X1792Y-10927D01*
X2107Y-10927D01*
X2107Y-11049D01*
X2108Y-11050D01*
X2107Y-11051D01*
X2107Y-11063D01*
X2092Y-11048D01*
X1921Y-10977D01*
X1735Y-10976D01*
X1563Y-11047D01*
X1432Y-11179D01*
X1360Y-11350D01*
X1360Y-11536D01*
X1431Y-11708D01*
X1563Y-11839D01*
X1734Y-11910D01*
X1920Y-11911D01*
X2036Y-11863D01*
X2029Y-11878D01*
X2029Y-11994D01*
X2029Y-12781D01*
X2074Y-12887D01*
X2155Y-12969D01*
X2262Y-13013D01*
X2377Y-13013D01*
X3361Y-13013D01*
X3370Y-13009D01*
X3370Y-13042D01*
X3370Y-13829D01*
X3414Y-13935D01*
X3496Y-14017D01*
X3602Y-14061D01*
X3718Y-14061D01*
X4617Y-14061D01*
X4617Y-14367D01*
X4592Y-14392D01*
X4557Y-14357D01*
X4450Y-14312D01*
X4340Y-14312D01*
X4267Y-14385D01*
X4267Y-14827D01*
X4275Y-14827D01*
X4275Y-14927D01*
X4267Y-14927D01*
X4267Y-15370D01*
X4340Y-15442D01*
X4450Y-15442D01*
X4557Y-15398D01*
X4592Y-15363D01*
X4628Y-15398D01*
X4735Y-15442D01*
X4850Y-15442D01*
X5200Y-15442D01*
X5307Y-15398D01*
X5388Y-15317D01*
X5402Y-15283D01*
X5402Y-15755D01*
X5475Y-15827D01*
X6842Y-15827D01*
X6842Y-14460D01*
X6770Y-14387D01*
X5635Y-14387D01*
X5528Y-14432D01*
X5447Y-14513D01*
X5432Y-14547D01*
X5432Y-14545D01*
X5388Y-14438D01*
X5317Y-14367D01*
X5317Y-14061D01*
X5883Y-14061D01*
X5989Y-14017D01*
X6071Y-13935D01*
X6115Y-13829D01*
X6115Y-13713D01*
X6115Y-13095D01*
X6645Y-13625D01*
X6758Y-13701D01*
X6758Y-13701D01*
X6892Y-13727D01*
X7070Y-13727D01*
X7070Y-13829D01*
X7114Y-13935D01*
X7196Y-14017D01*
X7302Y-14061D01*
X7418Y-14061D01*
X8603Y-14061D01*
X8727Y-14186D01*
X8727Y-14405D01*
G54D10*
G36*
X8830Y-9557D02*
X8779Y-9557D01*
X8779Y-9557D01*
X8292Y-9557D01*
X6742Y-9557D01*
X6601Y-9586D01*
X6481Y-9666D01*
X6376Y-9770D01*
X6375Y-9768D01*
X6380Y-9757D01*
X6380Y-9641D01*
X6380Y-9464D01*
X6375Y-9453D01*
X6380Y-9442D01*
X6380Y-9412D01*
X6343Y-9375D01*
X6336Y-9358D01*
X6274Y-9295D01*
X6336Y-9233D01*
X6343Y-9216D01*
X6380Y-9179D01*
X6380Y-9149D01*
X6375Y-9138D01*
X6380Y-9127D01*
X6380Y-9011D01*
X6380Y-8834D01*
X6375Y-8823D01*
X6380Y-8812D01*
X6380Y-8696D01*
X6380Y-8561D01*
X6450Y-8561D01*
X6627Y-8561D01*
X6637Y-8556D01*
X6648Y-8561D01*
X6764Y-8561D01*
X6941Y-8561D01*
X6952Y-8556D01*
X6964Y-8561D01*
X7080Y-8561D01*
X7085Y-8561D01*
X7101Y-8643D01*
X7177Y-8757D01*
X7245Y-8825D01*
X7358Y-8901D01*
X7358Y-8901D01*
X7492Y-8927D01*
X8779Y-8927D01*
X8779Y-8947D01*
X8779Y-9124D01*
X8785Y-9137D01*
X8779Y-9151D01*
X8779Y-9267D01*
X8779Y-9444D01*
X8783Y-9452D01*
X8779Y-9461D01*
X8779Y-9491D01*
X8812Y-9524D01*
X8823Y-9550D01*
X8830Y-9557D01*
X8830Y-9557D01*
G37*
G54D36*
X8830Y-9557D02*
X8779Y-9557D01*
X8779Y-9557D01*
X8292Y-9557D01*
X6742Y-9557D01*
X6601Y-9586D01*
X6481Y-9666D01*
X6376Y-9770D01*
X6375Y-9768D01*
X6380Y-9757D01*
X6380Y-9641D01*
X6380Y-9464D01*
X6375Y-9453D01*
X6380Y-9442D01*
X6380Y-9412D01*
X6343Y-9375D01*
X6336Y-9358D01*
X6274Y-9295D01*
X6336Y-9233D01*
X6343Y-9216D01*
X6380Y-9179D01*
X6380Y-9149D01*
X6375Y-9138D01*
X6380Y-9127D01*
X6380Y-9011D01*
X6380Y-8834D01*
X6375Y-8823D01*
X6380Y-8812D01*
X6380Y-8696D01*
X6380Y-8561D01*
X6450Y-8561D01*
X6627Y-8561D01*
X6637Y-8556D01*
X6648Y-8561D01*
X6764Y-8561D01*
X6941Y-8561D01*
X6952Y-8556D01*
X6964Y-8561D01*
X7080Y-8561D01*
X7085Y-8561D01*
X7101Y-8643D01*
X7177Y-8757D01*
X7245Y-8825D01*
X7358Y-8901D01*
X7358Y-8901D01*
X7492Y-8927D01*
X8779Y-8927D01*
X8779Y-8947D01*
X8779Y-9124D01*
X8785Y-9137D01*
X8779Y-9151D01*
X8779Y-9267D01*
X8779Y-9444D01*
X8783Y-9452D01*
X8779Y-9461D01*
X8779Y-9491D01*
X8812Y-9524D01*
X8823Y-9550D01*
X8830Y-9557D01*
G54D10*
G36*
X10722Y-1615D02*
X10693Y-1544D01*
X10527Y-1378D01*
X10310Y-1288D01*
X10076Y-1287D01*
X9859Y-1377D01*
X9693Y-1543D01*
X9603Y-1760D01*
X9602Y-1994D01*
X9625Y-2050D01*
X8745Y-2930D01*
X8669Y-3044D01*
X8642Y-3177D01*
X8642Y-4632D01*
X8045Y-5230D01*
X7969Y-5344D01*
X7942Y-5477D01*
X7942Y-6193D01*
X7927Y-6178D01*
X7710Y-6088D01*
X7476Y-6087D01*
X7259Y-6177D01*
X7093Y-6343D01*
X7092Y-6343D01*
X7077Y-6328D01*
X7113Y-6292D01*
X7157Y-6185D01*
X7157Y-6070D01*
X7157Y-5720D01*
X7113Y-5613D01*
X7078Y-5577D01*
X7113Y-5542D01*
X7157Y-5435D01*
X7157Y-5320D01*
X7157Y-4970D01*
X7113Y-4863D01*
X7078Y-4827D01*
X7113Y-4792D01*
X7157Y-4685D01*
X7157Y-4570D01*
X7157Y-4220D01*
X7113Y-4113D01*
X7078Y-4077D01*
X7113Y-4042D01*
X7157Y-3935D01*
X7157Y-3825D01*
X7157Y-3580D01*
X7157Y-3470D01*
X7113Y-3363D01*
X7032Y-3282D01*
X6925Y-3237D01*
X6810Y-3237D01*
X6715Y-3237D01*
X6667Y-3285D01*
X6667Y-3070D01*
X6667Y-2627D01*
X6325Y-2627D01*
X6252Y-2700D01*
X6252Y-2795D01*
X6252Y-2910D01*
X6297Y-3017D01*
X6378Y-3098D01*
X6485Y-3142D01*
X6595Y-3142D01*
X6667Y-3070D01*
X6667Y-3285D01*
X6642Y-3310D01*
X6642Y-3652D01*
X7085Y-3652D01*
X7157Y-3580D01*
X7157Y-3825D01*
X7085Y-3752D01*
X6642Y-3752D01*
X6642Y-3760D01*
X6542Y-3760D01*
X6542Y-3752D01*
X6542Y-3652D01*
X6542Y-3310D01*
X6470Y-3237D01*
X6375Y-3237D01*
X6260Y-3237D01*
X6153Y-3282D01*
X6072Y-3363D01*
X6027Y-3470D01*
X6027Y-3580D01*
X6100Y-3652D01*
X6542Y-3652D01*
X6542Y-3752D01*
X6100Y-3752D01*
X6027Y-3825D01*
X6027Y-3935D01*
X6072Y-4042D01*
X6107Y-4077D01*
X6072Y-4113D01*
X6027Y-4220D01*
X6027Y-4335D01*
X6027Y-4685D01*
X6055Y-4752D01*
X5961Y-4752D01*
X5925Y-4737D01*
X5810Y-4737D01*
X5260Y-4737D01*
X5224Y-4752D01*
X4961Y-4752D01*
X4925Y-4737D01*
X4810Y-4737D01*
X4260Y-4737D01*
X4224Y-4752D01*
X4206Y-4752D01*
X4169Y-4715D01*
X4165Y-4713D01*
X4036Y-4584D01*
X2042Y-2591D01*
X2042Y-2062D01*
X2092Y-2012D01*
X2092Y-2012D01*
X2258Y-2177D01*
X2475Y-2267D01*
X2709Y-2268D01*
X2926Y-2178D01*
X3092Y-2012D01*
X3092Y-2012D01*
X3258Y-2177D01*
X3475Y-2267D01*
X3709Y-2268D01*
X3926Y-2178D01*
X4092Y-2012D01*
X4092Y-2012D01*
X4258Y-2177D01*
X4475Y-2267D01*
X4709Y-2268D01*
X4926Y-2178D01*
X5092Y-2012D01*
X5092Y-2012D01*
X5258Y-2177D01*
X5475Y-2267D01*
X5709Y-2268D01*
X5926Y-2178D01*
X6022Y-2082D01*
X6047Y-2142D01*
X6128Y-2223D01*
X6235Y-2267D01*
X6252Y-2267D01*
X6252Y-2360D01*
X6252Y-2455D01*
X6325Y-2527D01*
X6667Y-2527D01*
X6667Y-2520D01*
X6767Y-2520D01*
X6767Y-2527D01*
X6775Y-2527D01*
X6775Y-2627D01*
X6767Y-2627D01*
X6767Y-3070D01*
X6840Y-3142D01*
X6950Y-3142D01*
X7057Y-3098D01*
X7092Y-3063D01*
X7128Y-3098D01*
X7235Y-3142D01*
X7350Y-3142D01*
X7700Y-3142D01*
X7807Y-3098D01*
X7888Y-3017D01*
X7932Y-2910D01*
X7932Y-2795D01*
X7932Y-2503D01*
X7942Y-2452D01*
X7942Y-2163D01*
X8024Y-2109D01*
X9095Y-1037D01*
X10722Y-1037D01*
X10722Y-1615D01*
X10722Y-1615D01*
G37*
G54D36*
X10722Y-1615D02*
X10693Y-1544D01*
X10527Y-1378D01*
X10310Y-1288D01*
X10076Y-1287D01*
X9859Y-1377D01*
X9693Y-1543D01*
X9603Y-1760D01*
X9602Y-1994D01*
X9625Y-2050D01*
X8745Y-2930D01*
X8669Y-3044D01*
X8642Y-3177D01*
X8642Y-4632D01*
X8045Y-5230D01*
X7969Y-5344D01*
X7942Y-5477D01*
X7942Y-6193D01*
X7927Y-6178D01*
X7710Y-6088D01*
X7476Y-6087D01*
X7259Y-6177D01*
X7093Y-6343D01*
X7092Y-6343D01*
X7077Y-6328D01*
X7113Y-6292D01*
X7157Y-6185D01*
X7157Y-6070D01*
X7157Y-5720D01*
X7113Y-5613D01*
X7078Y-5577D01*
X7113Y-5542D01*
X7157Y-5435D01*
X7157Y-5320D01*
X7157Y-4970D01*
X7113Y-4863D01*
X7078Y-4827D01*
X7113Y-4792D01*
X7157Y-4685D01*
X7157Y-4570D01*
X7157Y-4220D01*
X7113Y-4113D01*
X7078Y-4077D01*
X7113Y-4042D01*
X7157Y-3935D01*
X7157Y-3825D01*
X7157Y-3580D01*
X7157Y-3470D01*
X7113Y-3363D01*
X7032Y-3282D01*
X6925Y-3237D01*
X6810Y-3237D01*
X6715Y-3237D01*
X6667Y-3285D01*
X6667Y-3070D01*
X6667Y-2627D01*
X6325Y-2627D01*
X6252Y-2700D01*
X6252Y-2795D01*
X6252Y-2910D01*
X6297Y-3017D01*
X6378Y-3098D01*
X6485Y-3142D01*
X6595Y-3142D01*
X6667Y-3070D01*
X6667Y-3285D01*
X6642Y-3310D01*
X6642Y-3652D01*
X7085Y-3652D01*
X7157Y-3580D01*
X7157Y-3825D01*
X7085Y-3752D01*
X6642Y-3752D01*
X6642Y-3760D01*
X6542Y-3760D01*
X6542Y-3752D01*
X6542Y-3652D01*
X6542Y-3310D01*
X6470Y-3237D01*
X6375Y-3237D01*
X6260Y-3237D01*
X6153Y-3282D01*
X6072Y-3363D01*
X6027Y-3470D01*
X6027Y-3580D01*
X6100Y-3652D01*
X6542Y-3652D01*
X6542Y-3752D01*
X6100Y-3752D01*
X6027Y-3825D01*
X6027Y-3935D01*
X6072Y-4042D01*
X6107Y-4077D01*
X6072Y-4113D01*
X6027Y-4220D01*
X6027Y-4335D01*
X6027Y-4685D01*
X6055Y-4752D01*
X5961Y-4752D01*
X5925Y-4737D01*
X5810Y-4737D01*
X5260Y-4737D01*
X5224Y-4752D01*
X4961Y-4752D01*
X4925Y-4737D01*
X4810Y-4737D01*
X4260Y-4737D01*
X4224Y-4752D01*
X4206Y-4752D01*
X4169Y-4715D01*
X4165Y-4713D01*
X4036Y-4584D01*
X2042Y-2591D01*
X2042Y-2062D01*
X2092Y-2012D01*
X2092Y-2012D01*
X2258Y-2177D01*
X2475Y-2267D01*
X2709Y-2268D01*
X2926Y-2178D01*
X3092Y-2012D01*
X3092Y-2012D01*
X3258Y-2177D01*
X3475Y-2267D01*
X3709Y-2268D01*
X3926Y-2178D01*
X4092Y-2012D01*
X4092Y-2012D01*
X4258Y-2177D01*
X4475Y-2267D01*
X4709Y-2268D01*
X4926Y-2178D01*
X5092Y-2012D01*
X5092Y-2012D01*
X5258Y-2177D01*
X5475Y-2267D01*
X5709Y-2268D01*
X5926Y-2178D01*
X6022Y-2082D01*
X6047Y-2142D01*
X6128Y-2223D01*
X6235Y-2267D01*
X6252Y-2267D01*
X6252Y-2360D01*
X6252Y-2455D01*
X6325Y-2527D01*
X6667Y-2527D01*
X6667Y-2520D01*
X6767Y-2520D01*
X6767Y-2527D01*
X6775Y-2527D01*
X6775Y-2627D01*
X6767Y-2627D01*
X6767Y-3070D01*
X6840Y-3142D01*
X6950Y-3142D01*
X7057Y-3098D01*
X7092Y-3063D01*
X7128Y-3098D01*
X7235Y-3142D01*
X7350Y-3142D01*
X7700Y-3142D01*
X7807Y-3098D01*
X7888Y-3017D01*
X7932Y-2910D01*
X7932Y-2795D01*
X7932Y-2503D01*
X7942Y-2452D01*
X7942Y-2163D01*
X8024Y-2109D01*
X9095Y-1037D01*
X10722Y-1037D01*
X10722Y-1615D01*
G54D10*
G36*
X11288Y-9807D02*
X11258Y-9819D01*
X11079Y-9641D01*
X11033Y-9610D01*
X11019Y-9577D01*
X11057Y-9485D01*
X11057Y-9375D01*
X10985Y-9302D01*
X10542Y-9302D01*
X10542Y-9310D01*
X10442Y-9310D01*
X10442Y-9302D01*
X10435Y-9302D01*
X10435Y-9202D01*
X10442Y-9202D01*
X10442Y-9195D01*
X10542Y-9195D01*
X10542Y-9202D01*
X10985Y-9202D01*
X11004Y-9184D01*
X11102Y-9283D01*
X11102Y-9494D01*
X11192Y-9711D01*
X11288Y-9807D01*
X11288Y-9807D01*
G37*
G54D36*
X11288Y-9807D02*
X11258Y-9819D01*
X11079Y-9641D01*
X11033Y-9610D01*
X11019Y-9577D01*
X11057Y-9485D01*
X11057Y-9375D01*
X10985Y-9302D01*
X10542Y-9302D01*
X10542Y-9310D01*
X10442Y-9310D01*
X10442Y-9302D01*
X10435Y-9302D01*
X10435Y-9202D01*
X10442Y-9202D01*
X10442Y-9195D01*
X10542Y-9195D01*
X10542Y-9202D01*
X10985Y-9202D01*
X11004Y-9184D01*
X11102Y-9283D01*
X11102Y-9494D01*
X11192Y-9711D01*
X11288Y-9807D01*
G54D10*
G36*
X13075Y-1327D02*
X13067Y-1327D01*
X13067Y-1335D01*
X12967Y-1335D01*
X12967Y-1327D01*
X12760Y-1327D01*
X12625Y-1327D01*
X12417Y-1327D01*
X12417Y-1335D01*
X12317Y-1335D01*
X12317Y-1327D01*
X12310Y-1327D01*
X12310Y-1227D01*
X12317Y-1227D01*
X12317Y-1220D01*
X12417Y-1220D01*
X12417Y-1227D01*
X12625Y-1227D01*
X12760Y-1227D01*
X12967Y-1227D01*
X12967Y-1220D01*
X13067Y-1220D01*
X13067Y-1227D01*
X13075Y-1227D01*
X13075Y-1327D01*
X13075Y-1327D01*
G37*
G54D36*
X13075Y-1327D02*
X13067Y-1327D01*
X13067Y-1335D01*
X12967Y-1335D01*
X12967Y-1327D01*
X12760Y-1327D01*
X12625Y-1327D01*
X12417Y-1327D01*
X12417Y-1335D01*
X12317Y-1335D01*
X12317Y-1327D01*
X12310Y-1327D01*
X12310Y-1227D01*
X12317Y-1227D01*
X12317Y-1220D01*
X12417Y-1220D01*
X12417Y-1227D01*
X12625Y-1227D01*
X12760Y-1227D01*
X12967Y-1227D01*
X12967Y-1220D01*
X13067Y-1220D01*
X13067Y-1227D01*
X13075Y-1227D01*
X13075Y-1327D01*
G54D10*
G36*
X13335Y-18536D02*
X13214Y-18657D01*
X13195Y-18702D01*
X13186Y-18681D01*
X13082Y-18658D01*
X13011Y-18729D01*
X13011Y-18588D01*
X12989Y-18484D01*
X12778Y-18408D01*
X12553Y-18418D01*
X12396Y-18484D01*
X12373Y-18588D01*
X12692Y-18907D01*
X13011Y-18588D01*
X13011Y-18729D01*
X12763Y-18977D01*
X12769Y-18983D01*
X12698Y-19054D01*
X12692Y-19048D01*
X12687Y-19054D01*
X12616Y-18983D01*
X12622Y-18977D01*
X12303Y-18658D01*
X12257Y-18668D01*
X12257Y-18645D01*
X12213Y-18538D01*
X12132Y-18457D01*
X12025Y-18412D01*
X11910Y-18412D01*
X11360Y-18412D01*
X11253Y-18457D01*
X11230Y-18480D01*
X11207Y-18457D01*
X11100Y-18412D01*
X10985Y-18412D01*
X10635Y-18412D01*
X10528Y-18457D01*
X10492Y-18492D01*
X10487Y-18487D01*
X10487Y-18318D01*
X10488Y-18317D01*
X10528Y-18220D01*
X10528Y-18220D01*
X10626Y-18201D01*
X10626Y-18201D01*
X10714Y-18142D01*
X10785Y-18143D01*
X10955Y-18072D01*
X11086Y-17941D01*
X11157Y-17770D01*
X11157Y-17585D01*
X11087Y-17414D01*
X11045Y-17372D01*
X13335Y-17372D01*
X13335Y-18536D01*
X13335Y-18536D01*
G37*
G54D36*
X13335Y-18536D02*
X13214Y-18657D01*
X13195Y-18702D01*
X13186Y-18681D01*
X13082Y-18658D01*
X13011Y-18729D01*
X13011Y-18588D01*
X12989Y-18484D01*
X12778Y-18408D01*
X12553Y-18418D01*
X12396Y-18484D01*
X12373Y-18588D01*
X12692Y-18907D01*
X13011Y-18588D01*
X13011Y-18729D01*
X12763Y-18977D01*
X12769Y-18983D01*
X12698Y-19054D01*
X12692Y-19048D01*
X12687Y-19054D01*
X12616Y-18983D01*
X12622Y-18977D01*
X12303Y-18658D01*
X12257Y-18668D01*
X12257Y-18645D01*
X12213Y-18538D01*
X12132Y-18457D01*
X12025Y-18412D01*
X11910Y-18412D01*
X11360Y-18412D01*
X11253Y-18457D01*
X11230Y-18480D01*
X11207Y-18457D01*
X11100Y-18412D01*
X10985Y-18412D01*
X10635Y-18412D01*
X10528Y-18457D01*
X10492Y-18492D01*
X10487Y-18487D01*
X10487Y-18318D01*
X10488Y-18317D01*
X10528Y-18220D01*
X10528Y-18220D01*
X10626Y-18201D01*
X10626Y-18201D01*
X10714Y-18142D01*
X10785Y-18143D01*
X10955Y-18072D01*
X11086Y-17941D01*
X11157Y-17770D01*
X11157Y-17585D01*
X11087Y-17414D01*
X11045Y-17372D01*
X13335Y-17372D01*
X13335Y-18536D01*
G54D10*
G36*
X13493Y-1825D02*
X13478Y-1832D01*
X13397Y-1913D01*
X13352Y-2020D01*
X13352Y-2135D01*
X13352Y-2644D01*
X13289Y-2707D01*
X13266Y-2707D01*
X13306Y-2667D01*
X13350Y-2561D01*
X13350Y-2445D01*
X13350Y-2350D01*
X13278Y-2277D01*
X12992Y-2277D01*
X12992Y-2285D01*
X12892Y-2285D01*
X12892Y-2277D01*
X12885Y-2277D01*
X12885Y-2177D01*
X12892Y-2177D01*
X12892Y-2170D01*
X12992Y-2170D01*
X12992Y-2177D01*
X13278Y-2177D01*
X13350Y-2105D01*
X13350Y-2010D01*
X13350Y-1894D01*
X13317Y-1815D01*
X13357Y-1798D01*
X13392Y-1763D01*
X13428Y-1798D01*
X13493Y-1825D01*
X13493Y-1825D01*
G37*
G54D36*
X13493Y-1825D02*
X13478Y-1832D01*
X13397Y-1913D01*
X13352Y-2020D01*
X13352Y-2135D01*
X13352Y-2644D01*
X13289Y-2707D01*
X13266Y-2707D01*
X13306Y-2667D01*
X13350Y-2561D01*
X13350Y-2445D01*
X13350Y-2350D01*
X13278Y-2277D01*
X12992Y-2277D01*
X12992Y-2285D01*
X12892Y-2285D01*
X12892Y-2277D01*
X12885Y-2277D01*
X12885Y-2177D01*
X12892Y-2177D01*
X12892Y-2170D01*
X12992Y-2170D01*
X12992Y-2177D01*
X13278Y-2177D01*
X13350Y-2105D01*
X13350Y-2010D01*
X13350Y-1894D01*
X13317Y-1815D01*
X13357Y-1798D01*
X13392Y-1763D01*
X13428Y-1798D01*
X13493Y-1825D01*
G54D10*
G36*
X14375Y-10827D02*
X14367Y-10827D01*
X14367Y-10835D01*
X14267Y-10835D01*
X14267Y-10827D01*
X13925Y-10827D01*
X13852Y-10900D01*
X13852Y-10973D01*
X11790Y-10973D01*
X11367Y-11396D01*
X11367Y-14939D01*
X10579Y-15727D01*
X10579Y-16949D01*
X10883Y-17253D01*
X10785Y-17213D01*
X10600Y-17212D01*
X10532Y-17240D01*
X10532Y-17200D01*
X10532Y-16955D01*
X10532Y-16860D01*
X10532Y-16745D01*
X10488Y-16638D01*
X10407Y-16557D01*
X10300Y-16512D01*
X10190Y-16512D01*
X10117Y-16585D01*
X10117Y-17027D01*
X10460Y-17027D01*
X10532Y-16955D01*
X10532Y-17200D01*
X10460Y-17127D01*
X10117Y-17127D01*
X10117Y-17135D01*
X10017Y-17135D01*
X10017Y-17127D01*
X10010Y-17127D01*
X10010Y-17027D01*
X10017Y-17027D01*
X10017Y-16585D01*
X9945Y-16512D01*
X9835Y-16512D01*
X9728Y-16557D01*
X9692Y-16592D01*
X9657Y-16557D01*
X9550Y-16512D01*
X9435Y-16512D01*
X9085Y-16512D01*
X9012Y-16542D01*
X9012Y-15977D01*
X9012Y-15727D01*
X9012Y-15417D01*
X9075Y-15417D01*
X9170Y-15417D01*
X9242Y-15345D01*
X9242Y-15002D01*
X9235Y-15002D01*
X9235Y-14902D01*
X9242Y-14902D01*
X9242Y-14895D01*
X9342Y-14895D01*
X9342Y-14902D01*
X9350Y-14902D01*
X9350Y-15002D01*
X9342Y-15002D01*
X9342Y-15345D01*
X9415Y-15417D01*
X9510Y-15417D01*
X9625Y-15417D01*
X9732Y-15373D01*
X9780Y-15325D01*
X9848Y-15491D01*
X9979Y-15621D01*
X10150Y-15692D01*
X10335Y-15693D01*
X10505Y-15622D01*
X10636Y-15491D01*
X10707Y-15320D01*
X10707Y-15135D01*
X10637Y-14964D01*
X10506Y-14833D01*
X10342Y-14765D01*
X10342Y-13127D01*
X10316Y-12994D01*
X10265Y-12917D01*
X11050Y-12917D01*
X11157Y-12873D01*
X11238Y-12792D01*
X11282Y-12685D01*
X11282Y-12570D01*
X11282Y-12070D01*
X11244Y-11977D01*
X11282Y-11885D01*
X11282Y-11770D01*
X11282Y-11270D01*
X11238Y-11163D01*
X11157Y-11082D01*
X11050Y-11037D01*
X10968Y-11037D01*
X11013Y-10992D01*
X11057Y-10885D01*
X11057Y-10770D01*
X11057Y-10657D01*
X11102Y-10687D01*
X11102Y-10735D01*
X11147Y-10842D01*
X11228Y-10923D01*
X11335Y-10967D01*
X11450Y-10967D01*
X12050Y-10967D01*
X12157Y-10923D01*
X12238Y-10842D01*
X12277Y-10747D01*
X12292Y-10747D01*
X12434Y-10719D01*
X12554Y-10639D01*
X12846Y-10347D01*
X13168Y-10347D01*
X13197Y-10417D01*
X13278Y-10498D01*
X13385Y-10542D01*
X13500Y-10542D01*
X13850Y-10542D01*
X13852Y-10541D01*
X13852Y-10560D01*
X13852Y-10655D01*
X13925Y-10727D01*
X14267Y-10727D01*
X14267Y-10520D01*
X14317Y-10470D01*
X14317Y-10542D01*
X14367Y-10542D01*
X14367Y-10727D01*
X14375Y-10727D01*
X14375Y-10827D01*
X14375Y-10827D01*
G37*
G54D36*
X14375Y-10827D02*
X14367Y-10827D01*
X14367Y-10835D01*
X14267Y-10835D01*
X14267Y-10827D01*
X13925Y-10827D01*
X13852Y-10900D01*
X13852Y-10973D01*
X11790Y-10973D01*
X11367Y-11396D01*
X11367Y-14939D01*
X10579Y-15727D01*
X10579Y-16949D01*
X10883Y-17253D01*
X10785Y-17213D01*
X10600Y-17212D01*
X10532Y-17240D01*
X10532Y-17200D01*
X10532Y-16955D01*
X10532Y-16860D01*
X10532Y-16745D01*
X10488Y-16638D01*
X10407Y-16557D01*
X10300Y-16512D01*
X10190Y-16512D01*
X10117Y-16585D01*
X10117Y-17027D01*
X10460Y-17027D01*
X10532Y-16955D01*
X10532Y-17200D01*
X10460Y-17127D01*
X10117Y-17127D01*
X10117Y-17135D01*
X10017Y-17135D01*
X10017Y-17127D01*
X10010Y-17127D01*
X10010Y-17027D01*
X10017Y-17027D01*
X10017Y-16585D01*
X9945Y-16512D01*
X9835Y-16512D01*
X9728Y-16557D01*
X9692Y-16592D01*
X9657Y-16557D01*
X9550Y-16512D01*
X9435Y-16512D01*
X9085Y-16512D01*
X9012Y-16542D01*
X9012Y-15977D01*
X9012Y-15727D01*
X9012Y-15417D01*
X9075Y-15417D01*
X9170Y-15417D01*
X9242Y-15345D01*
X9242Y-15002D01*
X9235Y-15002D01*
X9235Y-14902D01*
X9242Y-14902D01*
X9242Y-14895D01*
X9342Y-14895D01*
X9342Y-14902D01*
X9350Y-14902D01*
X9350Y-15002D01*
X9342Y-15002D01*
X9342Y-15345D01*
X9415Y-15417D01*
X9510Y-15417D01*
X9625Y-15417D01*
X9732Y-15373D01*
X9780Y-15325D01*
X9848Y-15491D01*
X9979Y-15621D01*
X10150Y-15692D01*
X10335Y-15693D01*
X10505Y-15622D01*
X10636Y-15491D01*
X10707Y-15320D01*
X10707Y-15135D01*
X10637Y-14964D01*
X10506Y-14833D01*
X10342Y-14765D01*
X10342Y-13127D01*
X10316Y-12994D01*
X10265Y-12917D01*
X11050Y-12917D01*
X11157Y-12873D01*
X11238Y-12792D01*
X11282Y-12685D01*
X11282Y-12570D01*
X11282Y-12070D01*
X11244Y-11977D01*
X11282Y-11885D01*
X11282Y-11770D01*
X11282Y-11270D01*
X11238Y-11163D01*
X11157Y-11082D01*
X11050Y-11037D01*
X10968Y-11037D01*
X11013Y-10992D01*
X11057Y-10885D01*
X11057Y-10770D01*
X11057Y-10657D01*
X11102Y-10687D01*
X11102Y-10735D01*
X11147Y-10842D01*
X11228Y-10923D01*
X11335Y-10967D01*
X11450Y-10967D01*
X12050Y-10967D01*
X12157Y-10923D01*
X12238Y-10842D01*
X12277Y-10747D01*
X12292Y-10747D01*
X12434Y-10719D01*
X12554Y-10639D01*
X12846Y-10347D01*
X13168Y-10347D01*
X13197Y-10417D01*
X13278Y-10498D01*
X13385Y-10542D01*
X13500Y-10542D01*
X13850Y-10542D01*
X13852Y-10541D01*
X13852Y-10560D01*
X13852Y-10655D01*
X13925Y-10727D01*
X14267Y-10727D01*
X14267Y-10520D01*
X14317Y-10470D01*
X14317Y-10542D01*
X14367Y-10542D01*
X14367Y-10727D01*
X14375Y-10727D01*
X14375Y-10827D01*
G54D10*
G36*
X15322Y-4562D02*
X15035Y-4562D01*
X14928Y-4607D01*
X14847Y-4688D01*
X14802Y-4795D01*
X14802Y-4910D01*
X14802Y-5159D01*
X14750Y-5137D01*
X14635Y-5137D01*
X13835Y-5137D01*
X13728Y-5182D01*
X13647Y-5263D01*
X13602Y-5370D01*
X13602Y-5485D01*
X13602Y-6085D01*
X13647Y-6192D01*
X13728Y-6273D01*
X13835Y-6317D01*
X13950Y-6317D01*
X14359Y-6317D01*
X14381Y-6339D01*
X14501Y-6419D01*
X14592Y-6437D01*
X14415Y-6437D01*
X14342Y-6510D01*
X14342Y-6977D01*
X14350Y-6977D01*
X14350Y-7077D01*
X14342Y-7077D01*
X14342Y-7085D01*
X14242Y-7085D01*
X14242Y-7077D01*
X14242Y-6977D01*
X14242Y-6510D01*
X14170Y-6437D01*
X13950Y-6437D01*
X13835Y-6437D01*
X13728Y-6482D01*
X13647Y-6563D01*
X13602Y-6670D01*
X13602Y-6905D01*
X13675Y-6977D01*
X14242Y-6977D01*
X14242Y-7077D01*
X13675Y-7077D01*
X13602Y-7150D01*
X13602Y-7385D01*
X13647Y-7492D01*
X13728Y-7573D01*
X13792Y-7600D01*
X13752Y-7695D01*
X13752Y-7810D01*
X13752Y-7969D01*
X13131Y-8591D01*
X13100Y-8637D01*
X12935Y-8637D01*
X12828Y-8682D01*
X12747Y-8763D01*
X12702Y-8870D01*
X12702Y-8985D01*
X12702Y-9485D01*
X12747Y-9592D01*
X12762Y-9607D01*
X12692Y-9607D01*
X12551Y-9636D01*
X12431Y-9716D01*
X12236Y-9911D01*
X12157Y-9832D01*
X12097Y-9807D01*
X12192Y-9712D01*
X12282Y-9495D01*
X12283Y-9261D01*
X12193Y-9044D01*
X12132Y-8983D01*
X12132Y-7910D01*
X12132Y-7795D01*
X12132Y-7700D01*
X12132Y-7455D01*
X12132Y-7360D01*
X12132Y-7245D01*
X12088Y-7138D01*
X12007Y-7057D01*
X11900Y-7012D01*
X11790Y-7012D01*
X11717Y-7085D01*
X11717Y-7527D01*
X12060Y-7527D01*
X12132Y-7455D01*
X12132Y-7700D01*
X12060Y-7627D01*
X11717Y-7627D01*
X11717Y-8070D01*
X11790Y-8142D01*
X11900Y-8142D01*
X12007Y-8098D01*
X12088Y-8017D01*
X12132Y-7910D01*
X12132Y-8983D01*
X12027Y-8878D01*
X11810Y-8788D01*
X11597Y-8787D01*
X11230Y-8420D01*
X11326Y-8401D01*
X11326Y-8401D01*
X11440Y-8325D01*
X11540Y-8225D01*
X11616Y-8111D01*
X11642Y-7977D01*
X11642Y-6977D01*
X11616Y-6844D01*
X11616Y-6844D01*
X11540Y-6730D01*
X10782Y-5972D01*
X10782Y-5903D01*
X10798Y-5941D01*
X10929Y-6071D01*
X11100Y-6142D01*
X11184Y-6142D01*
X11184Y-6142D01*
X11233Y-6176D01*
X11233Y-6176D01*
X11367Y-6202D01*
X11482Y-6202D01*
X11553Y-6273D01*
X11660Y-6317D01*
X11775Y-6317D01*
X12325Y-6317D01*
X12432Y-6273D01*
X12483Y-6222D01*
X12502Y-6222D01*
X12553Y-6273D01*
X12660Y-6317D01*
X12775Y-6317D01*
X13325Y-6317D01*
X13432Y-6273D01*
X13513Y-6192D01*
X13557Y-6085D01*
X13557Y-5970D01*
X13557Y-5620D01*
X13513Y-5513D01*
X13478Y-5477D01*
X13513Y-5442D01*
X13557Y-5335D01*
X13557Y-5225D01*
X13485Y-5152D01*
X13042Y-5152D01*
X13042Y-5160D01*
X12942Y-5160D01*
X12942Y-5152D01*
X12935Y-5152D01*
X12935Y-5052D01*
X12942Y-5052D01*
X12942Y-5045D01*
X13042Y-5045D01*
X13042Y-5052D01*
X13485Y-5052D01*
X13557Y-4980D01*
X13557Y-4870D01*
X13513Y-4763D01*
X13432Y-4682D01*
X13350Y-4648D01*
X13350Y-4545D01*
X13350Y-4450D01*
X13350Y-4205D01*
X13350Y-4110D01*
X13350Y-3994D01*
X13306Y-3888D01*
X13225Y-3806D01*
X13118Y-3762D01*
X13065Y-3762D01*
X12992Y-3834D01*
X12992Y-4277D01*
X13278Y-4277D01*
X13350Y-4205D01*
X13350Y-4450D01*
X13278Y-4377D01*
X12992Y-4377D01*
X12992Y-4637D01*
X12942Y-4637D01*
X12942Y-4710D01*
X12892Y-4660D01*
X12892Y-4377D01*
X12885Y-4377D01*
X12885Y-4277D01*
X12892Y-4277D01*
X12892Y-3834D01*
X12820Y-3762D01*
X12767Y-3762D01*
X12692Y-3793D01*
X12618Y-3762D01*
X12503Y-3762D01*
X12267Y-3762D01*
X12192Y-3793D01*
X12118Y-3762D01*
X12003Y-3762D01*
X11812Y-3762D01*
X11812Y-2793D01*
X11882Y-2793D01*
X12117Y-2793D01*
X12181Y-2889D01*
X12631Y-3339D01*
X12751Y-3419D01*
X12892Y-3447D01*
X13289Y-3447D01*
X13352Y-3511D01*
X13352Y-4035D01*
X13397Y-4142D01*
X13478Y-4223D01*
X13585Y-4267D01*
X13700Y-4267D01*
X14300Y-4267D01*
X14407Y-4223D01*
X14488Y-4142D01*
X14532Y-4035D01*
X14532Y-3920D01*
X14532Y-3120D01*
X14494Y-3027D01*
X14532Y-2935D01*
X14532Y-2820D01*
X14532Y-2020D01*
X14488Y-1913D01*
X14407Y-1832D01*
X14300Y-1787D01*
X14185Y-1787D01*
X14118Y-1787D01*
X14188Y-1717D01*
X14217Y-1647D01*
X14639Y-1647D01*
X14810Y-1818D01*
X14778Y-1832D01*
X14697Y-1913D01*
X14652Y-2020D01*
X14652Y-2135D01*
X14652Y-2935D01*
X14691Y-3027D01*
X14652Y-3120D01*
X14652Y-3235D01*
X14652Y-4035D01*
X14697Y-4142D01*
X14778Y-4223D01*
X14885Y-4267D01*
X15000Y-4267D01*
X15322Y-4267D01*
X15322Y-4562D01*
X15322Y-4562D01*
G37*
G54D36*
X15322Y-4562D02*
X15035Y-4562D01*
X14928Y-4607D01*
X14847Y-4688D01*
X14802Y-4795D01*
X14802Y-4910D01*
X14802Y-5159D01*
X14750Y-5137D01*
X14635Y-5137D01*
X13835Y-5137D01*
X13728Y-5182D01*
X13647Y-5263D01*
X13602Y-5370D01*
X13602Y-5485D01*
X13602Y-6085D01*
X13647Y-6192D01*
X13728Y-6273D01*
X13835Y-6317D01*
X13950Y-6317D01*
X14359Y-6317D01*
X14381Y-6339D01*
X14501Y-6419D01*
X14592Y-6437D01*
X14415Y-6437D01*
X14342Y-6510D01*
X14342Y-6977D01*
X14350Y-6977D01*
X14350Y-7077D01*
X14342Y-7077D01*
X14342Y-7085D01*
X14242Y-7085D01*
X14242Y-7077D01*
X14242Y-6977D01*
X14242Y-6510D01*
X14170Y-6437D01*
X13950Y-6437D01*
X13835Y-6437D01*
X13728Y-6482D01*
X13647Y-6563D01*
X13602Y-6670D01*
X13602Y-6905D01*
X13675Y-6977D01*
X14242Y-6977D01*
X14242Y-7077D01*
X13675Y-7077D01*
X13602Y-7150D01*
X13602Y-7385D01*
X13647Y-7492D01*
X13728Y-7573D01*
X13792Y-7600D01*
X13752Y-7695D01*
X13752Y-7810D01*
X13752Y-7969D01*
X13131Y-8591D01*
X13100Y-8637D01*
X12935Y-8637D01*
X12828Y-8682D01*
X12747Y-8763D01*
X12702Y-8870D01*
X12702Y-8985D01*
X12702Y-9485D01*
X12747Y-9592D01*
X12762Y-9607D01*
X12692Y-9607D01*
X12551Y-9636D01*
X12431Y-9716D01*
X12236Y-9911D01*
X12157Y-9832D01*
X12097Y-9807D01*
X12192Y-9712D01*
X12282Y-9495D01*
X12283Y-9261D01*
X12193Y-9044D01*
X12132Y-8983D01*
X12132Y-7910D01*
X12132Y-7795D01*
X12132Y-7700D01*
X12132Y-7455D01*
X12132Y-7360D01*
X12132Y-7245D01*
X12088Y-7138D01*
X12007Y-7057D01*
X11900Y-7012D01*
X11790Y-7012D01*
X11717Y-7085D01*
X11717Y-7527D01*
X12060Y-7527D01*
X12132Y-7455D01*
X12132Y-7700D01*
X12060Y-7627D01*
X11717Y-7627D01*
X11717Y-8070D01*
X11790Y-8142D01*
X11900Y-8142D01*
X12007Y-8098D01*
X12088Y-8017D01*
X12132Y-7910D01*
X12132Y-8983D01*
X12027Y-8878D01*
X11810Y-8788D01*
X11597Y-8787D01*
X11230Y-8420D01*
X11326Y-8401D01*
X11326Y-8401D01*
X11440Y-8325D01*
X11540Y-8225D01*
X11616Y-8111D01*
X11642Y-7977D01*
X11642Y-6977D01*
X11616Y-6844D01*
X11616Y-6844D01*
X11540Y-6730D01*
X10782Y-5972D01*
X10782Y-5903D01*
X10798Y-5941D01*
X10929Y-6071D01*
X11100Y-6142D01*
X11184Y-6142D01*
X11184Y-6142D01*
X11233Y-6176D01*
X11233Y-6176D01*
X11367Y-6202D01*
X11482Y-6202D01*
X11553Y-6273D01*
X11660Y-6317D01*
X11775Y-6317D01*
X12325Y-6317D01*
X12432Y-6273D01*
X12483Y-6222D01*
X12502Y-6222D01*
X12553Y-6273D01*
X12660Y-6317D01*
X12775Y-6317D01*
X13325Y-6317D01*
X13432Y-6273D01*
X13513Y-6192D01*
X13557Y-6085D01*
X13557Y-5970D01*
X13557Y-5620D01*
X13513Y-5513D01*
X13478Y-5477D01*
X13513Y-5442D01*
X13557Y-5335D01*
X13557Y-5225D01*
X13485Y-5152D01*
X13042Y-5152D01*
X13042Y-5160D01*
X12942Y-5160D01*
X12942Y-5152D01*
X12935Y-5152D01*
X12935Y-5052D01*
X12942Y-5052D01*
X12942Y-5045D01*
X13042Y-5045D01*
X13042Y-5052D01*
X13485Y-5052D01*
X13557Y-4980D01*
X13557Y-4870D01*
X13513Y-4763D01*
X13432Y-4682D01*
X13350Y-4648D01*
X13350Y-4545D01*
X13350Y-4450D01*
X13350Y-4205D01*
X13350Y-4110D01*
X13350Y-3994D01*
X13306Y-3888D01*
X13225Y-3806D01*
X13118Y-3762D01*
X13065Y-3762D01*
X12992Y-3834D01*
X12992Y-4277D01*
X13278Y-4277D01*
X13350Y-4205D01*
X13350Y-4450D01*
X13278Y-4377D01*
X12992Y-4377D01*
X12992Y-4637D01*
X12942Y-4637D01*
X12942Y-4710D01*
X12892Y-4660D01*
X12892Y-4377D01*
X12885Y-4377D01*
X12885Y-4277D01*
X12892Y-4277D01*
X12892Y-3834D01*
X12820Y-3762D01*
X12767Y-3762D01*
X12692Y-3793D01*
X12618Y-3762D01*
X12503Y-3762D01*
X12267Y-3762D01*
X12192Y-3793D01*
X12118Y-3762D01*
X12003Y-3762D01*
X11812Y-3762D01*
X11812Y-2793D01*
X11882Y-2793D01*
X12117Y-2793D01*
X12181Y-2889D01*
X12631Y-3339D01*
X12751Y-3419D01*
X12892Y-3447D01*
X13289Y-3447D01*
X13352Y-3511D01*
X13352Y-4035D01*
X13397Y-4142D01*
X13478Y-4223D01*
X13585Y-4267D01*
X13700Y-4267D01*
X14300Y-4267D01*
X14407Y-4223D01*
X14488Y-4142D01*
X14532Y-4035D01*
X14532Y-3920D01*
X14532Y-3120D01*
X14494Y-3027D01*
X14532Y-2935D01*
X14532Y-2820D01*
X14532Y-2020D01*
X14488Y-1913D01*
X14407Y-1832D01*
X14300Y-1787D01*
X14185Y-1787D01*
X14118Y-1787D01*
X14188Y-1717D01*
X14217Y-1647D01*
X14639Y-1647D01*
X14810Y-1818D01*
X14778Y-1832D01*
X14697Y-1913D01*
X14652Y-2020D01*
X14652Y-2135D01*
X14652Y-2935D01*
X14691Y-3027D01*
X14652Y-3120D01*
X14652Y-3235D01*
X14652Y-4035D01*
X14697Y-4142D01*
X14778Y-4223D01*
X14885Y-4267D01*
X15000Y-4267D01*
X15322Y-4267D01*
X15322Y-4562D01*
G54D10*
G36*
X19365Y-7979D02*
X19205Y-7913D01*
X18981Y-7912D01*
X18773Y-7998D01*
X18663Y-8107D01*
X16582Y-8107D01*
X16582Y-7360D01*
X16582Y-7100D01*
X16510Y-7027D01*
X15742Y-7027D01*
X15742Y-7520D01*
X15815Y-7592D01*
X16235Y-7592D01*
X16350Y-7592D01*
X16457Y-7548D01*
X16538Y-7467D01*
X16582Y-7360D01*
X16582Y-8107D01*
X16521Y-8107D01*
X16413Y-7999D01*
X16205Y-7913D01*
X16051Y-7912D01*
X15904Y-7766D01*
X15784Y-7686D01*
X15642Y-7657D01*
X15417Y-7657D01*
X15390Y-7592D01*
X15570Y-7592D01*
X15642Y-7520D01*
X15642Y-7027D01*
X14982Y-7027D01*
X14982Y-6977D01*
X14910Y-6977D01*
X14960Y-6927D01*
X15642Y-6927D01*
X15642Y-6920D01*
X15742Y-6920D01*
X15742Y-6927D01*
X16510Y-6927D01*
X16582Y-6855D01*
X16582Y-6595D01*
X16538Y-6488D01*
X16498Y-6447D01*
X16702Y-6447D01*
X16702Y-7335D01*
X16747Y-7442D01*
X16828Y-7523D01*
X16935Y-7567D01*
X17050Y-7567D01*
X19365Y-7567D01*
X19365Y-7979D01*
X19365Y-7979D01*
G37*
G54D36*
X19365Y-7979D02*
X19205Y-7913D01*
X18981Y-7912D01*
X18773Y-7998D01*
X18663Y-8107D01*
X16582Y-8107D01*
X16582Y-7360D01*
X16582Y-7100D01*
X16510Y-7027D01*
X15742Y-7027D01*
X15742Y-7520D01*
X15815Y-7592D01*
X16235Y-7592D01*
X16350Y-7592D01*
X16457Y-7548D01*
X16538Y-7467D01*
X16582Y-7360D01*
X16582Y-8107D01*
X16521Y-8107D01*
X16413Y-7999D01*
X16205Y-7913D01*
X16051Y-7912D01*
X15904Y-7766D01*
X15784Y-7686D01*
X15642Y-7657D01*
X15417Y-7657D01*
X15390Y-7592D01*
X15570Y-7592D01*
X15642Y-7520D01*
X15642Y-7027D01*
X14982Y-7027D01*
X14982Y-6977D01*
X14910Y-6977D01*
X14960Y-6927D01*
X15642Y-6927D01*
X15642Y-6920D01*
X15742Y-6920D01*
X15742Y-6927D01*
X16510Y-6927D01*
X16582Y-6855D01*
X16582Y-6595D01*
X16538Y-6488D01*
X16498Y-6447D01*
X16702Y-6447D01*
X16702Y-7335D01*
X16747Y-7442D01*
X16828Y-7523D01*
X16935Y-7567D01*
X17050Y-7567D01*
X19365Y-7567D01*
X19365Y-7979D01*
G54D10*
G36*
X19365Y-9979D02*
X19205Y-9913D01*
X18981Y-9912D01*
X18773Y-9998D01*
X18663Y-10107D01*
X16521Y-10107D01*
X16413Y-9999D01*
X16205Y-9913D01*
X15981Y-9912D01*
X15773Y-9998D01*
X15663Y-10107D01*
X15367Y-10107D01*
X15226Y-10136D01*
X15111Y-10212D01*
X14835Y-10212D01*
X14832Y-10213D01*
X14832Y-10195D01*
X14832Y-10100D01*
X14760Y-10027D01*
X14417Y-10027D01*
X14417Y-10035D01*
X14317Y-10035D01*
X14317Y-10027D01*
X14310Y-10027D01*
X14310Y-9927D01*
X14317Y-9927D01*
X14317Y-9920D01*
X14417Y-9920D01*
X14417Y-9927D01*
X14760Y-9927D01*
X14832Y-9855D01*
X14832Y-9760D01*
X14832Y-9717D01*
X15050Y-9717D01*
X15157Y-9673D01*
X15238Y-9592D01*
X15282Y-9485D01*
X15282Y-9370D01*
X15282Y-9300D01*
X15282Y-9055D01*
X15282Y-8985D01*
X15282Y-8870D01*
X15238Y-8763D01*
X15157Y-8682D01*
X15050Y-8637D01*
X14715Y-8637D01*
X14642Y-8710D01*
X14642Y-9127D01*
X15210Y-9127D01*
X15282Y-9055D01*
X15282Y-9300D01*
X15210Y-9227D01*
X14642Y-9227D01*
X14642Y-9235D01*
X14542Y-9235D01*
X14542Y-9227D01*
X14535Y-9227D01*
X14535Y-9127D01*
X14542Y-9127D01*
X14542Y-8710D01*
X14470Y-8637D01*
X14135Y-8637D01*
X14128Y-8640D01*
X14176Y-8592D01*
X14450Y-8592D01*
X14557Y-8548D01*
X14592Y-8513D01*
X14628Y-8548D01*
X14735Y-8592D01*
X14850Y-8592D01*
X15200Y-8592D01*
X15307Y-8548D01*
X15388Y-8467D01*
X15417Y-8397D01*
X15489Y-8397D01*
X15527Y-8436D01*
X15527Y-8589D01*
X15613Y-8797D01*
X15772Y-8956D01*
X15980Y-9042D01*
X16204Y-9043D01*
X16412Y-8957D01*
X16521Y-8847D01*
X18663Y-8847D01*
X18772Y-8956D01*
X18980Y-9042D01*
X19204Y-9043D01*
X19365Y-8976D01*
X19365Y-9979D01*
X19365Y-9979D01*
G37*
G54D36*
X19365Y-9979D02*
X19205Y-9913D01*
X18981Y-9912D01*
X18773Y-9998D01*
X18663Y-10107D01*
X16521Y-10107D01*
X16413Y-9999D01*
X16205Y-9913D01*
X15981Y-9912D01*
X15773Y-9998D01*
X15663Y-10107D01*
X15367Y-10107D01*
X15226Y-10136D01*
X15111Y-10212D01*
X14835Y-10212D01*
X14832Y-10213D01*
X14832Y-10195D01*
X14832Y-10100D01*
X14760Y-10027D01*
X14417Y-10027D01*
X14417Y-10035D01*
X14317Y-10035D01*
X14317Y-10027D01*
X14310Y-10027D01*
X14310Y-9927D01*
X14317Y-9927D01*
X14317Y-9920D01*
X14417Y-9920D01*
X14417Y-9927D01*
X14760Y-9927D01*
X14832Y-9855D01*
X14832Y-9760D01*
X14832Y-9717D01*
X15050Y-9717D01*
X15157Y-9673D01*
X15238Y-9592D01*
X15282Y-9485D01*
X15282Y-9370D01*
X15282Y-9300D01*
X15282Y-9055D01*
X15282Y-8985D01*
X15282Y-8870D01*
X15238Y-8763D01*
X15157Y-8682D01*
X15050Y-8637D01*
X14715Y-8637D01*
X14642Y-8710D01*
X14642Y-9127D01*
X15210Y-9127D01*
X15282Y-9055D01*
X15282Y-9300D01*
X15210Y-9227D01*
X14642Y-9227D01*
X14642Y-9235D01*
X14542Y-9235D01*
X14542Y-9227D01*
X14535Y-9227D01*
X14535Y-9127D01*
X14542Y-9127D01*
X14542Y-8710D01*
X14470Y-8637D01*
X14135Y-8637D01*
X14128Y-8640D01*
X14176Y-8592D01*
X14450Y-8592D01*
X14557Y-8548D01*
X14592Y-8513D01*
X14628Y-8548D01*
X14735Y-8592D01*
X14850Y-8592D01*
X15200Y-8592D01*
X15307Y-8548D01*
X15388Y-8467D01*
X15417Y-8397D01*
X15489Y-8397D01*
X15527Y-8436D01*
X15527Y-8589D01*
X15613Y-8797D01*
X15772Y-8956D01*
X15980Y-9042D01*
X16204Y-9043D01*
X16412Y-8957D01*
X16521Y-8847D01*
X18663Y-8847D01*
X18772Y-8956D01*
X18980Y-9042D01*
X19204Y-9043D01*
X19365Y-8976D01*
X19365Y-9979D01*
M02*
