G04 (created by PCBNEW (2013-mar-13)-testing) date czw, 7 sie 2014, 20:04:09*
%MOIN*%
G04 Gerber Fmt 3.4, Leading zero omitted, Abs format*
%FSLAX34Y34*%
G01*
G70*
G90*
G04 APERTURE LIST*
%ADD10C,0.005000*%
%ADD11C,0.005906*%
%ADD12C,0.007874*%
%ADD13C,0.011811*%
G04 APERTURE END LIST*
G54D10*
G54D11*
X19685Y-19685D02*
X0Y-19685D01*
X19685Y0D02*
X19685Y-19685D01*
X0Y0D02*
X19685Y0D01*
X0Y-19685D02*
X0Y0D01*
G54D12*
X1650Y-9534D02*
X2004Y-9888D01*
X2004Y-9534D02*
X1650Y-9888D01*
X1650Y-11266D02*
X2004Y-11620D01*
X2004Y-11266D02*
X1650Y-11620D01*
G54D13*
X1039Y-21548D02*
X1039Y-20366D01*
X1320Y-20366D01*
X1489Y-20423D01*
X1601Y-20535D01*
X1657Y-20648D01*
X1714Y-20873D01*
X1714Y-21041D01*
X1657Y-21266D01*
X1601Y-21379D01*
X1489Y-21491D01*
X1320Y-21548D01*
X1039Y-21548D01*
X2220Y-21548D02*
X2220Y-20760D01*
X2220Y-20985D02*
X2276Y-20873D01*
X2332Y-20816D01*
X2445Y-20760D01*
X2557Y-20760D01*
X2951Y-21548D02*
X2951Y-20760D01*
X2951Y-20366D02*
X2895Y-20423D01*
X2951Y-20479D01*
X3007Y-20423D01*
X2951Y-20366D01*
X2951Y-20479D01*
X3682Y-21548D02*
X3570Y-21491D01*
X3513Y-21379D01*
X3513Y-20366D01*
X4301Y-21548D02*
X4188Y-21491D01*
X4132Y-21379D01*
X4132Y-20366D01*
X5651Y-21548D02*
X5651Y-20366D01*
X6044Y-21210D01*
X6438Y-20366D01*
X6438Y-21548D01*
X7507Y-21548D02*
X7507Y-20929D01*
X7450Y-20816D01*
X7338Y-20760D01*
X7113Y-20760D01*
X7000Y-20816D01*
X7507Y-21491D02*
X7394Y-21548D01*
X7113Y-21548D01*
X7000Y-21491D01*
X6944Y-21379D01*
X6944Y-21266D01*
X7000Y-21154D01*
X7113Y-21098D01*
X7394Y-21098D01*
X7507Y-21041D01*
X8069Y-20760D02*
X8069Y-21941D01*
X8069Y-20816D02*
X8181Y-20760D01*
X8406Y-20760D01*
X8519Y-20816D01*
X8575Y-20873D01*
X8631Y-20985D01*
X8631Y-21323D01*
X8575Y-21435D01*
X8519Y-21491D01*
X8406Y-21548D01*
X8181Y-21548D01*
X8069Y-21491D01*
X9138Y-21435D02*
X9194Y-21491D01*
X9138Y-21548D01*
X9081Y-21491D01*
X9138Y-21435D01*
X9138Y-21548D01*
X9138Y-20816D02*
X9194Y-20873D01*
X9138Y-20929D01*
X9081Y-20873D01*
X9138Y-20816D01*
X9138Y-20929D01*
X-383Y-23317D02*
X-29Y-23671D01*
X-29Y-23317D02*
X-383Y-23671D01*
X1264Y-22847D02*
X1376Y-22847D01*
X1489Y-22903D01*
X1545Y-22959D01*
X1601Y-23072D01*
X1657Y-23297D01*
X1657Y-23578D01*
X1601Y-23803D01*
X1545Y-23915D01*
X1489Y-23972D01*
X1376Y-24028D01*
X1264Y-24028D01*
X1151Y-23972D01*
X1095Y-23915D01*
X1039Y-23803D01*
X982Y-23578D01*
X982Y-23297D01*
X1039Y-23072D01*
X1095Y-22959D01*
X1151Y-22903D01*
X1264Y-22847D01*
X2163Y-23915D02*
X2220Y-23972D01*
X2163Y-24028D01*
X2107Y-23972D01*
X2163Y-23915D01*
X2163Y-24028D01*
X2782Y-24028D02*
X3007Y-24028D01*
X3120Y-23972D01*
X3176Y-23915D01*
X3288Y-23747D01*
X3345Y-23522D01*
X3345Y-23072D01*
X3288Y-22959D01*
X3232Y-22903D01*
X3120Y-22847D01*
X2895Y-22847D01*
X2782Y-22903D01*
X2726Y-22959D01*
X2670Y-23072D01*
X2670Y-23353D01*
X2726Y-23465D01*
X2782Y-23522D01*
X2895Y-23578D01*
X3120Y-23578D01*
X3232Y-23522D01*
X3288Y-23465D01*
X3345Y-23353D01*
X4076Y-22847D02*
X4188Y-22847D01*
X4301Y-22903D01*
X4357Y-22959D01*
X4413Y-23072D01*
X4469Y-23297D01*
X4469Y-23578D01*
X4413Y-23803D01*
X4357Y-23915D01*
X4301Y-23972D01*
X4188Y-24028D01*
X4076Y-24028D01*
X3963Y-23972D01*
X3907Y-23915D01*
X3851Y-23803D01*
X3794Y-23578D01*
X3794Y-23297D01*
X3851Y-23072D01*
X3907Y-22959D01*
X3963Y-22903D01*
X4076Y-22847D01*
X4976Y-24028D02*
X4976Y-23241D01*
X4976Y-23353D02*
X5032Y-23297D01*
X5144Y-23241D01*
X5313Y-23241D01*
X5426Y-23297D01*
X5482Y-23409D01*
X5482Y-24028D01*
X5482Y-23409D02*
X5538Y-23297D01*
X5651Y-23241D01*
X5819Y-23241D01*
X5932Y-23297D01*
X5988Y-23409D01*
X5988Y-24028D01*
X6550Y-24028D02*
X6550Y-23241D01*
X6550Y-23353D02*
X6607Y-23297D01*
X6719Y-23241D01*
X6888Y-23241D01*
X7000Y-23297D01*
X7057Y-23409D01*
X7057Y-24028D01*
X7057Y-23409D02*
X7113Y-23297D01*
X7225Y-23241D01*
X7394Y-23241D01*
X7507Y-23297D01*
X7563Y-23409D01*
X7563Y-24028D01*
X9869Y-22791D02*
X8856Y-24309D01*
X11387Y-22847D02*
X11500Y-22847D01*
X11612Y-22903D01*
X11669Y-22959D01*
X11725Y-23072D01*
X11781Y-23297D01*
X11781Y-23578D01*
X11725Y-23803D01*
X11669Y-23915D01*
X11612Y-23972D01*
X11500Y-24028D01*
X11387Y-24028D01*
X11275Y-23972D01*
X11219Y-23915D01*
X11162Y-23803D01*
X11106Y-23578D01*
X11106Y-23297D01*
X11162Y-23072D01*
X11219Y-22959D01*
X11275Y-22903D01*
X11387Y-22847D01*
X12287Y-23915D02*
X12343Y-23972D01*
X12287Y-24028D01*
X12231Y-23972D01*
X12287Y-23915D01*
X12287Y-24028D01*
X13075Y-22847D02*
X13187Y-22847D01*
X13300Y-22903D01*
X13356Y-22959D01*
X13412Y-23072D01*
X13468Y-23297D01*
X13468Y-23578D01*
X13412Y-23803D01*
X13356Y-23915D01*
X13300Y-23972D01*
X13187Y-24028D01*
X13075Y-24028D01*
X12962Y-23972D01*
X12906Y-23915D01*
X12850Y-23803D01*
X12793Y-23578D01*
X12793Y-23297D01*
X12850Y-23072D01*
X12906Y-22959D01*
X12962Y-22903D01*
X13075Y-22847D01*
X13862Y-22847D02*
X14593Y-22847D01*
X14199Y-23297D01*
X14368Y-23297D01*
X14481Y-23353D01*
X14537Y-23409D01*
X14593Y-23522D01*
X14593Y-23803D01*
X14537Y-23915D01*
X14481Y-23972D01*
X14368Y-24028D01*
X14031Y-24028D01*
X13918Y-23972D01*
X13862Y-23915D01*
X15662Y-22847D02*
X15099Y-22847D01*
X15043Y-23409D01*
X15099Y-23353D01*
X15212Y-23297D01*
X15493Y-23297D01*
X15606Y-23353D01*
X15662Y-23409D01*
X15718Y-23522D01*
X15718Y-23803D01*
X15662Y-23915D01*
X15606Y-23972D01*
X15493Y-24028D01*
X15212Y-24028D01*
X15099Y-23972D01*
X15043Y-23915D01*
X16168Y-22847D02*
X16168Y-23072D01*
X16618Y-22847D02*
X16618Y-23072D01*
X18361Y-24478D02*
X18305Y-24422D01*
X18193Y-24253D01*
X18136Y-24140D01*
X18080Y-23972D01*
X18024Y-23690D01*
X18024Y-23465D01*
X18080Y-23184D01*
X18136Y-23016D01*
X18193Y-22903D01*
X18305Y-22734D01*
X18361Y-22678D01*
X18755Y-22959D02*
X18811Y-22903D01*
X18924Y-22847D01*
X19205Y-22847D01*
X19318Y-22903D01*
X19374Y-22959D01*
X19430Y-23072D01*
X19430Y-23184D01*
X19374Y-23353D01*
X18699Y-24028D01*
X19430Y-24028D01*
X20836Y-24028D02*
X20836Y-22847D01*
X21342Y-24028D02*
X21342Y-23409D01*
X21286Y-23297D01*
X21174Y-23241D01*
X21005Y-23241D01*
X20892Y-23297D01*
X20836Y-23353D01*
X22073Y-24028D02*
X21961Y-23972D01*
X21905Y-23915D01*
X21848Y-23803D01*
X21848Y-23465D01*
X21905Y-23353D01*
X21961Y-23297D01*
X22073Y-23241D01*
X22242Y-23241D01*
X22355Y-23297D01*
X22411Y-23353D01*
X22467Y-23465D01*
X22467Y-23803D01*
X22411Y-23915D01*
X22355Y-23972D01*
X22242Y-24028D01*
X22073Y-24028D01*
X23142Y-24028D02*
X23030Y-23972D01*
X22973Y-23859D01*
X22973Y-22847D01*
X24042Y-23972D02*
X23929Y-24028D01*
X23705Y-24028D01*
X23592Y-23972D01*
X23536Y-23859D01*
X23536Y-23409D01*
X23592Y-23297D01*
X23705Y-23241D01*
X23929Y-23241D01*
X24042Y-23297D01*
X24098Y-23409D01*
X24098Y-23522D01*
X23536Y-23634D01*
X24548Y-23972D02*
X24661Y-24028D01*
X24886Y-24028D01*
X24998Y-23972D01*
X25054Y-23859D01*
X25054Y-23803D01*
X24998Y-23690D01*
X24886Y-23634D01*
X24717Y-23634D01*
X24604Y-23578D01*
X24548Y-23465D01*
X24548Y-23409D01*
X24604Y-23297D01*
X24717Y-23241D01*
X24886Y-23241D01*
X24998Y-23297D01*
X25448Y-24478D02*
X25504Y-24422D01*
X25617Y-24253D01*
X25673Y-24140D01*
X25729Y-23972D01*
X25785Y-23690D01*
X25785Y-23465D01*
X25729Y-23184D01*
X25673Y-23016D01*
X25617Y-22903D01*
X25504Y-22734D01*
X25448Y-22678D01*
M02*
