M48
;DRILL file {Pcbnew (2013-mar-13)-testing} date czw, 7 sie 2014, 20:04:09
;FORMAT={-:-/ absolute / metric / decimal}
FMAT,2
METRIC,TZ
T1C0.635
T2C0.800
T3C0.813
T4C1.016
T5C1.321
%
G90
G05
M71
T1
X8.745Y-21.661
X18.651Y-27.376
X18.905Y-31.567
X19.921Y-26.233
X21.191Y-25.852
X21.445Y-37.536
X22.08Y-27.63
X26.017Y-38.679
X26.779Y-17.724
X27.16Y-44.902
X28.43Y-14.422
X33.002Y-16.962
T2
X9.888Y-13.025
X21.953Y-47.95
T3
X1.506Y-4.262
X1.506Y-16.962
X4.046Y-4.262
X4.046Y-16.962
X6.586Y-4.262
X6.586Y-16.962
X9.126Y-4.262
X9.126Y-16.962
X11.666Y-4.262
X11.666Y-16.962
X14.206Y-4.262
X14.206Y-16.962
X16.746Y-4.262
X16.746Y-16.962
X19.286Y-4.262
X19.286Y-16.962
X29.7Y-40.584
X29.7Y-48.204
X30.97Y-30.424
X30.97Y-38.044
X32.24Y-40.584
X32.24Y-48.204
X34.78Y-40.584
X34.78Y-48.204
X40.876Y-21.534
X40.876Y-26.614
X48.496Y-21.534
X48.496Y-26.614
T4
X6.586Y-1.468
X9.126Y-1.468
X11.666Y-1.468
X14.206Y-1.468
X25.89Y-4.77
X25.89Y-7.31
X25.89Y-9.85
X25.89Y-12.39
X25.89Y-14.93
X29.7Y-23.82
X29.7Y-26.36
X34.78Y-31.694
X34.78Y-34.234
X34.78Y-36.774
T5
X43.67Y-2.763
X43.67Y-7.767
X43.67Y-31.465
X43.67Y-36.469
X43.67Y-42.387
X43.67Y-47.391
T4
X4.046Y-44.902G85X4.046Y-46.426
G05
X5.57Y-40.584G85X7.094Y-40.584
G05
X10.142Y-44.902G85X10.142Y-46.426
G05
T0
M30
