G04 (created by PCBNEW (2013-mar-13)-testing) date czw, 7 sie 2014, 20:04:06*
%MOIN*%
G04 Gerber Fmt 3.4, Leading zero omitted, Abs format*
%FSLAX34Y34*%
G01*
G70*
G90*
G04 APERTURE LIST*
%ADD10C,0.005906*%
%ADD11R,0.035000X0.055000*%
%ADD12R,0.157500X0.094500*%
%ADD13R,0.060000X0.060000*%
%ADD14C,0.060000*%
%ADD15O,0.156000X0.078000*%
%ADD16C,0.189000*%
%ADD17R,0.189000X0.189000*%
%ADD18R,0.055000X0.035000*%
%ADD19C,0.055000*%
%ADD20C,0.070000*%
%ADD21R,0.070000X0.070000*%
%ADD22R,0.055000X0.055000*%
%ADD23C,0.035000*%
%ADD24C,0.039370*%
%ADD25C,0.012000*%
%ADD26C,0.016000*%
%ADD27C,0.032000*%
%ADD28C,0.064000*%
%ADD29C,0.010000*%
G04 APERTURE END LIST*
G54D10*
G54D11*
X13667Y-9077D03*
X12917Y-9077D03*
G54D12*
X9267Y-16777D03*
X6117Y-16777D03*
X5767Y-4177D03*
X2617Y-4177D03*
X14967Y-6577D03*
X11817Y-6577D03*
G54D13*
X5592Y-577D03*
G54D14*
X4592Y-577D03*
X3592Y-577D03*
X2592Y-577D03*
G54D15*
X17192Y-16687D03*
X17192Y-18657D03*
G54D16*
X1592Y-17977D03*
G54D17*
X3992Y-17977D03*
G54D16*
X2492Y-15977D03*
G54D15*
X17192Y-1087D03*
X17192Y-3057D03*
X17192Y-12387D03*
X17192Y-14357D03*
G54D13*
X11692Y-10377D03*
G54D14*
X11692Y-9377D03*
G54D13*
X10192Y-5877D03*
G54D14*
X10192Y-4877D03*
X10192Y-3877D03*
X10192Y-2877D03*
X10192Y-1877D03*
G54D18*
X592Y-8352D03*
X592Y-7602D03*
X1592Y-8352D03*
X1592Y-7602D03*
X7592Y-5102D03*
X7592Y-5852D03*
G54D19*
X12192Y-14977D03*
X12192Y-11977D03*
X19092Y-10477D03*
X19092Y-8477D03*
X16092Y-10477D03*
X16092Y-8477D03*
G54D20*
X13692Y-12477D03*
X13692Y-13477D03*
G54D21*
X13692Y-14477D03*
G54D13*
X592Y-1677D03*
G54D14*
X1592Y-1677D03*
X2592Y-1677D03*
X3592Y-1677D03*
X4592Y-1677D03*
X5592Y-1677D03*
G54D13*
X6592Y-1677D03*
G54D14*
X7592Y-1677D03*
X7592Y-6677D03*
X6592Y-6677D03*
X5592Y-6677D03*
X4592Y-6677D03*
X3592Y-6677D03*
X2592Y-6677D03*
X1592Y-6677D03*
X592Y-6677D03*
G54D22*
X11692Y-18977D03*
G54D19*
X12692Y-18977D03*
X13692Y-18977D03*
X13692Y-15977D03*
X12692Y-15977D03*
X11692Y-15977D03*
G54D23*
X10242Y-15227D03*
X10692Y-17677D03*
X11192Y-5677D03*
X7342Y-10777D03*
X10542Y-6977D03*
X12992Y-6677D03*
X3442Y-8527D03*
X8692Y-10877D03*
X7842Y-10327D03*
X7442Y-12427D03*
G54D24*
X3892Y-5127D03*
G54D23*
X8342Y-10177D03*
X8442Y-14777D03*
G54D24*
X8642Y-18877D03*
G54D25*
X10517Y-15502D02*
X10242Y-15227D01*
X10642Y-15927D02*
X10642Y-15627D01*
X10692Y-17677D02*
X10642Y-17627D01*
X10642Y-17627D02*
X10642Y-15927D01*
X10642Y-15627D02*
X10517Y-15502D01*
X10517Y-15502D02*
X10492Y-15477D01*
X592Y-7602D02*
X592Y-6677D01*
X7592Y-5852D02*
X7592Y-6677D01*
X10992Y-5677D02*
X11192Y-5677D01*
X10742Y-5927D02*
X10992Y-5677D01*
X10742Y-6277D02*
X10742Y-5927D01*
X10392Y-6627D02*
X10742Y-6277D01*
X9992Y-6627D02*
X10392Y-6627D01*
X9142Y-7477D02*
X9992Y-6627D01*
X9142Y-10977D02*
X9142Y-7477D01*
X8842Y-11277D02*
X9142Y-10977D01*
X8392Y-11277D02*
X8842Y-11277D01*
X7942Y-10827D02*
X8392Y-11277D01*
X7392Y-10827D02*
X7942Y-10827D01*
X7342Y-10777D02*
X7392Y-10827D01*
X16092Y-8977D02*
X16092Y-8477D01*
X15242Y-9827D02*
X16092Y-8977D01*
X12792Y-9827D02*
X15242Y-9827D01*
X12392Y-9427D02*
X12792Y-9827D01*
X12392Y-8827D02*
X12392Y-9427D01*
X10542Y-6977D02*
X12392Y-8827D01*
X1592Y-7602D02*
X1592Y-6677D01*
G54D26*
X11817Y-6577D02*
X11817Y-2002D01*
X6592Y-1227D02*
X6592Y-1677D01*
X6892Y-927D02*
X6592Y-1227D01*
X10742Y-927D02*
X6892Y-927D01*
X11817Y-2002D02*
X10742Y-927D01*
X12892Y-6577D02*
X11817Y-6577D01*
X12992Y-6677D02*
X12892Y-6577D01*
G54D27*
X2617Y-4177D02*
X2942Y-4177D01*
X2942Y-4177D02*
X4542Y-2577D01*
X4542Y-2577D02*
X6292Y-2577D01*
X6292Y-2577D02*
X6592Y-2277D01*
X6592Y-2277D02*
X6592Y-1677D01*
G54D25*
X2092Y-4702D02*
X2617Y-4177D01*
X2092Y-7177D02*
X2092Y-4702D01*
X3442Y-8527D02*
X2092Y-7177D01*
G54D27*
X12917Y-9077D02*
X12917Y-7677D01*
X12917Y-7677D02*
X11817Y-6577D01*
G54D28*
X2617Y-4177D02*
X2142Y-4177D01*
X2142Y-4177D02*
X592Y-2627D01*
X592Y-2627D02*
X592Y-1677D01*
X6117Y-16777D02*
X3817Y-14477D01*
X892Y-17277D02*
X1592Y-17977D01*
X892Y-15377D02*
X892Y-17277D01*
X1792Y-14477D02*
X892Y-15377D01*
X3817Y-14477D02*
X1792Y-14477D01*
G54D25*
X8217Y-5102D02*
X7592Y-5102D01*
X8692Y-5577D02*
X8217Y-5102D01*
X8692Y-10877D02*
X8692Y-5577D01*
X5642Y-10877D02*
X6542Y-10877D01*
X7092Y-10327D02*
X7842Y-10327D01*
X6542Y-10877D02*
X7092Y-10327D01*
X3530Y-10290D02*
X4117Y-10877D01*
X4117Y-10877D02*
X4492Y-10877D01*
X5642Y-10877D02*
X4492Y-10877D01*
X3530Y-10290D02*
X1592Y-8352D01*
X592Y-8352D02*
X592Y-12177D01*
X7292Y-12577D02*
X7442Y-12427D01*
X992Y-12577D02*
X7292Y-12577D01*
X592Y-12177D02*
X992Y-12577D01*
X2592Y-6677D02*
X3592Y-6677D01*
G54D28*
X11517Y-11302D02*
X11917Y-11302D01*
X16242Y-6577D02*
X14967Y-6577D01*
X17092Y-7427D02*
X16242Y-6577D01*
X17092Y-10827D02*
X17092Y-7427D01*
X16692Y-11227D02*
X17092Y-10827D01*
X15692Y-11227D02*
X16692Y-11227D01*
X15592Y-11127D02*
X15692Y-11227D01*
X12092Y-11127D02*
X15592Y-11127D01*
X11917Y-11302D02*
X12092Y-11127D01*
X8417Y-15452D02*
X9017Y-15452D01*
X11142Y-11677D02*
X11517Y-11302D01*
X11517Y-11302D02*
X11542Y-11277D01*
X11142Y-13327D02*
X11142Y-11677D01*
X9017Y-15452D02*
X11142Y-13327D01*
X3992Y-17977D02*
X7092Y-17977D01*
X7742Y-16127D02*
X8417Y-15452D01*
X8417Y-15452D02*
X8442Y-15427D01*
X7742Y-17327D02*
X7742Y-16127D01*
X7092Y-17977D02*
X7742Y-17327D01*
X14967Y-6577D02*
X14967Y-2302D01*
X14967Y-2302D02*
X16182Y-1087D01*
X16182Y-1087D02*
X17192Y-1087D01*
G54D27*
X13667Y-9077D02*
X13667Y-7877D01*
X13667Y-7877D02*
X14967Y-6577D01*
G54D28*
X5767Y-4177D02*
X6092Y-4177D01*
X7592Y-2677D02*
X7592Y-1677D01*
X6092Y-4177D02*
X7592Y-2677D01*
G54D26*
X4092Y-5327D02*
X3892Y-5127D01*
X4092Y-7177D02*
X4092Y-5327D01*
X4392Y-7477D02*
X4092Y-7177D01*
X5642Y-7477D02*
X4392Y-7477D01*
X8342Y-10177D02*
X5642Y-7477D01*
X11442Y-10377D02*
X11692Y-10377D01*
X10292Y-11527D02*
X11442Y-10377D01*
X10292Y-12927D02*
X10292Y-11527D01*
X8442Y-14777D02*
X10292Y-12927D01*
G54D28*
X9267Y-16777D02*
X8642Y-17402D01*
X8642Y-17402D02*
X8642Y-18877D01*
G54D10*
G36*
X7577Y-9935D02*
X7535Y-9977D01*
X7092Y-9977D01*
X6958Y-10004D01*
X6845Y-10080D01*
X6397Y-10527D01*
X5642Y-10527D01*
X4492Y-10527D01*
X4262Y-10527D01*
X3777Y-10042D01*
X2157Y-8422D01*
X2157Y-8120D01*
X2113Y-8013D01*
X2078Y-7977D01*
X2113Y-7942D01*
X2157Y-7835D01*
X2157Y-7720D01*
X2157Y-7370D01*
X2113Y-7263D01*
X2032Y-7182D01*
X1955Y-7150D01*
X2092Y-7012D01*
X2092Y-7012D01*
X2258Y-7177D01*
X2475Y-7267D01*
X2709Y-7268D01*
X2926Y-7178D01*
X3077Y-7027D01*
X3108Y-7027D01*
X3258Y-7177D01*
X3475Y-7267D01*
X3709Y-7268D01*
X3738Y-7256D01*
X3751Y-7319D01*
X3831Y-7439D01*
X4131Y-7739D01*
X4251Y-7819D01*
X4392Y-7847D01*
X5489Y-7847D01*
X7577Y-9935D01*
X7577Y-9935D01*
G37*
G54D29*
X7577Y-9935D02*
X7535Y-9977D01*
X7092Y-9977D01*
X6958Y-10004D01*
X6845Y-10080D01*
X6397Y-10527D01*
X5642Y-10527D01*
X4492Y-10527D01*
X4262Y-10527D01*
X3777Y-10042D01*
X2157Y-8422D01*
X2157Y-8120D01*
X2113Y-8013D01*
X2078Y-7977D01*
X2113Y-7942D01*
X2157Y-7835D01*
X2157Y-7720D01*
X2157Y-7370D01*
X2113Y-7263D01*
X2032Y-7182D01*
X1955Y-7150D01*
X2092Y-7012D01*
X2092Y-7012D01*
X2258Y-7177D01*
X2475Y-7267D01*
X2709Y-7268D01*
X2926Y-7178D01*
X3077Y-7027D01*
X3108Y-7027D01*
X3258Y-7177D01*
X3475Y-7267D01*
X3709Y-7268D01*
X3738Y-7256D01*
X3751Y-7319D01*
X3831Y-7439D01*
X4131Y-7739D01*
X4251Y-7819D01*
X4392Y-7847D01*
X5489Y-7847D01*
X7577Y-9935D01*
G54D10*
G36*
X11891Y-8821D02*
X11810Y-8788D01*
X11576Y-8787D01*
X11359Y-8877D01*
X11193Y-9043D01*
X11103Y-9260D01*
X11102Y-9494D01*
X11192Y-9711D01*
X11288Y-9807D01*
X11228Y-9832D01*
X11147Y-9913D01*
X11102Y-10020D01*
X11102Y-10135D01*
X11102Y-10194D01*
X10031Y-11266D01*
X9951Y-11386D01*
X9922Y-11527D01*
X9922Y-12774D01*
X8384Y-14312D01*
X8350Y-14312D01*
X8179Y-14383D01*
X8048Y-14514D01*
X7977Y-14685D01*
X7977Y-14870D01*
X8026Y-14986D01*
X8011Y-14996D01*
X7986Y-15021D01*
X7311Y-15696D01*
X7179Y-15894D01*
X7133Y-16123D01*
X7069Y-16059D01*
X6963Y-16015D01*
X6240Y-16015D01*
X6167Y-16087D01*
X6167Y-16727D01*
X6175Y-16727D01*
X6175Y-16827D01*
X6167Y-16827D01*
X6167Y-16835D01*
X6067Y-16835D01*
X6067Y-16827D01*
X6060Y-16827D01*
X6060Y-16727D01*
X6067Y-16727D01*
X6067Y-16087D01*
X5995Y-16015D01*
X5272Y-16015D01*
X5166Y-16059D01*
X5084Y-16141D01*
X5040Y-16247D01*
X5040Y-16363D01*
X5040Y-16655D01*
X5112Y-16727D01*
X5040Y-16727D01*
X5040Y-16761D01*
X4995Y-16742D01*
X4880Y-16742D01*
X3474Y-16742D01*
X3539Y-16678D01*
X3727Y-16224D01*
X3728Y-15733D01*
X3540Y-15279D01*
X3193Y-14931D01*
X2739Y-14743D01*
X2248Y-14742D01*
X1794Y-14930D01*
X1446Y-15277D01*
X1258Y-15731D01*
X1257Y-16222D01*
X1445Y-16676D01*
X1511Y-16742D01*
X1346Y-16743D01*
X893Y-16930D01*
X789Y-17104D01*
X1592Y-17907D01*
X1598Y-17901D01*
X1669Y-17972D01*
X1663Y-17977D01*
X2466Y-18780D01*
X2640Y-18677D01*
X2757Y-18392D01*
X2757Y-18980D01*
X2802Y-19087D01*
X2883Y-19168D01*
X2990Y-19212D01*
X3105Y-19212D01*
X4995Y-19212D01*
X5102Y-19168D01*
X5183Y-19087D01*
X5227Y-18980D01*
X5227Y-18865D01*
X5227Y-18587D01*
X7092Y-18587D01*
X7326Y-18541D01*
X7524Y-18409D01*
X8032Y-17900D01*
X8032Y-18877D01*
X8079Y-19111D01*
X8211Y-19309D01*
X8295Y-19365D01*
X2395Y-19365D01*
X2395Y-18851D01*
X1592Y-18048D01*
X1522Y-18119D01*
X1522Y-17977D01*
X719Y-17174D01*
X545Y-17278D01*
X357Y-17732D01*
X358Y-18224D01*
X545Y-18677D01*
X719Y-18780D01*
X1522Y-17977D01*
X1522Y-18119D01*
X789Y-18851D01*
X893Y-19025D01*
X1347Y-19213D01*
X1839Y-19212D01*
X2292Y-19025D01*
X2395Y-18851D01*
X2395Y-19365D01*
X319Y-19365D01*
X319Y-12386D01*
X345Y-12425D01*
X745Y-12825D01*
X858Y-12901D01*
X858Y-12901D01*
X992Y-12927D01*
X7292Y-12927D01*
X7426Y-12901D01*
X7426Y-12901D01*
X7439Y-12892D01*
X7439Y-12892D01*
X7535Y-12893D01*
X7705Y-12822D01*
X7836Y-12691D01*
X7907Y-12520D01*
X7907Y-12335D01*
X7837Y-12164D01*
X7706Y-12033D01*
X7535Y-11963D01*
X7350Y-11962D01*
X7179Y-12033D01*
X7048Y-12164D01*
X7022Y-12227D01*
X2294Y-12227D01*
X2294Y-11351D01*
X2224Y-11179D01*
X2092Y-11048D01*
X1921Y-10977D01*
X1735Y-10976D01*
X1563Y-11047D01*
X1432Y-11179D01*
X1360Y-11350D01*
X1360Y-11536D01*
X1431Y-11708D01*
X1563Y-11839D01*
X1734Y-11910D01*
X1920Y-11911D01*
X2092Y-11840D01*
X2223Y-11708D01*
X2294Y-11537D01*
X2294Y-11351D01*
X2294Y-12227D01*
X1137Y-12227D01*
X942Y-12032D01*
X942Y-8810D01*
X1032Y-8773D01*
X1092Y-8713D01*
X1153Y-8773D01*
X1260Y-8817D01*
X1375Y-8817D01*
X1562Y-8817D01*
X2038Y-9293D01*
X1921Y-9245D01*
X1735Y-9244D01*
X1563Y-9315D01*
X1432Y-9447D01*
X1360Y-9618D01*
X1360Y-9804D01*
X1431Y-9976D01*
X1563Y-10107D01*
X1734Y-10178D01*
X1920Y-10179D01*
X2092Y-10108D01*
X2223Y-9976D01*
X2294Y-9805D01*
X2294Y-9619D01*
X2246Y-9501D01*
X3282Y-10537D01*
X3870Y-11125D01*
X3983Y-11201D01*
X3983Y-11201D01*
X4117Y-11227D01*
X4492Y-11227D01*
X5642Y-11227D01*
X6542Y-11227D01*
X6676Y-11201D01*
X6676Y-11201D01*
X6790Y-11125D01*
X6926Y-10988D01*
X6948Y-11041D01*
X7079Y-11171D01*
X7250Y-11242D01*
X7435Y-11243D01*
X7592Y-11177D01*
X7797Y-11177D01*
X8145Y-11525D01*
X8258Y-11601D01*
X8258Y-11601D01*
X8392Y-11627D01*
X8842Y-11627D01*
X8976Y-11601D01*
X8976Y-11601D01*
X9090Y-11525D01*
X9390Y-11225D01*
X9466Y-11111D01*
X9466Y-11111D01*
X9492Y-10977D01*
X9492Y-7622D01*
X10077Y-7037D01*
X10077Y-7070D01*
X10148Y-7241D01*
X10279Y-7371D01*
X10450Y-7442D01*
X10512Y-7442D01*
X11891Y-8821D01*
X11891Y-8821D01*
G37*
G54D29*
X11891Y-8821D02*
X11810Y-8788D01*
X11576Y-8787D01*
X11359Y-8877D01*
X11193Y-9043D01*
X11103Y-9260D01*
X11102Y-9494D01*
X11192Y-9711D01*
X11288Y-9807D01*
X11228Y-9832D01*
X11147Y-9913D01*
X11102Y-10020D01*
X11102Y-10135D01*
X11102Y-10194D01*
X10031Y-11266D01*
X9951Y-11386D01*
X9922Y-11527D01*
X9922Y-12774D01*
X8384Y-14312D01*
X8350Y-14312D01*
X8179Y-14383D01*
X8048Y-14514D01*
X7977Y-14685D01*
X7977Y-14870D01*
X8026Y-14986D01*
X8011Y-14996D01*
X7986Y-15021D01*
X7311Y-15696D01*
X7179Y-15894D01*
X7133Y-16123D01*
X7069Y-16059D01*
X6963Y-16015D01*
X6240Y-16015D01*
X6167Y-16087D01*
X6167Y-16727D01*
X6175Y-16727D01*
X6175Y-16827D01*
X6167Y-16827D01*
X6167Y-16835D01*
X6067Y-16835D01*
X6067Y-16827D01*
X6060Y-16827D01*
X6060Y-16727D01*
X6067Y-16727D01*
X6067Y-16087D01*
X5995Y-16015D01*
X5272Y-16015D01*
X5166Y-16059D01*
X5084Y-16141D01*
X5040Y-16247D01*
X5040Y-16363D01*
X5040Y-16655D01*
X5112Y-16727D01*
X5040Y-16727D01*
X5040Y-16761D01*
X4995Y-16742D01*
X4880Y-16742D01*
X3474Y-16742D01*
X3539Y-16678D01*
X3727Y-16224D01*
X3728Y-15733D01*
X3540Y-15279D01*
X3193Y-14931D01*
X2739Y-14743D01*
X2248Y-14742D01*
X1794Y-14930D01*
X1446Y-15277D01*
X1258Y-15731D01*
X1257Y-16222D01*
X1445Y-16676D01*
X1511Y-16742D01*
X1346Y-16743D01*
X893Y-16930D01*
X789Y-17104D01*
X1592Y-17907D01*
X1598Y-17901D01*
X1669Y-17972D01*
X1663Y-17977D01*
X2466Y-18780D01*
X2640Y-18677D01*
X2757Y-18392D01*
X2757Y-18980D01*
X2802Y-19087D01*
X2883Y-19168D01*
X2990Y-19212D01*
X3105Y-19212D01*
X4995Y-19212D01*
X5102Y-19168D01*
X5183Y-19087D01*
X5227Y-18980D01*
X5227Y-18865D01*
X5227Y-18587D01*
X7092Y-18587D01*
X7326Y-18541D01*
X7524Y-18409D01*
X8032Y-17900D01*
X8032Y-18877D01*
X8079Y-19111D01*
X8211Y-19309D01*
X8295Y-19365D01*
X2395Y-19365D01*
X2395Y-18851D01*
X1592Y-18048D01*
X1522Y-18119D01*
X1522Y-17977D01*
X719Y-17174D01*
X545Y-17278D01*
X357Y-17732D01*
X358Y-18224D01*
X545Y-18677D01*
X719Y-18780D01*
X1522Y-17977D01*
X1522Y-18119D01*
X789Y-18851D01*
X893Y-19025D01*
X1347Y-19213D01*
X1839Y-19212D01*
X2292Y-19025D01*
X2395Y-18851D01*
X2395Y-19365D01*
X319Y-19365D01*
X319Y-12386D01*
X345Y-12425D01*
X745Y-12825D01*
X858Y-12901D01*
X858Y-12901D01*
X992Y-12927D01*
X7292Y-12927D01*
X7426Y-12901D01*
X7426Y-12901D01*
X7439Y-12892D01*
X7439Y-12892D01*
X7535Y-12893D01*
X7705Y-12822D01*
X7836Y-12691D01*
X7907Y-12520D01*
X7907Y-12335D01*
X7837Y-12164D01*
X7706Y-12033D01*
X7535Y-11963D01*
X7350Y-11962D01*
X7179Y-12033D01*
X7048Y-12164D01*
X7022Y-12227D01*
X2294Y-12227D01*
X2294Y-11351D01*
X2224Y-11179D01*
X2092Y-11048D01*
X1921Y-10977D01*
X1735Y-10976D01*
X1563Y-11047D01*
X1432Y-11179D01*
X1360Y-11350D01*
X1360Y-11536D01*
X1431Y-11708D01*
X1563Y-11839D01*
X1734Y-11910D01*
X1920Y-11911D01*
X2092Y-11840D01*
X2223Y-11708D01*
X2294Y-11537D01*
X2294Y-11351D01*
X2294Y-12227D01*
X1137Y-12227D01*
X942Y-12032D01*
X942Y-8810D01*
X1032Y-8773D01*
X1092Y-8713D01*
X1153Y-8773D01*
X1260Y-8817D01*
X1375Y-8817D01*
X1562Y-8817D01*
X2038Y-9293D01*
X1921Y-9245D01*
X1735Y-9244D01*
X1563Y-9315D01*
X1432Y-9447D01*
X1360Y-9618D01*
X1360Y-9804D01*
X1431Y-9976D01*
X1563Y-10107D01*
X1734Y-10178D01*
X1920Y-10179D01*
X2092Y-10108D01*
X2223Y-9976D01*
X2294Y-9805D01*
X2294Y-9619D01*
X2246Y-9501D01*
X3282Y-10537D01*
X3870Y-11125D01*
X3983Y-11201D01*
X3983Y-11201D01*
X4117Y-11227D01*
X4492Y-11227D01*
X5642Y-11227D01*
X6542Y-11227D01*
X6676Y-11201D01*
X6676Y-11201D01*
X6790Y-11125D01*
X6926Y-10988D01*
X6948Y-11041D01*
X7079Y-11171D01*
X7250Y-11242D01*
X7435Y-11243D01*
X7592Y-11177D01*
X7797Y-11177D01*
X8145Y-11525D01*
X8258Y-11601D01*
X8258Y-11601D01*
X8392Y-11627D01*
X8842Y-11627D01*
X8976Y-11601D01*
X8976Y-11601D01*
X9090Y-11525D01*
X9390Y-11225D01*
X9466Y-11111D01*
X9466Y-11111D01*
X9492Y-10977D01*
X9492Y-7622D01*
X10077Y-7037D01*
X10077Y-7070D01*
X10148Y-7241D01*
X10279Y-7371D01*
X10450Y-7442D01*
X10512Y-7442D01*
X11891Y-8821D01*
G54D10*
G36*
X13335Y-18536D02*
X13214Y-18657D01*
X13195Y-18702D01*
X13186Y-18681D01*
X13082Y-18658D01*
X13011Y-18729D01*
X13011Y-18588D01*
X12989Y-18484D01*
X12778Y-18408D01*
X12553Y-18418D01*
X12396Y-18484D01*
X12373Y-18588D01*
X12692Y-18907D01*
X13011Y-18588D01*
X13011Y-18729D01*
X12763Y-18977D01*
X12769Y-18983D01*
X12698Y-19054D01*
X12692Y-19048D01*
X12687Y-19054D01*
X12616Y-18983D01*
X12622Y-18977D01*
X12303Y-18658D01*
X12257Y-18668D01*
X12257Y-18645D01*
X12213Y-18538D01*
X12132Y-18457D01*
X12025Y-18412D01*
X11910Y-18412D01*
X11360Y-18412D01*
X11253Y-18457D01*
X11172Y-18538D01*
X11127Y-18645D01*
X11127Y-18760D01*
X11127Y-19310D01*
X11150Y-19365D01*
X8990Y-19365D01*
X9074Y-19309D01*
X9206Y-19111D01*
X9252Y-18877D01*
X9252Y-17655D01*
X9368Y-17540D01*
X10113Y-17540D01*
X10219Y-17496D01*
X10292Y-17423D01*
X10292Y-17428D01*
X10227Y-17585D01*
X10227Y-17770D01*
X10298Y-17941D01*
X10429Y-18071D01*
X10600Y-18142D01*
X10785Y-18143D01*
X10955Y-18072D01*
X11086Y-17941D01*
X11157Y-17770D01*
X11157Y-17585D01*
X11087Y-17414D01*
X11045Y-17372D01*
X13335Y-17372D01*
X13335Y-18536D01*
X13335Y-18536D01*
G37*
G54D29*
X13335Y-18536D02*
X13214Y-18657D01*
X13195Y-18702D01*
X13186Y-18681D01*
X13082Y-18658D01*
X13011Y-18729D01*
X13011Y-18588D01*
X12989Y-18484D01*
X12778Y-18408D01*
X12553Y-18418D01*
X12396Y-18484D01*
X12373Y-18588D01*
X12692Y-18907D01*
X13011Y-18588D01*
X13011Y-18729D01*
X12763Y-18977D01*
X12769Y-18983D01*
X12698Y-19054D01*
X12692Y-19048D01*
X12687Y-19054D01*
X12616Y-18983D01*
X12622Y-18977D01*
X12303Y-18658D01*
X12257Y-18668D01*
X12257Y-18645D01*
X12213Y-18538D01*
X12132Y-18457D01*
X12025Y-18412D01*
X11910Y-18412D01*
X11360Y-18412D01*
X11253Y-18457D01*
X11172Y-18538D01*
X11127Y-18645D01*
X11127Y-18760D01*
X11127Y-19310D01*
X11150Y-19365D01*
X8990Y-19365D01*
X9074Y-19309D01*
X9206Y-19111D01*
X9252Y-18877D01*
X9252Y-17655D01*
X9368Y-17540D01*
X10113Y-17540D01*
X10219Y-17496D01*
X10292Y-17423D01*
X10292Y-17428D01*
X10227Y-17585D01*
X10227Y-17770D01*
X10298Y-17941D01*
X10429Y-18071D01*
X10600Y-18142D01*
X10785Y-18143D01*
X10955Y-18072D01*
X11086Y-17941D01*
X11157Y-17770D01*
X11157Y-17585D01*
X11087Y-17414D01*
X11045Y-17372D01*
X13335Y-17372D01*
X13335Y-18536D01*
G54D10*
G36*
X19365Y-9979D02*
X19205Y-9913D01*
X18981Y-9912D01*
X18773Y-9998D01*
X18614Y-10157D01*
X18528Y-10365D01*
X18527Y-10589D01*
X18613Y-10797D01*
X18772Y-10956D01*
X18813Y-10973D01*
X18283Y-10973D01*
X18283Y-3057D01*
X18232Y-2797D01*
X18084Y-2577D01*
X17864Y-2429D01*
X17603Y-2377D01*
X16781Y-2377D01*
X16521Y-2429D01*
X16301Y-2577D01*
X16153Y-2797D01*
X16101Y-3057D01*
X16153Y-3318D01*
X16301Y-3538D01*
X16521Y-3686D01*
X16781Y-3737D01*
X17603Y-3737D01*
X17864Y-3686D01*
X18084Y-3538D01*
X18232Y-3318D01*
X18283Y-3057D01*
X18283Y-10973D01*
X17673Y-10973D01*
X17702Y-10827D01*
X17702Y-7427D01*
X17656Y-7194D01*
X17524Y-6996D01*
X16674Y-6146D01*
X16476Y-6014D01*
X16242Y-5967D01*
X16012Y-5967D01*
X16001Y-5941D01*
X15919Y-5859D01*
X15813Y-5815D01*
X15697Y-5815D01*
X15577Y-5815D01*
X15577Y-2555D01*
X16435Y-1697D01*
X16494Y-1697D01*
X16521Y-1716D01*
X16781Y-1767D01*
X17603Y-1767D01*
X17864Y-1716D01*
X18084Y-1568D01*
X18232Y-1348D01*
X18283Y-1087D01*
X18232Y-827D01*
X18084Y-607D01*
X17864Y-459D01*
X17603Y-407D01*
X16781Y-407D01*
X16521Y-459D01*
X16494Y-477D01*
X16182Y-477D01*
X15949Y-524D01*
X15751Y-656D01*
X14536Y-1871D01*
X14404Y-2069D01*
X14357Y-2302D01*
X14357Y-5815D01*
X14122Y-5815D01*
X14016Y-5859D01*
X13934Y-5941D01*
X13890Y-6047D01*
X13890Y-6163D01*
X13890Y-7019D01*
X13349Y-7559D01*
X13252Y-7705D01*
X13217Y-7877D01*
X13217Y-8540D01*
X13150Y-8512D01*
X13040Y-8512D01*
X12967Y-8585D01*
X12967Y-9027D01*
X12975Y-9027D01*
X12975Y-9127D01*
X12967Y-9127D01*
X12967Y-9135D01*
X12895Y-9135D01*
X12895Y-7108D01*
X12895Y-6992D01*
X12895Y-6700D01*
X12895Y-6455D01*
X12895Y-6163D01*
X12895Y-6047D01*
X12851Y-5941D01*
X12769Y-5859D01*
X12663Y-5815D01*
X11940Y-5815D01*
X11867Y-5887D01*
X11867Y-6527D01*
X12822Y-6527D01*
X12895Y-6455D01*
X12895Y-6700D01*
X12822Y-6627D01*
X11867Y-6627D01*
X11867Y-7267D01*
X11940Y-7340D01*
X12663Y-7340D01*
X12769Y-7296D01*
X12851Y-7214D01*
X12895Y-7108D01*
X12895Y-9135D01*
X12867Y-9135D01*
X12867Y-9127D01*
X12860Y-9127D01*
X12860Y-9027D01*
X12867Y-9027D01*
X12867Y-8585D01*
X12795Y-8512D01*
X12685Y-8512D01*
X12605Y-8545D01*
X11400Y-7340D01*
X11695Y-7340D01*
X11767Y-7267D01*
X11767Y-6627D01*
X11760Y-6627D01*
X11760Y-6527D01*
X11767Y-6527D01*
X11767Y-5887D01*
X11695Y-5815D01*
X11639Y-5815D01*
X11657Y-5770D01*
X11657Y-5585D01*
X11587Y-5414D01*
X11456Y-5283D01*
X11285Y-5213D01*
X11100Y-5212D01*
X10929Y-5283D01*
X10858Y-5355D01*
X10858Y-5355D01*
X10745Y-5430D01*
X10738Y-5413D01*
X10657Y-5332D01*
X10597Y-5307D01*
X10692Y-5212D01*
X10782Y-4995D01*
X10783Y-4761D01*
X10693Y-4544D01*
X10527Y-4378D01*
X10527Y-4377D01*
X10692Y-4212D01*
X10782Y-3995D01*
X10783Y-3761D01*
X10693Y-3544D01*
X10527Y-3378D01*
X10527Y-3377D01*
X10692Y-3212D01*
X10782Y-2995D01*
X10783Y-2761D01*
X10693Y-2544D01*
X10527Y-2378D01*
X10527Y-2377D01*
X10692Y-2212D01*
X10782Y-1995D01*
X10783Y-1761D01*
X10693Y-1544D01*
X10527Y-1378D01*
X10310Y-1288D01*
X10076Y-1287D01*
X9859Y-1377D01*
X9693Y-1543D01*
X9603Y-1760D01*
X9602Y-1994D01*
X9692Y-2211D01*
X9858Y-2377D01*
X9858Y-2377D01*
X9693Y-2543D01*
X9603Y-2760D01*
X9602Y-2994D01*
X9692Y-3211D01*
X9858Y-3377D01*
X9858Y-3377D01*
X9693Y-3543D01*
X9603Y-3760D01*
X9602Y-3994D01*
X9692Y-4211D01*
X9858Y-4377D01*
X9858Y-4377D01*
X9693Y-4543D01*
X9603Y-4760D01*
X9602Y-4994D01*
X9692Y-5211D01*
X9788Y-5307D01*
X9728Y-5332D01*
X9647Y-5413D01*
X9602Y-5520D01*
X9602Y-5635D01*
X9602Y-6235D01*
X9647Y-6342D01*
X9715Y-6410D01*
X9042Y-7082D01*
X9042Y-5577D01*
X9016Y-5444D01*
X9016Y-5444D01*
X8940Y-5330D01*
X8465Y-4855D01*
X8351Y-4779D01*
X8217Y-4752D01*
X8202Y-4752D01*
X8202Y-2677D01*
X8202Y-1677D01*
X8183Y-1577D01*
X8183Y-1561D01*
X8176Y-1545D01*
X8156Y-1444D01*
X8099Y-1359D01*
X8093Y-1344D01*
X8081Y-1332D01*
X8024Y-1246D01*
X7939Y-1189D01*
X7927Y-1178D01*
X7911Y-1171D01*
X7826Y-1114D01*
X7726Y-1094D01*
X7710Y-1088D01*
X7693Y-1088D01*
X7592Y-1067D01*
X7492Y-1087D01*
X7476Y-1087D01*
X7460Y-1094D01*
X7359Y-1114D01*
X7274Y-1171D01*
X7259Y-1177D01*
X7247Y-1189D01*
X7161Y-1246D01*
X7155Y-1255D01*
X7138Y-1213D01*
X7057Y-1132D01*
X6950Y-1087D01*
X6715Y-1087D01*
X6642Y-1160D01*
X6642Y-1627D01*
X6650Y-1627D01*
X6650Y-1727D01*
X6642Y-1727D01*
X6642Y-2195D01*
X6715Y-2267D01*
X6950Y-2267D01*
X6982Y-2254D01*
X6982Y-2425D01*
X5992Y-3415D01*
X4922Y-3415D01*
X4816Y-3459D01*
X4734Y-3541D01*
X4690Y-3647D01*
X4690Y-3763D01*
X4690Y-4708D01*
X4734Y-4814D01*
X4816Y-4896D01*
X4922Y-4940D01*
X5038Y-4940D01*
X6613Y-4940D01*
X6719Y-4896D01*
X6801Y-4814D01*
X6845Y-4708D01*
X6845Y-4592D01*
X6845Y-4288D01*
X8024Y-3109D01*
X8156Y-2911D01*
X8156Y-2911D01*
X8202Y-2677D01*
X8202Y-4752D01*
X8103Y-4752D01*
X8032Y-4682D01*
X7925Y-4637D01*
X7810Y-4637D01*
X7260Y-4637D01*
X7153Y-4682D01*
X7072Y-4763D01*
X7027Y-4870D01*
X7027Y-4985D01*
X7027Y-5335D01*
X7072Y-5442D01*
X7107Y-5477D01*
X7072Y-5513D01*
X7027Y-5620D01*
X7027Y-5735D01*
X7027Y-6085D01*
X7072Y-6192D01*
X7153Y-6273D01*
X7160Y-6276D01*
X7093Y-6343D01*
X7092Y-6343D01*
X6927Y-6178D01*
X6710Y-6088D01*
X6476Y-6087D01*
X6259Y-6177D01*
X6093Y-6343D01*
X6092Y-6343D01*
X5927Y-6178D01*
X5710Y-6088D01*
X5476Y-6087D01*
X5259Y-6177D01*
X5093Y-6343D01*
X5092Y-6343D01*
X4927Y-6178D01*
X4710Y-6088D01*
X4476Y-6087D01*
X4462Y-6093D01*
X4462Y-5327D01*
X4434Y-5186D01*
X4379Y-5104D01*
X4379Y-5031D01*
X4305Y-4852D01*
X4169Y-4715D01*
X3990Y-4641D01*
X3796Y-4641D01*
X3695Y-4682D01*
X3695Y-4592D01*
X3695Y-4300D01*
X3695Y-4055D01*
X3695Y-3763D01*
X3695Y-3647D01*
X3651Y-3541D01*
X3569Y-3459D01*
X3463Y-3415D01*
X2740Y-3415D01*
X2667Y-3487D01*
X2667Y-4127D01*
X3622Y-4127D01*
X3695Y-4055D01*
X3695Y-4300D01*
X3622Y-4227D01*
X2667Y-4227D01*
X2667Y-4867D01*
X2740Y-4940D01*
X3443Y-4940D01*
X3406Y-5030D01*
X3405Y-5224D01*
X3479Y-5403D01*
X3616Y-5540D01*
X3722Y-5584D01*
X3722Y-6093D01*
X3710Y-6088D01*
X3476Y-6087D01*
X3259Y-6177D01*
X3108Y-6327D01*
X3077Y-6327D01*
X2927Y-6178D01*
X2710Y-6088D01*
X2567Y-6087D01*
X2567Y-4867D01*
X2567Y-4227D01*
X2567Y-4127D01*
X2567Y-3487D01*
X2495Y-3415D01*
X1772Y-3415D01*
X1666Y-3459D01*
X1584Y-3541D01*
X1540Y-3647D01*
X1540Y-3763D01*
X1540Y-4055D01*
X1612Y-4127D01*
X2567Y-4127D01*
X2567Y-4227D01*
X1612Y-4227D01*
X1540Y-4300D01*
X1540Y-4592D01*
X1540Y-4708D01*
X1584Y-4814D01*
X1666Y-4896D01*
X1772Y-4940D01*
X2495Y-4940D01*
X2567Y-4867D01*
X2567Y-6087D01*
X2476Y-6087D01*
X2259Y-6177D01*
X2093Y-6343D01*
X2092Y-6343D01*
X1927Y-6178D01*
X1710Y-6088D01*
X1476Y-6087D01*
X1259Y-6177D01*
X1093Y-6343D01*
X1092Y-6343D01*
X927Y-6178D01*
X710Y-6088D01*
X476Y-6087D01*
X319Y-6152D01*
X319Y-2267D01*
X470Y-2267D01*
X542Y-2195D01*
X542Y-1727D01*
X535Y-1727D01*
X535Y-1627D01*
X542Y-1627D01*
X542Y-1160D01*
X470Y-1087D01*
X319Y-1087D01*
X319Y-319D01*
X2061Y-319D01*
X2003Y-460D01*
X2002Y-694D01*
X2092Y-911D01*
X2258Y-1077D01*
X2378Y-1127D01*
X2259Y-1177D01*
X2093Y-1343D01*
X2092Y-1343D01*
X1927Y-1178D01*
X1710Y-1088D01*
X1476Y-1087D01*
X1259Y-1177D01*
X1163Y-1273D01*
X1138Y-1213D01*
X1057Y-1132D01*
X950Y-1087D01*
X715Y-1087D01*
X642Y-1160D01*
X642Y-1627D01*
X650Y-1627D01*
X650Y-1727D01*
X642Y-1727D01*
X642Y-2195D01*
X715Y-2267D01*
X950Y-2267D01*
X1057Y-2223D01*
X1138Y-2142D01*
X1163Y-2082D01*
X1258Y-2177D01*
X1475Y-2267D01*
X1709Y-2268D01*
X1926Y-2178D01*
X2092Y-2012D01*
X2092Y-2012D01*
X2258Y-2177D01*
X2475Y-2267D01*
X2709Y-2268D01*
X2926Y-2178D01*
X3092Y-2012D01*
X3092Y-2012D01*
X3258Y-2177D01*
X3475Y-2267D01*
X3709Y-2268D01*
X3926Y-2178D01*
X4092Y-2012D01*
X4092Y-2012D01*
X4258Y-2177D01*
X4475Y-2267D01*
X4709Y-2268D01*
X4926Y-2178D01*
X5092Y-2012D01*
X5092Y-2012D01*
X5258Y-2177D01*
X5475Y-2267D01*
X5709Y-2268D01*
X5926Y-2178D01*
X6022Y-2082D01*
X6047Y-2142D01*
X6128Y-2223D01*
X6235Y-2267D01*
X6470Y-2267D01*
X6542Y-2195D01*
X6542Y-1727D01*
X6535Y-1727D01*
X6535Y-1627D01*
X6542Y-1627D01*
X6542Y-1160D01*
X6470Y-1087D01*
X6235Y-1087D01*
X6128Y-1132D01*
X6047Y-1213D01*
X6022Y-1273D01*
X5927Y-1178D01*
X5903Y-1167D01*
X5950Y-1167D01*
X6057Y-1123D01*
X6138Y-1042D01*
X6182Y-935D01*
X6182Y-820D01*
X6182Y-319D01*
X19365Y-319D01*
X19365Y-7979D01*
X19205Y-7913D01*
X18981Y-7912D01*
X18773Y-7998D01*
X18614Y-8157D01*
X18528Y-8365D01*
X18527Y-8589D01*
X18613Y-8797D01*
X18772Y-8956D01*
X18980Y-9042D01*
X19204Y-9043D01*
X19365Y-8976D01*
X19365Y-9979D01*
X19365Y-9979D01*
G37*
G54D29*
X19365Y-9979D02*
X19205Y-9913D01*
X18981Y-9912D01*
X18773Y-9998D01*
X18614Y-10157D01*
X18528Y-10365D01*
X18527Y-10589D01*
X18613Y-10797D01*
X18772Y-10956D01*
X18813Y-10973D01*
X18283Y-10973D01*
X18283Y-3057D01*
X18232Y-2797D01*
X18084Y-2577D01*
X17864Y-2429D01*
X17603Y-2377D01*
X16781Y-2377D01*
X16521Y-2429D01*
X16301Y-2577D01*
X16153Y-2797D01*
X16101Y-3057D01*
X16153Y-3318D01*
X16301Y-3538D01*
X16521Y-3686D01*
X16781Y-3737D01*
X17603Y-3737D01*
X17864Y-3686D01*
X18084Y-3538D01*
X18232Y-3318D01*
X18283Y-3057D01*
X18283Y-10973D01*
X17673Y-10973D01*
X17702Y-10827D01*
X17702Y-7427D01*
X17656Y-7194D01*
X17524Y-6996D01*
X16674Y-6146D01*
X16476Y-6014D01*
X16242Y-5967D01*
X16012Y-5967D01*
X16001Y-5941D01*
X15919Y-5859D01*
X15813Y-5815D01*
X15697Y-5815D01*
X15577Y-5815D01*
X15577Y-2555D01*
X16435Y-1697D01*
X16494Y-1697D01*
X16521Y-1716D01*
X16781Y-1767D01*
X17603Y-1767D01*
X17864Y-1716D01*
X18084Y-1568D01*
X18232Y-1348D01*
X18283Y-1087D01*
X18232Y-827D01*
X18084Y-607D01*
X17864Y-459D01*
X17603Y-407D01*
X16781Y-407D01*
X16521Y-459D01*
X16494Y-477D01*
X16182Y-477D01*
X15949Y-524D01*
X15751Y-656D01*
X14536Y-1871D01*
X14404Y-2069D01*
X14357Y-2302D01*
X14357Y-5815D01*
X14122Y-5815D01*
X14016Y-5859D01*
X13934Y-5941D01*
X13890Y-6047D01*
X13890Y-6163D01*
X13890Y-7019D01*
X13349Y-7559D01*
X13252Y-7705D01*
X13217Y-7877D01*
X13217Y-8540D01*
X13150Y-8512D01*
X13040Y-8512D01*
X12967Y-8585D01*
X12967Y-9027D01*
X12975Y-9027D01*
X12975Y-9127D01*
X12967Y-9127D01*
X12967Y-9135D01*
X12895Y-9135D01*
X12895Y-7108D01*
X12895Y-6992D01*
X12895Y-6700D01*
X12895Y-6455D01*
X12895Y-6163D01*
X12895Y-6047D01*
X12851Y-5941D01*
X12769Y-5859D01*
X12663Y-5815D01*
X11940Y-5815D01*
X11867Y-5887D01*
X11867Y-6527D01*
X12822Y-6527D01*
X12895Y-6455D01*
X12895Y-6700D01*
X12822Y-6627D01*
X11867Y-6627D01*
X11867Y-7267D01*
X11940Y-7340D01*
X12663Y-7340D01*
X12769Y-7296D01*
X12851Y-7214D01*
X12895Y-7108D01*
X12895Y-9135D01*
X12867Y-9135D01*
X12867Y-9127D01*
X12860Y-9127D01*
X12860Y-9027D01*
X12867Y-9027D01*
X12867Y-8585D01*
X12795Y-8512D01*
X12685Y-8512D01*
X12605Y-8545D01*
X11400Y-7340D01*
X11695Y-7340D01*
X11767Y-7267D01*
X11767Y-6627D01*
X11760Y-6627D01*
X11760Y-6527D01*
X11767Y-6527D01*
X11767Y-5887D01*
X11695Y-5815D01*
X11639Y-5815D01*
X11657Y-5770D01*
X11657Y-5585D01*
X11587Y-5414D01*
X11456Y-5283D01*
X11285Y-5213D01*
X11100Y-5212D01*
X10929Y-5283D01*
X10858Y-5355D01*
X10858Y-5355D01*
X10745Y-5430D01*
X10738Y-5413D01*
X10657Y-5332D01*
X10597Y-5307D01*
X10692Y-5212D01*
X10782Y-4995D01*
X10783Y-4761D01*
X10693Y-4544D01*
X10527Y-4378D01*
X10527Y-4377D01*
X10692Y-4212D01*
X10782Y-3995D01*
X10783Y-3761D01*
X10693Y-3544D01*
X10527Y-3378D01*
X10527Y-3377D01*
X10692Y-3212D01*
X10782Y-2995D01*
X10783Y-2761D01*
X10693Y-2544D01*
X10527Y-2378D01*
X10527Y-2377D01*
X10692Y-2212D01*
X10782Y-1995D01*
X10783Y-1761D01*
X10693Y-1544D01*
X10527Y-1378D01*
X10310Y-1288D01*
X10076Y-1287D01*
X9859Y-1377D01*
X9693Y-1543D01*
X9603Y-1760D01*
X9602Y-1994D01*
X9692Y-2211D01*
X9858Y-2377D01*
X9858Y-2377D01*
X9693Y-2543D01*
X9603Y-2760D01*
X9602Y-2994D01*
X9692Y-3211D01*
X9858Y-3377D01*
X9858Y-3377D01*
X9693Y-3543D01*
X9603Y-3760D01*
X9602Y-3994D01*
X9692Y-4211D01*
X9858Y-4377D01*
X9858Y-4377D01*
X9693Y-4543D01*
X9603Y-4760D01*
X9602Y-4994D01*
X9692Y-5211D01*
X9788Y-5307D01*
X9728Y-5332D01*
X9647Y-5413D01*
X9602Y-5520D01*
X9602Y-5635D01*
X9602Y-6235D01*
X9647Y-6342D01*
X9715Y-6410D01*
X9042Y-7082D01*
X9042Y-5577D01*
X9016Y-5444D01*
X9016Y-5444D01*
X8940Y-5330D01*
X8465Y-4855D01*
X8351Y-4779D01*
X8217Y-4752D01*
X8202Y-4752D01*
X8202Y-2677D01*
X8202Y-1677D01*
X8183Y-1577D01*
X8183Y-1561D01*
X8176Y-1545D01*
X8156Y-1444D01*
X8099Y-1359D01*
X8093Y-1344D01*
X8081Y-1332D01*
X8024Y-1246D01*
X7939Y-1189D01*
X7927Y-1178D01*
X7911Y-1171D01*
X7826Y-1114D01*
X7726Y-1094D01*
X7710Y-1088D01*
X7693Y-1088D01*
X7592Y-1067D01*
X7492Y-1087D01*
X7476Y-1087D01*
X7460Y-1094D01*
X7359Y-1114D01*
X7274Y-1171D01*
X7259Y-1177D01*
X7247Y-1189D01*
X7161Y-1246D01*
X7155Y-1255D01*
X7138Y-1213D01*
X7057Y-1132D01*
X6950Y-1087D01*
X6715Y-1087D01*
X6642Y-1160D01*
X6642Y-1627D01*
X6650Y-1627D01*
X6650Y-1727D01*
X6642Y-1727D01*
X6642Y-2195D01*
X6715Y-2267D01*
X6950Y-2267D01*
X6982Y-2254D01*
X6982Y-2425D01*
X5992Y-3415D01*
X4922Y-3415D01*
X4816Y-3459D01*
X4734Y-3541D01*
X4690Y-3647D01*
X4690Y-3763D01*
X4690Y-4708D01*
X4734Y-4814D01*
X4816Y-4896D01*
X4922Y-4940D01*
X5038Y-4940D01*
X6613Y-4940D01*
X6719Y-4896D01*
X6801Y-4814D01*
X6845Y-4708D01*
X6845Y-4592D01*
X6845Y-4288D01*
X8024Y-3109D01*
X8156Y-2911D01*
X8156Y-2911D01*
X8202Y-2677D01*
X8202Y-4752D01*
X8103Y-4752D01*
X8032Y-4682D01*
X7925Y-4637D01*
X7810Y-4637D01*
X7260Y-4637D01*
X7153Y-4682D01*
X7072Y-4763D01*
X7027Y-4870D01*
X7027Y-4985D01*
X7027Y-5335D01*
X7072Y-5442D01*
X7107Y-5477D01*
X7072Y-5513D01*
X7027Y-5620D01*
X7027Y-5735D01*
X7027Y-6085D01*
X7072Y-6192D01*
X7153Y-6273D01*
X7160Y-6276D01*
X7093Y-6343D01*
X7092Y-6343D01*
X6927Y-6178D01*
X6710Y-6088D01*
X6476Y-6087D01*
X6259Y-6177D01*
X6093Y-6343D01*
X6092Y-6343D01*
X5927Y-6178D01*
X5710Y-6088D01*
X5476Y-6087D01*
X5259Y-6177D01*
X5093Y-6343D01*
X5092Y-6343D01*
X4927Y-6178D01*
X4710Y-6088D01*
X4476Y-6087D01*
X4462Y-6093D01*
X4462Y-5327D01*
X4434Y-5186D01*
X4379Y-5104D01*
X4379Y-5031D01*
X4305Y-4852D01*
X4169Y-4715D01*
X3990Y-4641D01*
X3796Y-4641D01*
X3695Y-4682D01*
X3695Y-4592D01*
X3695Y-4300D01*
X3695Y-4055D01*
X3695Y-3763D01*
X3695Y-3647D01*
X3651Y-3541D01*
X3569Y-3459D01*
X3463Y-3415D01*
X2740Y-3415D01*
X2667Y-3487D01*
X2667Y-4127D01*
X3622Y-4127D01*
X3695Y-4055D01*
X3695Y-4300D01*
X3622Y-4227D01*
X2667Y-4227D01*
X2667Y-4867D01*
X2740Y-4940D01*
X3443Y-4940D01*
X3406Y-5030D01*
X3405Y-5224D01*
X3479Y-5403D01*
X3616Y-5540D01*
X3722Y-5584D01*
X3722Y-6093D01*
X3710Y-6088D01*
X3476Y-6087D01*
X3259Y-6177D01*
X3108Y-6327D01*
X3077Y-6327D01*
X2927Y-6178D01*
X2710Y-6088D01*
X2567Y-6087D01*
X2567Y-4867D01*
X2567Y-4227D01*
X2567Y-4127D01*
X2567Y-3487D01*
X2495Y-3415D01*
X1772Y-3415D01*
X1666Y-3459D01*
X1584Y-3541D01*
X1540Y-3647D01*
X1540Y-3763D01*
X1540Y-4055D01*
X1612Y-4127D01*
X2567Y-4127D01*
X2567Y-4227D01*
X1612Y-4227D01*
X1540Y-4300D01*
X1540Y-4592D01*
X1540Y-4708D01*
X1584Y-4814D01*
X1666Y-4896D01*
X1772Y-4940D01*
X2495Y-4940D01*
X2567Y-4867D01*
X2567Y-6087D01*
X2476Y-6087D01*
X2259Y-6177D01*
X2093Y-6343D01*
X2092Y-6343D01*
X1927Y-6178D01*
X1710Y-6088D01*
X1476Y-6087D01*
X1259Y-6177D01*
X1093Y-6343D01*
X1092Y-6343D01*
X927Y-6178D01*
X710Y-6088D01*
X476Y-6087D01*
X319Y-6152D01*
X319Y-2267D01*
X470Y-2267D01*
X542Y-2195D01*
X542Y-1727D01*
X535Y-1727D01*
X535Y-1627D01*
X542Y-1627D01*
X542Y-1160D01*
X470Y-1087D01*
X319Y-1087D01*
X319Y-319D01*
X2061Y-319D01*
X2003Y-460D01*
X2002Y-694D01*
X2092Y-911D01*
X2258Y-1077D01*
X2378Y-1127D01*
X2259Y-1177D01*
X2093Y-1343D01*
X2092Y-1343D01*
X1927Y-1178D01*
X1710Y-1088D01*
X1476Y-1087D01*
X1259Y-1177D01*
X1163Y-1273D01*
X1138Y-1213D01*
X1057Y-1132D01*
X950Y-1087D01*
X715Y-1087D01*
X642Y-1160D01*
X642Y-1627D01*
X650Y-1627D01*
X650Y-1727D01*
X642Y-1727D01*
X642Y-2195D01*
X715Y-2267D01*
X950Y-2267D01*
X1057Y-2223D01*
X1138Y-2142D01*
X1163Y-2082D01*
X1258Y-2177D01*
X1475Y-2267D01*
X1709Y-2268D01*
X1926Y-2178D01*
X2092Y-2012D01*
X2092Y-2012D01*
X2258Y-2177D01*
X2475Y-2267D01*
X2709Y-2268D01*
X2926Y-2178D01*
X3092Y-2012D01*
X3092Y-2012D01*
X3258Y-2177D01*
X3475Y-2267D01*
X3709Y-2268D01*
X3926Y-2178D01*
X4092Y-2012D01*
X4092Y-2012D01*
X4258Y-2177D01*
X4475Y-2267D01*
X4709Y-2268D01*
X4926Y-2178D01*
X5092Y-2012D01*
X5092Y-2012D01*
X5258Y-2177D01*
X5475Y-2267D01*
X5709Y-2268D01*
X5926Y-2178D01*
X6022Y-2082D01*
X6047Y-2142D01*
X6128Y-2223D01*
X6235Y-2267D01*
X6470Y-2267D01*
X6542Y-2195D01*
X6542Y-1727D01*
X6535Y-1727D01*
X6535Y-1627D01*
X6542Y-1627D01*
X6542Y-1160D01*
X6470Y-1087D01*
X6235Y-1087D01*
X6128Y-1132D01*
X6047Y-1213D01*
X6022Y-1273D01*
X5927Y-1178D01*
X5903Y-1167D01*
X5950Y-1167D01*
X6057Y-1123D01*
X6138Y-1042D01*
X6182Y-935D01*
X6182Y-820D01*
X6182Y-319D01*
X19365Y-319D01*
X19365Y-7979D01*
X19205Y-7913D01*
X18981Y-7912D01*
X18773Y-7998D01*
X18614Y-8157D01*
X18528Y-8365D01*
X18527Y-8589D01*
X18613Y-8797D01*
X18772Y-8956D01*
X18980Y-9042D01*
X19204Y-9043D01*
X19365Y-8976D01*
X19365Y-9979D01*
M02*
