G04 (created by PCBNEW (2013-mar-13)-testing) date czw, 7 sie 2014, 20:04:06*
%MOIN*%
G04 Gerber Fmt 3.4, Leading zero omitted, Abs format*
%FSLAX34Y34*%
G01*
G70*
G90*
G04 APERTURE LIST*
%ADD10C,0.005906*%
%ADD11C,0.003900*%
%ADD12C,0.005000*%
%ADD13C,0.015000*%
%ADD14C,0.006000*%
%ADD15C,0.004300*%
%ADD16C,0.008000*%
%ADD17C,0.010000*%
%ADD18R,0.035000X0.055000*%
%ADD19R,0.055000X0.035000*%
%ADD20R,0.080000X0.060000*%
%ADD21R,0.090600X0.019700*%
%ADD22R,0.098400X0.078700*%
%ADD23C,0.035400*%
%ADD24R,0.060000X0.060000*%
%ADD25C,0.060000*%
%ADD26R,0.080000X0.050000*%
%ADD27C,0.189000*%
%ADD28R,0.189000X0.189000*%
%ADD29R,0.120000X0.065000*%
%ADD30R,0.240000X0.240000*%
%ADD31C,0.055000*%
%ADD32R,0.060000X0.080000*%
%ADD33R,0.065000X0.120000*%
%ADD34C,0.070000*%
%ADD35R,0.070000X0.070000*%
%ADD36R,0.216500X0.078700*%
%ADD37R,0.078700X0.017700*%
%ADD38R,0.017700X0.078700*%
%ADD39R,0.055000X0.055000*%
%ADD40R,0.023600X0.055100*%
G04 APERTURE END LIST*
G54D10*
G54D11*
X10692Y-7877D02*
G75*
G03X10692Y-7877I-50J0D01*
G74*
G01*
X11092Y-7877D02*
X10692Y-7877D01*
X10692Y-7877D02*
X10692Y-7277D01*
X10692Y-7277D02*
X11092Y-7277D01*
X11492Y-7277D02*
X11892Y-7277D01*
X11892Y-7277D02*
X11892Y-7877D01*
X11892Y-7877D02*
X11492Y-7877D01*
X6942Y-4727D02*
G75*
G03X6942Y-4727I-50J0D01*
G74*
G01*
X6892Y-4277D02*
X6892Y-4677D01*
X6892Y-4677D02*
X6292Y-4677D01*
X6292Y-4677D02*
X6292Y-4277D01*
X6292Y-3877D02*
X6292Y-3477D01*
X6292Y-3477D02*
X6892Y-3477D01*
X6892Y-3477D02*
X6892Y-3877D01*
X9642Y-15227D02*
G75*
G03X9642Y-15227I-50J0D01*
G74*
G01*
X9592Y-14777D02*
X9592Y-15177D01*
X9592Y-15177D02*
X8992Y-15177D01*
X8992Y-15177D02*
X8992Y-14777D01*
X8992Y-14377D02*
X8992Y-13977D01*
X8992Y-13977D02*
X9592Y-13977D01*
X9592Y-13977D02*
X9592Y-14377D01*
X13342Y-6127D02*
G75*
G03X13342Y-6127I-50J0D01*
G74*
G01*
X13292Y-5677D02*
X13292Y-6077D01*
X13292Y-6077D02*
X12692Y-6077D01*
X12692Y-6077D02*
X12692Y-5677D01*
X12692Y-5277D02*
X12692Y-4877D01*
X12692Y-4877D02*
X13292Y-4877D01*
X13292Y-4877D02*
X13292Y-5277D01*
X11392Y-1577D02*
G75*
G03X11392Y-1577I-50J0D01*
G74*
G01*
X11792Y-1577D02*
X11392Y-1577D01*
X11392Y-1577D02*
X11392Y-977D01*
X11392Y-977D02*
X11792Y-977D01*
X12192Y-977D02*
X12592Y-977D01*
X12592Y-977D02*
X12592Y-1577D01*
X12592Y-1577D02*
X12192Y-1577D01*
X7792Y-2277D02*
G75*
G03X7792Y-2277I-50J0D01*
G74*
G01*
X7292Y-2277D02*
X7692Y-2277D01*
X7692Y-2277D02*
X7692Y-2877D01*
X7692Y-2877D02*
X7292Y-2877D01*
X6892Y-2877D02*
X6492Y-2877D01*
X6492Y-2877D02*
X6492Y-2277D01*
X6492Y-2277D02*
X6892Y-2277D01*
X3992Y-16777D02*
G75*
G03X3992Y-16777I-50J0D01*
G74*
G01*
X4392Y-16777D02*
X3992Y-16777D01*
X3992Y-16777D02*
X3992Y-16177D01*
X3992Y-16177D02*
X4392Y-16177D01*
X4792Y-16177D02*
X5192Y-16177D01*
X5192Y-16177D02*
X5192Y-16777D01*
X5192Y-16777D02*
X4792Y-16777D01*
X3992Y-15177D02*
G75*
G03X3992Y-15177I-50J0D01*
G74*
G01*
X4392Y-15177D02*
X3992Y-15177D01*
X3992Y-15177D02*
X3992Y-14577D01*
X3992Y-14577D02*
X4392Y-14577D01*
X4792Y-14577D02*
X5192Y-14577D01*
X5192Y-14577D02*
X5192Y-15177D01*
X5192Y-15177D02*
X4792Y-15177D01*
X14692Y-9677D02*
G75*
G03X14692Y-9677I-50J0D01*
G74*
G01*
X14192Y-9677D02*
X14592Y-9677D01*
X14592Y-9677D02*
X14592Y-10277D01*
X14592Y-10277D02*
X14192Y-10277D01*
X13792Y-10277D02*
X13392Y-10277D01*
X13392Y-10277D02*
X13392Y-9677D01*
X13392Y-9677D02*
X13792Y-9677D01*
X4442Y-10427D02*
G75*
G03X4442Y-10427I-50J0D01*
G74*
G01*
X4392Y-10877D02*
X4392Y-10477D01*
X4392Y-10477D02*
X4992Y-10477D01*
X4992Y-10477D02*
X4992Y-10877D01*
X4992Y-11277D02*
X4992Y-11677D01*
X4992Y-11677D02*
X4392Y-11677D01*
X4392Y-11677D02*
X4392Y-11277D01*
X4242Y-11727D02*
G75*
G03X4242Y-11727I-50J0D01*
G74*
G01*
X4192Y-11277D02*
X4192Y-11677D01*
X4192Y-11677D02*
X3592Y-11677D01*
X3592Y-11677D02*
X3592Y-11277D01*
X3592Y-10877D02*
X3592Y-10477D01*
X3592Y-10477D02*
X4192Y-10477D01*
X4192Y-10477D02*
X4192Y-10877D01*
X3592Y-9277D02*
G75*
G03X3592Y-9277I-50J0D01*
G74*
G01*
X3992Y-9277D02*
X3592Y-9277D01*
X3592Y-9277D02*
X3592Y-8677D01*
X3592Y-8677D02*
X3992Y-8677D01*
X4392Y-8677D02*
X4792Y-8677D01*
X4792Y-8677D02*
X4792Y-9277D01*
X4792Y-9277D02*
X4392Y-9277D01*
X9092Y-17377D02*
G75*
G03X9092Y-17377I-50J0D01*
G74*
G01*
X9492Y-17377D02*
X9092Y-17377D01*
X9092Y-17377D02*
X9092Y-16777D01*
X9092Y-16777D02*
X9492Y-16777D01*
X9892Y-16777D02*
X10292Y-16777D01*
X10292Y-16777D02*
X10292Y-17377D01*
X10292Y-17377D02*
X9892Y-17377D01*
G54D12*
X13842Y-7377D02*
X14742Y-7377D01*
X14742Y-7377D02*
X14742Y-6727D01*
X13842Y-6027D02*
X13842Y-5377D01*
X13842Y-5377D02*
X14742Y-5377D01*
X14742Y-5377D02*
X14742Y-6027D01*
X13842Y-6727D02*
X13842Y-7377D01*
G54D11*
X10242Y-9627D02*
G75*
G03X10242Y-9627I-50J0D01*
G74*
G01*
X10192Y-10077D02*
X10192Y-9677D01*
X10192Y-9677D02*
X10792Y-9677D01*
X10792Y-9677D02*
X10792Y-10077D01*
X10792Y-10477D02*
X10792Y-10877D01*
X10792Y-10877D02*
X10192Y-10877D01*
X10192Y-10877D02*
X10192Y-10477D01*
G54D13*
X75Y-9061D02*
X75Y-12093D01*
X-318Y-9061D02*
X-318Y-12093D01*
X-318Y-12093D02*
X3303Y-12093D01*
X3303Y-12093D02*
X3303Y-9061D01*
X3303Y-9061D02*
X-318Y-9061D01*
G54D10*
X12842Y-8777D02*
X13942Y-8777D01*
X13942Y-8777D02*
X13942Y-9577D01*
X13942Y-9577D02*
X12842Y-9577D01*
X12842Y-9577D02*
X12842Y-8777D01*
X8942Y-11977D02*
X10042Y-11977D01*
X10042Y-11977D02*
X10042Y-12777D01*
X10042Y-12777D02*
X8942Y-12777D01*
X8942Y-12777D02*
X8942Y-11977D01*
X10042Y-11977D02*
X11142Y-11977D01*
X11142Y-11977D02*
X11142Y-12777D01*
X11142Y-12777D02*
X10042Y-12777D01*
X10042Y-12777D02*
X10042Y-11977D01*
X10042Y-11177D02*
X11142Y-11177D01*
X11142Y-11177D02*
X11142Y-11977D01*
X11142Y-11977D02*
X10042Y-11977D01*
X10042Y-11977D02*
X10042Y-11177D01*
X9442Y-7177D02*
X10542Y-7177D01*
X10542Y-7177D02*
X10542Y-7977D01*
X10542Y-7977D02*
X9442Y-7977D01*
X9442Y-7977D02*
X9442Y-7177D01*
X14042Y-8777D02*
X15142Y-8777D01*
X15142Y-8777D02*
X15142Y-9577D01*
X15142Y-9577D02*
X14042Y-9577D01*
X14042Y-9577D02*
X14042Y-8777D01*
G54D12*
X16292Y-6627D02*
X15042Y-6627D01*
X15042Y-6627D02*
X15042Y-7327D01*
X15042Y-7327D02*
X16292Y-7327D01*
X16292Y-4827D02*
X15042Y-4827D01*
X15042Y-4827D02*
X15042Y-5527D01*
X15042Y-5527D02*
X16292Y-5527D01*
X18692Y-7427D02*
X16292Y-7427D01*
X16292Y-7427D02*
X16292Y-4727D01*
X16292Y-4727D02*
X19392Y-4727D01*
X19442Y-4727D02*
X19442Y-7427D01*
X19392Y-7427D02*
X18692Y-7427D01*
G54D11*
X15392Y-10477D02*
G75*
G03X15392Y-10477I-50J0D01*
G74*
G01*
X14892Y-10477D02*
X15292Y-10477D01*
X15292Y-10477D02*
X15292Y-11077D01*
X15292Y-11077D02*
X14892Y-11077D01*
X14492Y-11077D02*
X14092Y-11077D01*
X14092Y-11077D02*
X14092Y-10477D01*
X14092Y-10477D02*
X14492Y-10477D01*
X13992Y-8327D02*
G75*
G03X13992Y-8327I-50J0D01*
G74*
G01*
X14392Y-8327D02*
X13992Y-8327D01*
X13992Y-8327D02*
X13992Y-7727D01*
X13992Y-7727D02*
X14392Y-7727D01*
X14792Y-7727D02*
X15192Y-7727D01*
X15192Y-7727D02*
X15192Y-8327D01*
X15192Y-8327D02*
X14792Y-8327D01*
X4892Y-9477D02*
G75*
G03X4892Y-9477I-50J0D01*
G74*
G01*
X4392Y-9477D02*
X4792Y-9477D01*
X4792Y-9477D02*
X4792Y-10077D01*
X4792Y-10077D02*
X4392Y-10077D01*
X3992Y-10077D02*
X3592Y-10077D01*
X3592Y-10077D02*
X3592Y-9477D01*
X3592Y-9477D02*
X3992Y-9477D01*
X2292Y-8177D02*
G75*
G03X2292Y-8177I-50J0D01*
G74*
G01*
X2692Y-8177D02*
X2292Y-8177D01*
X2292Y-8177D02*
X2292Y-7577D01*
X2292Y-7577D02*
X2692Y-7577D01*
X3092Y-7577D02*
X3492Y-7577D01*
X3492Y-7577D02*
X3492Y-8177D01*
X3492Y-8177D02*
X3092Y-8177D01*
X10392Y-17577D02*
G75*
G03X10392Y-17577I-50J0D01*
G74*
G01*
X9892Y-17577D02*
X10292Y-17577D01*
X10292Y-17577D02*
X10292Y-18177D01*
X10292Y-18177D02*
X9892Y-18177D01*
X9492Y-18177D02*
X9092Y-18177D01*
X9092Y-18177D02*
X9092Y-17577D01*
X9092Y-17577D02*
X9492Y-17577D01*
X9892Y-19277D02*
G75*
G03X9892Y-19277I-50J0D01*
G74*
G01*
X10292Y-19277D02*
X9892Y-19277D01*
X9892Y-19277D02*
X9892Y-18677D01*
X9892Y-18677D02*
X10292Y-18677D01*
X10692Y-18677D02*
X11092Y-18677D01*
X11092Y-18677D02*
X11092Y-19277D01*
X11092Y-19277D02*
X10692Y-19277D01*
X12342Y-6127D02*
G75*
G03X12342Y-6127I-50J0D01*
G74*
G01*
X12292Y-5677D02*
X12292Y-6077D01*
X12292Y-6077D02*
X11692Y-6077D01*
X11692Y-6077D02*
X11692Y-5677D01*
X11692Y-5277D02*
X11692Y-4877D01*
X11692Y-4877D02*
X12292Y-4877D01*
X12292Y-4877D02*
X12292Y-5277D01*
G54D12*
X13592Y-2027D02*
X13592Y-2927D01*
X13592Y-2927D02*
X14242Y-2927D01*
X14942Y-2027D02*
X15592Y-2027D01*
X15592Y-2027D02*
X15592Y-2927D01*
X15592Y-2927D02*
X14942Y-2927D01*
X14242Y-2027D02*
X13592Y-2027D01*
X13592Y-3127D02*
X13592Y-4027D01*
X13592Y-4027D02*
X14242Y-4027D01*
X14942Y-3127D02*
X15592Y-3127D01*
X15592Y-3127D02*
X15592Y-4027D01*
X15592Y-4027D02*
X14942Y-4027D01*
X14242Y-3127D02*
X13592Y-3127D01*
G54D11*
X4642Y-7227D02*
G75*
G03X4642Y-7227I-50J0D01*
G74*
G01*
X4592Y-7677D02*
X4592Y-7277D01*
X4592Y-7277D02*
X5192Y-7277D01*
X5192Y-7277D02*
X5192Y-7677D01*
X5192Y-8077D02*
X5192Y-8477D01*
X5192Y-8477D02*
X4592Y-8477D01*
X4592Y-8477D02*
X4592Y-8077D01*
X3842Y-7227D02*
G75*
G03X3842Y-7227I-50J0D01*
G74*
G01*
X3792Y-7677D02*
X3792Y-7277D01*
X3792Y-7277D02*
X4392Y-7277D01*
X4392Y-7277D02*
X4392Y-7677D01*
X4392Y-8077D02*
X4392Y-8477D01*
X4392Y-8477D02*
X3792Y-8477D01*
X3792Y-8477D02*
X3792Y-8077D01*
X14092Y-977D02*
G75*
G03X14092Y-977I-50J0D01*
G74*
G01*
X13592Y-977D02*
X13992Y-977D01*
X13992Y-977D02*
X13992Y-1577D01*
X13992Y-1577D02*
X13592Y-1577D01*
X13192Y-1577D02*
X12792Y-1577D01*
X12792Y-1577D02*
X12792Y-977D01*
X12792Y-977D02*
X13192Y-977D01*
X10242Y-8227D02*
G75*
G03X10242Y-8227I-50J0D01*
G74*
G01*
X10192Y-8677D02*
X10192Y-8277D01*
X10192Y-8277D02*
X10792Y-8277D01*
X10792Y-8277D02*
X10792Y-8677D01*
X10792Y-9077D02*
X10792Y-9477D01*
X10792Y-9477D02*
X10192Y-9477D01*
X10192Y-9477D02*
X10192Y-9077D01*
X4942Y-6227D02*
G75*
G03X4942Y-6227I-50J0D01*
G74*
G01*
X4892Y-5777D02*
X4892Y-6177D01*
X4892Y-6177D02*
X4292Y-6177D01*
X4292Y-6177D02*
X4292Y-5777D01*
X4292Y-5377D02*
X4292Y-4977D01*
X4292Y-4977D02*
X4892Y-4977D01*
X4892Y-4977D02*
X4892Y-5377D01*
X5942Y-6227D02*
G75*
G03X5942Y-6227I-50J0D01*
G74*
G01*
X5892Y-5777D02*
X5892Y-6177D01*
X5892Y-6177D02*
X5292Y-6177D01*
X5292Y-6177D02*
X5292Y-5777D01*
X5292Y-5377D02*
X5292Y-4977D01*
X5292Y-4977D02*
X5892Y-4977D01*
X5892Y-4977D02*
X5892Y-5377D01*
X6942Y-6227D02*
G75*
G03X6942Y-6227I-50J0D01*
G74*
G01*
X6892Y-5777D02*
X6892Y-6177D01*
X6892Y-6177D02*
X6292Y-6177D01*
X6292Y-6177D02*
X6292Y-5777D01*
X6292Y-5377D02*
X6292Y-4977D01*
X6292Y-4977D02*
X6892Y-4977D01*
X6892Y-4977D02*
X6892Y-5377D01*
G54D12*
X7442Y-17777D02*
X7442Y-19027D01*
X7442Y-19027D02*
X8142Y-19027D01*
X8142Y-19027D02*
X8142Y-17777D01*
X5642Y-17777D02*
X5642Y-19027D01*
X5642Y-19027D02*
X6342Y-19027D01*
X6342Y-19027D02*
X6342Y-17777D01*
X8242Y-15377D02*
X8242Y-17777D01*
X8242Y-17777D02*
X5542Y-17777D01*
X5542Y-17777D02*
X5542Y-14677D01*
X5542Y-14627D02*
X8242Y-14627D01*
X8242Y-14677D02*
X8242Y-15377D01*
G54D10*
X4642Y-12727D02*
X4642Y-12877D01*
X4642Y-14027D02*
X4642Y-13877D01*
X8542Y-14027D02*
X8542Y-13877D01*
X8542Y-12727D02*
X8542Y-12877D01*
X8842Y-12377D02*
X8842Y-12877D01*
X8842Y-14377D02*
X8842Y-13877D01*
X4342Y-14377D02*
X4342Y-13877D01*
X4342Y-12377D02*
X4342Y-12877D01*
X4642Y-14027D02*
X4892Y-14277D01*
X4892Y-14277D02*
X8292Y-14277D01*
X8292Y-14277D02*
X8542Y-14027D01*
X8542Y-12727D02*
X8292Y-12477D01*
X8292Y-12477D02*
X4892Y-12477D01*
X4892Y-12477D02*
X4642Y-12727D01*
X8842Y-14377D02*
X4342Y-14377D01*
X4342Y-12377D02*
X8842Y-12377D01*
G54D14*
X9572Y-10867D02*
X9122Y-10867D01*
X9572Y-8687D02*
X9132Y-8687D01*
X9572Y-10867D02*
X9572Y-8687D01*
X8692Y-11337D02*
X8692Y-11767D01*
X6482Y-11347D02*
X6482Y-11767D01*
X6472Y-11767D02*
X8692Y-11777D01*
X6492Y-7797D02*
X8662Y-7787D01*
X6062Y-8487D02*
X6062Y-11317D01*
X8672Y-7797D02*
X8672Y-8207D01*
X6312Y-8247D02*
X9092Y-8247D01*
X9112Y-11327D02*
X9112Y-8287D01*
X6062Y-11327D02*
X9062Y-11327D01*
X5612Y-8657D02*
X5612Y-10877D01*
X5612Y-10877D02*
X6062Y-10877D01*
X6066Y-8477D02*
X6296Y-8247D01*
X5614Y-8657D02*
X6066Y-8657D01*
X6492Y-8247D02*
X6492Y-7795D01*
X6663Y-8651D02*
G75*
G03X6663Y-8651I-188J0D01*
G74*
G01*
G54D13*
X10942Y-16477D02*
X14442Y-16477D01*
X14442Y-16477D02*
X14442Y-18477D01*
X14442Y-18477D02*
X10942Y-18477D01*
X10942Y-18477D02*
X10942Y-16477D01*
X10942Y-17227D02*
X11442Y-17227D01*
X11442Y-17227D02*
X11442Y-17727D01*
X11442Y-17727D02*
X10942Y-17727D01*
G54D12*
X11142Y-3977D02*
X11142Y-4027D01*
X11142Y-4027D02*
X13242Y-4027D01*
X13242Y-2527D02*
X11142Y-2527D01*
X11142Y-2527D02*
X11142Y-3977D01*
X11142Y-3077D02*
X11342Y-3077D01*
X11342Y-3077D02*
X11342Y-3477D01*
X11342Y-3477D02*
X11142Y-3477D01*
X13242Y-2527D02*
X13242Y-4027D01*
G54D10*
X1975Y-9711D02*
G75*
G03X1975Y-9711I-147J0D01*
G74*
G01*
X1975Y-11443D02*
G75*
G03X1975Y-11443I-147J0D01*
G74*
G01*
X13022Y-8957D02*
X13022Y-9398D01*
X13763Y-9398D01*
X13763Y-8957D01*
X13022Y-8957D01*
X9122Y-12157D02*
X9122Y-12598D01*
X9863Y-12598D01*
X9863Y-12157D01*
X9122Y-12157D01*
X10222Y-12157D02*
X10222Y-12598D01*
X10963Y-12598D01*
X10963Y-12157D01*
X10222Y-12157D01*
X10222Y-11357D02*
X10222Y-11798D01*
X10963Y-11798D01*
X10963Y-11357D01*
X10222Y-11357D01*
X9622Y-7357D02*
X9622Y-7798D01*
X10363Y-7798D01*
X10363Y-7357D01*
X9622Y-7357D01*
X14222Y-8957D02*
X14222Y-9398D01*
X14963Y-9398D01*
X14963Y-8957D01*
X14222Y-8957D01*
X11447Y-18732D02*
X11447Y-19223D01*
X11938Y-19223D01*
X11938Y-18732D01*
X11447Y-18732D01*
X12938Y-18977D02*
G75*
G03X12938Y-18977I-245J0D01*
G74*
G01*
X13938Y-18977D02*
G75*
G03X13938Y-18977I-245J0D01*
G74*
G01*
X13938Y-15977D02*
G75*
G03X13938Y-15977I-245J0D01*
G74*
G01*
X12938Y-15977D02*
G75*
G03X12938Y-15977I-245J0D01*
G74*
G01*
X11938Y-15977D02*
G75*
G03X11938Y-15977I-245J0D01*
G74*
G01*
G54D15*
X10867Y-7070D02*
X10857Y-7079D01*
X10829Y-7089D01*
X10810Y-7089D01*
X10782Y-7079D01*
X10763Y-7060D01*
X10754Y-7042D01*
X10745Y-7004D01*
X10745Y-6976D01*
X10754Y-6939D01*
X10763Y-6920D01*
X10782Y-6901D01*
X10810Y-6892D01*
X10829Y-6892D01*
X10857Y-6901D01*
X10867Y-6910D01*
X10932Y-6892D02*
X11054Y-6892D01*
X10989Y-6967D01*
X11017Y-6967D01*
X11036Y-6976D01*
X11045Y-6985D01*
X11054Y-7004D01*
X11054Y-7051D01*
X11045Y-7070D01*
X11036Y-7079D01*
X11017Y-7089D01*
X10960Y-7089D01*
X10942Y-7079D01*
X10932Y-7070D01*
X11395Y-7089D02*
X11282Y-7089D01*
X11338Y-7089D02*
X11338Y-6892D01*
X11320Y-6920D01*
X11301Y-6939D01*
X11282Y-6948D01*
X11517Y-6892D02*
X11535Y-6892D01*
X11554Y-6901D01*
X11563Y-6910D01*
X11573Y-6929D01*
X11582Y-6967D01*
X11582Y-7014D01*
X11573Y-7051D01*
X11563Y-7070D01*
X11554Y-7079D01*
X11535Y-7089D01*
X11517Y-7089D01*
X11498Y-7079D01*
X11488Y-7070D01*
X11479Y-7051D01*
X11470Y-7014D01*
X11470Y-6967D01*
X11479Y-6929D01*
X11488Y-6910D01*
X11498Y-6901D01*
X11517Y-6892D01*
X11704Y-6892D02*
X11723Y-6892D01*
X11742Y-6901D01*
X11751Y-6910D01*
X11760Y-6929D01*
X11770Y-6967D01*
X11770Y-7014D01*
X11760Y-7051D01*
X11751Y-7070D01*
X11742Y-7079D01*
X11723Y-7089D01*
X11704Y-7089D01*
X11685Y-7079D01*
X11676Y-7070D01*
X11667Y-7051D01*
X11657Y-7014D01*
X11657Y-6967D01*
X11667Y-6929D01*
X11676Y-6910D01*
X11685Y-6901D01*
X11704Y-6892D01*
X11854Y-6957D02*
X11854Y-7089D01*
X11854Y-6976D02*
X11864Y-6967D01*
X11882Y-6957D01*
X11911Y-6957D01*
X11929Y-6967D01*
X11939Y-6985D01*
X11939Y-7089D01*
X12098Y-6985D02*
X12033Y-6985D01*
X12033Y-7089D02*
X12033Y-6892D01*
X12126Y-6892D01*
X6070Y-4532D02*
X6079Y-4542D01*
X6089Y-4570D01*
X6089Y-4589D01*
X6079Y-4617D01*
X6060Y-4636D01*
X6042Y-4645D01*
X6004Y-4654D01*
X5976Y-4654D01*
X5939Y-4645D01*
X5920Y-4636D01*
X5901Y-4617D01*
X5892Y-4589D01*
X5892Y-4570D01*
X5901Y-4542D01*
X5910Y-4532D01*
X5957Y-4363D02*
X6089Y-4363D01*
X5882Y-4410D02*
X6023Y-4457D01*
X6023Y-4335D01*
X6089Y-4004D02*
X6089Y-4117D01*
X6089Y-4061D02*
X5892Y-4061D01*
X5920Y-4079D01*
X5939Y-4098D01*
X5948Y-4117D01*
X5892Y-3882D02*
X5892Y-3864D01*
X5901Y-3845D01*
X5910Y-3836D01*
X5929Y-3826D01*
X5967Y-3817D01*
X6014Y-3817D01*
X6051Y-3826D01*
X6070Y-3836D01*
X6079Y-3845D01*
X6089Y-3864D01*
X6089Y-3882D01*
X6079Y-3901D01*
X6070Y-3911D01*
X6051Y-3920D01*
X6014Y-3929D01*
X5967Y-3929D01*
X5929Y-3920D01*
X5910Y-3911D01*
X5901Y-3901D01*
X5892Y-3882D01*
X5892Y-3695D02*
X5892Y-3676D01*
X5901Y-3657D01*
X5910Y-3648D01*
X5929Y-3639D01*
X5967Y-3629D01*
X6014Y-3629D01*
X6051Y-3639D01*
X6070Y-3648D01*
X6079Y-3657D01*
X6089Y-3676D01*
X6089Y-3695D01*
X6079Y-3714D01*
X6070Y-3723D01*
X6051Y-3732D01*
X6014Y-3742D01*
X5967Y-3742D01*
X5929Y-3732D01*
X5910Y-3723D01*
X5901Y-3714D01*
X5892Y-3695D01*
X5957Y-3545D02*
X6089Y-3545D01*
X5976Y-3545D02*
X5967Y-3535D01*
X5957Y-3517D01*
X5957Y-3488D01*
X5967Y-3470D01*
X5985Y-3460D01*
X6089Y-3460D01*
X5985Y-3301D02*
X5985Y-3366D01*
X6089Y-3366D02*
X5892Y-3366D01*
X5892Y-3273D01*
X9970Y-15032D02*
X9979Y-15042D01*
X9989Y-15070D01*
X9989Y-15089D01*
X9979Y-15117D01*
X9960Y-15136D01*
X9942Y-15145D01*
X9904Y-15154D01*
X9876Y-15154D01*
X9839Y-15145D01*
X9820Y-15136D01*
X9801Y-15117D01*
X9792Y-15089D01*
X9792Y-15070D01*
X9801Y-15042D01*
X9810Y-15032D01*
X9792Y-14854D02*
X9792Y-14948D01*
X9885Y-14957D01*
X9876Y-14948D01*
X9867Y-14929D01*
X9867Y-14882D01*
X9876Y-14863D01*
X9885Y-14854D01*
X9904Y-14845D01*
X9951Y-14845D01*
X9970Y-14854D01*
X9979Y-14863D01*
X9989Y-14882D01*
X9989Y-14929D01*
X9979Y-14948D01*
X9970Y-14957D01*
X9810Y-14604D02*
X9801Y-14595D01*
X9792Y-14576D01*
X9792Y-14529D01*
X9801Y-14511D01*
X9810Y-14501D01*
X9829Y-14492D01*
X9848Y-14492D01*
X9876Y-14501D01*
X9989Y-14614D01*
X9989Y-14492D01*
X9792Y-14426D02*
X9792Y-14295D01*
X9989Y-14379D01*
X9989Y-14220D02*
X9792Y-14220D01*
X9792Y-14145D01*
X9801Y-14126D01*
X9810Y-14117D01*
X9829Y-14107D01*
X9857Y-14107D01*
X9876Y-14117D01*
X9885Y-14126D01*
X9895Y-14145D01*
X9895Y-14220D01*
X9857Y-14051D02*
X9857Y-13976D01*
X9989Y-14023D02*
X9820Y-14023D01*
X9801Y-14013D01*
X9792Y-13995D01*
X9792Y-13976D01*
X12570Y-5932D02*
X12579Y-5942D01*
X12589Y-5970D01*
X12589Y-5989D01*
X12579Y-6017D01*
X12560Y-6036D01*
X12542Y-6045D01*
X12504Y-6054D01*
X12476Y-6054D01*
X12439Y-6045D01*
X12420Y-6036D01*
X12401Y-6017D01*
X12392Y-5989D01*
X12392Y-5970D01*
X12401Y-5942D01*
X12410Y-5932D01*
X12392Y-5763D02*
X12392Y-5801D01*
X12401Y-5820D01*
X12410Y-5829D01*
X12439Y-5848D01*
X12476Y-5857D01*
X12551Y-5857D01*
X12570Y-5848D01*
X12579Y-5839D01*
X12589Y-5820D01*
X12589Y-5782D01*
X12579Y-5763D01*
X12570Y-5754D01*
X12551Y-5745D01*
X12504Y-5745D01*
X12485Y-5754D01*
X12476Y-5763D01*
X12467Y-5782D01*
X12467Y-5820D01*
X12476Y-5839D01*
X12485Y-5848D01*
X12504Y-5857D01*
X12589Y-5311D02*
X12589Y-5423D01*
X12589Y-5367D02*
X12392Y-5367D01*
X12420Y-5386D01*
X12439Y-5404D01*
X12448Y-5423D01*
X12392Y-5189D02*
X12392Y-5170D01*
X12401Y-5151D01*
X12410Y-5142D01*
X12429Y-5132D01*
X12467Y-5123D01*
X12514Y-5123D01*
X12551Y-5132D01*
X12570Y-5142D01*
X12579Y-5151D01*
X12589Y-5170D01*
X12589Y-5189D01*
X12579Y-5207D01*
X12570Y-5217D01*
X12551Y-5226D01*
X12514Y-5236D01*
X12467Y-5236D01*
X12429Y-5226D01*
X12410Y-5217D01*
X12401Y-5207D01*
X12392Y-5189D01*
X12457Y-5039D02*
X12589Y-5039D01*
X12476Y-5039D02*
X12467Y-5029D01*
X12457Y-5010D01*
X12457Y-4982D01*
X12467Y-4963D01*
X12485Y-4954D01*
X12589Y-4954D01*
X12485Y-4795D02*
X12485Y-4860D01*
X12589Y-4860D02*
X12392Y-4860D01*
X12392Y-4766D01*
X11367Y-870D02*
X11357Y-879D01*
X11329Y-889D01*
X11310Y-889D01*
X11282Y-879D01*
X11263Y-860D01*
X11254Y-842D01*
X11245Y-804D01*
X11245Y-776D01*
X11254Y-739D01*
X11263Y-720D01*
X11282Y-701D01*
X11310Y-692D01*
X11329Y-692D01*
X11357Y-701D01*
X11367Y-710D01*
X11432Y-692D02*
X11564Y-692D01*
X11479Y-889D01*
X12088Y-889D02*
X11976Y-889D01*
X12032Y-889D02*
X12032Y-692D01*
X12013Y-720D01*
X11995Y-739D01*
X11976Y-748D01*
X12210Y-692D02*
X12229Y-692D01*
X12248Y-701D01*
X12257Y-710D01*
X12267Y-729D01*
X12276Y-767D01*
X12276Y-814D01*
X12267Y-851D01*
X12257Y-870D01*
X12248Y-879D01*
X12229Y-889D01*
X12210Y-889D01*
X12192Y-879D01*
X12182Y-870D01*
X12173Y-851D01*
X12163Y-814D01*
X12163Y-767D01*
X12173Y-729D01*
X12182Y-710D01*
X12192Y-701D01*
X12210Y-692D01*
X12360Y-757D02*
X12360Y-889D01*
X12360Y-776D02*
X12370Y-767D01*
X12389Y-757D01*
X12417Y-757D01*
X12436Y-767D01*
X12445Y-785D01*
X12445Y-889D01*
X12604Y-785D02*
X12539Y-785D01*
X12539Y-889D02*
X12539Y-692D01*
X12633Y-692D01*
X6473Y-3170D02*
X6463Y-3179D01*
X6435Y-3189D01*
X6417Y-3189D01*
X6388Y-3179D01*
X6370Y-3160D01*
X6360Y-3142D01*
X6351Y-3104D01*
X6351Y-3076D01*
X6360Y-3039D01*
X6370Y-3020D01*
X6388Y-3001D01*
X6417Y-2992D01*
X6435Y-2992D01*
X6463Y-3001D01*
X6473Y-3010D01*
X6660Y-3189D02*
X6548Y-3189D01*
X6604Y-3189D02*
X6604Y-2992D01*
X6585Y-3020D01*
X6567Y-3039D01*
X6548Y-3048D01*
X6782Y-2992D02*
X6801Y-2992D01*
X6820Y-3001D01*
X6829Y-3010D01*
X6839Y-3029D01*
X6848Y-3067D01*
X6848Y-3114D01*
X6839Y-3151D01*
X6829Y-3170D01*
X6820Y-3179D01*
X6801Y-3189D01*
X6782Y-3189D01*
X6764Y-3179D01*
X6754Y-3170D01*
X6745Y-3151D01*
X6736Y-3114D01*
X6736Y-3067D01*
X6745Y-3029D01*
X6754Y-3010D01*
X6764Y-3001D01*
X6782Y-2992D01*
X7073Y-2992D02*
X7195Y-2992D01*
X7129Y-3067D01*
X7157Y-3067D01*
X7176Y-3076D01*
X7185Y-3085D01*
X7195Y-3104D01*
X7195Y-3151D01*
X7185Y-3170D01*
X7176Y-3179D01*
X7157Y-3189D01*
X7101Y-3189D01*
X7082Y-3179D01*
X7073Y-3170D01*
X7260Y-2992D02*
X7382Y-2992D01*
X7317Y-3067D01*
X7345Y-3067D01*
X7363Y-3076D01*
X7373Y-3085D01*
X7382Y-3104D01*
X7382Y-3151D01*
X7373Y-3170D01*
X7363Y-3179D01*
X7345Y-3189D01*
X7288Y-3189D01*
X7270Y-3179D01*
X7260Y-3170D01*
X7504Y-2992D02*
X7523Y-2992D01*
X7542Y-3001D01*
X7551Y-3010D01*
X7560Y-3029D01*
X7570Y-3067D01*
X7570Y-3114D01*
X7560Y-3151D01*
X7551Y-3170D01*
X7542Y-3179D01*
X7523Y-3189D01*
X7504Y-3189D01*
X7485Y-3179D01*
X7476Y-3170D01*
X7467Y-3151D01*
X7457Y-3114D01*
X7457Y-3067D01*
X7467Y-3029D01*
X7476Y-3010D01*
X7485Y-3001D01*
X7504Y-2992D01*
X7654Y-3057D02*
X7654Y-3189D01*
X7654Y-3076D02*
X7664Y-3067D01*
X7682Y-3057D01*
X7711Y-3057D01*
X7729Y-3067D01*
X7739Y-3085D01*
X7739Y-3189D01*
X7898Y-3085D02*
X7833Y-3085D01*
X7833Y-3189D02*
X7833Y-2992D01*
X7926Y-2992D01*
X3973Y-15970D02*
X3963Y-15979D01*
X3935Y-15989D01*
X3917Y-15989D01*
X3888Y-15979D01*
X3870Y-15960D01*
X3860Y-15942D01*
X3851Y-15904D01*
X3851Y-15876D01*
X3860Y-15839D01*
X3870Y-15820D01*
X3888Y-15801D01*
X3917Y-15792D01*
X3935Y-15792D01*
X3963Y-15801D01*
X3973Y-15810D01*
X4160Y-15989D02*
X4048Y-15989D01*
X4104Y-15989D02*
X4104Y-15792D01*
X4085Y-15820D01*
X4067Y-15839D01*
X4048Y-15848D01*
X4348Y-15989D02*
X4236Y-15989D01*
X4292Y-15989D02*
X4292Y-15792D01*
X4273Y-15820D01*
X4254Y-15839D01*
X4236Y-15848D01*
X4595Y-15989D02*
X4482Y-15989D01*
X4538Y-15989D02*
X4538Y-15792D01*
X4520Y-15820D01*
X4501Y-15839D01*
X4482Y-15848D01*
X4717Y-15792D02*
X4735Y-15792D01*
X4754Y-15801D01*
X4763Y-15810D01*
X4773Y-15829D01*
X4782Y-15867D01*
X4782Y-15914D01*
X4773Y-15951D01*
X4763Y-15970D01*
X4754Y-15979D01*
X4735Y-15989D01*
X4717Y-15989D01*
X4698Y-15979D01*
X4688Y-15970D01*
X4679Y-15951D01*
X4670Y-15914D01*
X4670Y-15867D01*
X4679Y-15829D01*
X4688Y-15810D01*
X4698Y-15801D01*
X4717Y-15792D01*
X4904Y-15792D02*
X4923Y-15792D01*
X4942Y-15801D01*
X4951Y-15810D01*
X4960Y-15829D01*
X4970Y-15867D01*
X4970Y-15914D01*
X4960Y-15951D01*
X4951Y-15970D01*
X4942Y-15979D01*
X4923Y-15989D01*
X4904Y-15989D01*
X4885Y-15979D01*
X4876Y-15970D01*
X4867Y-15951D01*
X4857Y-15914D01*
X4857Y-15867D01*
X4867Y-15829D01*
X4876Y-15810D01*
X4885Y-15801D01*
X4904Y-15792D01*
X5054Y-15857D02*
X5054Y-15989D01*
X5054Y-15876D02*
X5064Y-15867D01*
X5082Y-15857D01*
X5111Y-15857D01*
X5129Y-15867D01*
X5139Y-15885D01*
X5139Y-15989D01*
X5298Y-15885D02*
X5233Y-15885D01*
X5233Y-15989D02*
X5233Y-15792D01*
X5326Y-15792D01*
X4073Y-14370D02*
X4063Y-14379D01*
X4035Y-14389D01*
X4017Y-14389D01*
X3988Y-14379D01*
X3970Y-14360D01*
X3960Y-14342D01*
X3951Y-14304D01*
X3951Y-14276D01*
X3960Y-14239D01*
X3970Y-14220D01*
X3988Y-14201D01*
X4017Y-14192D01*
X4035Y-14192D01*
X4063Y-14201D01*
X4073Y-14210D01*
X4260Y-14389D02*
X4148Y-14389D01*
X4204Y-14389D02*
X4204Y-14192D01*
X4185Y-14220D01*
X4167Y-14239D01*
X4148Y-14248D01*
X4336Y-14210D02*
X4345Y-14201D01*
X4364Y-14192D01*
X4411Y-14192D01*
X4429Y-14201D01*
X4439Y-14210D01*
X4448Y-14229D01*
X4448Y-14248D01*
X4439Y-14276D01*
X4326Y-14389D01*
X4448Y-14389D01*
X4676Y-14210D02*
X4685Y-14201D01*
X4704Y-14192D01*
X4751Y-14192D01*
X4770Y-14201D01*
X4779Y-14210D01*
X4788Y-14229D01*
X4788Y-14248D01*
X4779Y-14276D01*
X4666Y-14389D01*
X4788Y-14389D01*
X4854Y-14192D02*
X4985Y-14192D01*
X4901Y-14389D01*
X5060Y-14257D02*
X5060Y-14454D01*
X5060Y-14267D02*
X5079Y-14257D01*
X5117Y-14257D01*
X5136Y-14267D01*
X5145Y-14276D01*
X5154Y-14295D01*
X5154Y-14351D01*
X5145Y-14370D01*
X5136Y-14379D01*
X5117Y-14389D01*
X5079Y-14389D01*
X5060Y-14379D01*
X5304Y-14285D02*
X5239Y-14285D01*
X5239Y-14389D02*
X5239Y-14192D01*
X5333Y-14192D01*
X14873Y-9770D02*
X14863Y-9779D01*
X14835Y-9789D01*
X14817Y-9789D01*
X14788Y-9779D01*
X14770Y-9760D01*
X14760Y-9742D01*
X14751Y-9704D01*
X14751Y-9676D01*
X14760Y-9639D01*
X14770Y-9620D01*
X14788Y-9601D01*
X14817Y-9592D01*
X14835Y-9592D01*
X14863Y-9601D01*
X14873Y-9610D01*
X15060Y-9789D02*
X14948Y-9789D01*
X15004Y-9789D02*
X15004Y-9592D01*
X14985Y-9620D01*
X14967Y-9639D01*
X14948Y-9648D01*
X15126Y-9592D02*
X15248Y-9592D01*
X15182Y-9667D01*
X15211Y-9667D01*
X15229Y-9676D01*
X15239Y-9685D01*
X15248Y-9704D01*
X15248Y-9751D01*
X15239Y-9770D01*
X15229Y-9779D01*
X15211Y-9789D01*
X15154Y-9789D01*
X15136Y-9779D01*
X15126Y-9770D01*
X15060Y-10170D02*
X15051Y-10179D01*
X15023Y-10189D01*
X15004Y-10189D01*
X14976Y-10179D01*
X14957Y-10160D01*
X14948Y-10142D01*
X14939Y-10104D01*
X14939Y-10076D01*
X14948Y-10039D01*
X14957Y-10020D01*
X14976Y-10001D01*
X15004Y-9992D01*
X15023Y-9992D01*
X15051Y-10001D01*
X15060Y-10010D01*
X4689Y-12345D02*
X4492Y-12345D01*
X4492Y-12298D01*
X4501Y-12270D01*
X4520Y-12251D01*
X4539Y-12242D01*
X4576Y-12232D01*
X4604Y-12232D01*
X4642Y-12242D01*
X4660Y-12251D01*
X4679Y-12270D01*
X4689Y-12298D01*
X4689Y-12345D01*
X4510Y-12157D02*
X4501Y-12148D01*
X4492Y-12129D01*
X4492Y-12082D01*
X4501Y-12063D01*
X4510Y-12054D01*
X4529Y-12045D01*
X4548Y-12045D01*
X4576Y-12054D01*
X4689Y-12167D01*
X4689Y-12045D01*
X4989Y-12226D02*
X4989Y-12320D01*
X4792Y-12320D01*
X4885Y-12160D02*
X4885Y-12095D01*
X4989Y-12067D02*
X4989Y-12160D01*
X4792Y-12160D01*
X4792Y-12067D01*
X4989Y-11982D02*
X4792Y-11982D01*
X4792Y-11935D01*
X4801Y-11907D01*
X4820Y-11888D01*
X4839Y-11879D01*
X4876Y-11870D01*
X4904Y-11870D01*
X4942Y-11879D01*
X4960Y-11888D01*
X4979Y-11907D01*
X4989Y-11935D01*
X4989Y-11982D01*
X3889Y-12345D02*
X3692Y-12345D01*
X3692Y-12298D01*
X3701Y-12270D01*
X3720Y-12251D01*
X3739Y-12242D01*
X3776Y-12232D01*
X3804Y-12232D01*
X3842Y-12242D01*
X3860Y-12251D01*
X3879Y-12270D01*
X3889Y-12298D01*
X3889Y-12345D01*
X3692Y-12167D02*
X3692Y-12045D01*
X3767Y-12110D01*
X3767Y-12082D01*
X3776Y-12063D01*
X3785Y-12054D01*
X3804Y-12045D01*
X3851Y-12045D01*
X3870Y-12054D01*
X3879Y-12063D01*
X3889Y-12082D01*
X3889Y-12139D01*
X3879Y-12157D01*
X3870Y-12167D01*
X3992Y-12343D02*
X3992Y-12221D01*
X4067Y-12287D01*
X4067Y-12259D01*
X4076Y-12240D01*
X4085Y-12231D01*
X4104Y-12221D01*
X4151Y-12221D01*
X4170Y-12231D01*
X4179Y-12240D01*
X4189Y-12259D01*
X4189Y-12315D01*
X4179Y-12334D01*
X4170Y-12343D01*
X3992Y-12165D02*
X4189Y-12099D01*
X3992Y-12034D01*
X3992Y-11884D02*
X3992Y-11921D01*
X4001Y-11940D01*
X4010Y-11949D01*
X4039Y-11968D01*
X4076Y-11978D01*
X4151Y-11978D01*
X4170Y-11968D01*
X4179Y-11959D01*
X4189Y-11940D01*
X4189Y-11903D01*
X4179Y-11884D01*
X4170Y-11874D01*
X4151Y-11865D01*
X4104Y-11865D01*
X4085Y-11874D01*
X4076Y-11884D01*
X4067Y-11903D01*
X4067Y-11940D01*
X4076Y-11959D01*
X4085Y-11968D01*
X4104Y-11978D01*
X4854Y-8789D02*
X4854Y-8592D01*
X4901Y-8592D01*
X4929Y-8601D01*
X4948Y-8620D01*
X4957Y-8639D01*
X4967Y-8676D01*
X4967Y-8704D01*
X4957Y-8742D01*
X4948Y-8760D01*
X4929Y-8779D01*
X4901Y-8789D01*
X4854Y-8789D01*
X5136Y-8657D02*
X5136Y-8789D01*
X5089Y-8582D02*
X5042Y-8723D01*
X5164Y-8723D01*
X4092Y-9143D02*
X4092Y-9021D01*
X4167Y-9087D01*
X4167Y-9059D01*
X4176Y-9040D01*
X4185Y-9031D01*
X4204Y-9021D01*
X4251Y-9021D01*
X4270Y-9031D01*
X4279Y-9040D01*
X4289Y-9059D01*
X4289Y-9115D01*
X4279Y-9134D01*
X4270Y-9143D01*
X4092Y-8965D02*
X4289Y-8899D01*
X4092Y-8834D01*
X4092Y-8684D02*
X4092Y-8721D01*
X4101Y-8740D01*
X4110Y-8749D01*
X4139Y-8768D01*
X4176Y-8778D01*
X4251Y-8778D01*
X4270Y-8768D01*
X4279Y-8759D01*
X4289Y-8740D01*
X4289Y-8703D01*
X4279Y-8684D01*
X4270Y-8674D01*
X4251Y-8665D01*
X4204Y-8665D01*
X4185Y-8674D01*
X4176Y-8684D01*
X4167Y-8703D01*
X4167Y-8740D01*
X4176Y-8759D01*
X4185Y-8768D01*
X4204Y-8778D01*
X10454Y-16889D02*
X10454Y-16692D01*
X10501Y-16692D01*
X10529Y-16701D01*
X10548Y-16720D01*
X10557Y-16739D01*
X10567Y-16776D01*
X10567Y-16804D01*
X10557Y-16842D01*
X10548Y-16860D01*
X10529Y-16879D01*
X10501Y-16889D01*
X10454Y-16889D01*
X10745Y-16692D02*
X10651Y-16692D01*
X10642Y-16785D01*
X10651Y-16776D01*
X10670Y-16767D01*
X10717Y-16767D01*
X10736Y-16776D01*
X10745Y-16785D01*
X10754Y-16804D01*
X10754Y-16851D01*
X10745Y-16870D01*
X10736Y-16879D01*
X10717Y-16889D01*
X10670Y-16889D01*
X10651Y-16879D01*
X10642Y-16870D01*
X10573Y-17189D02*
X10479Y-17189D01*
X10479Y-16992D01*
X10639Y-17085D02*
X10704Y-17085D01*
X10732Y-17189D02*
X10639Y-17189D01*
X10639Y-16992D01*
X10732Y-16992D01*
X10817Y-17189D02*
X10817Y-16992D01*
X10864Y-16992D01*
X10892Y-17001D01*
X10911Y-17020D01*
X10920Y-17039D01*
X10929Y-17076D01*
X10929Y-17104D01*
X10920Y-17142D01*
X10911Y-17160D01*
X10892Y-17179D01*
X10864Y-17189D01*
X10817Y-17189D01*
G54D12*
X13735Y-7421D02*
X13435Y-7421D01*
X13435Y-7350D01*
X13450Y-7307D01*
X13478Y-7278D01*
X13507Y-7264D01*
X13564Y-7250D01*
X13607Y-7250D01*
X13664Y-7264D01*
X13692Y-7278D01*
X13721Y-7307D01*
X13735Y-7350D01*
X13735Y-7421D01*
X13435Y-6992D02*
X13435Y-7050D01*
X13450Y-7078D01*
X13464Y-7092D01*
X13507Y-7121D01*
X13564Y-7135D01*
X13678Y-7135D01*
X13707Y-7121D01*
X13721Y-7107D01*
X13735Y-7078D01*
X13735Y-7021D01*
X13721Y-6992D01*
X13707Y-6978D01*
X13678Y-6964D01*
X13607Y-6964D01*
X13578Y-6978D01*
X13564Y-6992D01*
X13550Y-7021D01*
X13550Y-7078D01*
X13564Y-7107D01*
X13578Y-7121D01*
X13607Y-7135D01*
G54D15*
X10985Y-10864D02*
X10985Y-10929D01*
X11089Y-10929D02*
X10892Y-10929D01*
X10892Y-10836D01*
X10985Y-10695D02*
X10995Y-10667D01*
X11004Y-10657D01*
X11023Y-10648D01*
X11051Y-10648D01*
X11070Y-10657D01*
X11079Y-10667D01*
X11089Y-10685D01*
X11089Y-10760D01*
X10892Y-10760D01*
X10892Y-10695D01*
X10901Y-10676D01*
X10910Y-10667D01*
X10929Y-10657D01*
X10948Y-10657D01*
X10967Y-10667D01*
X10976Y-10676D01*
X10985Y-10695D01*
X10985Y-10760D01*
X11089Y-10460D02*
X11089Y-10573D01*
X11089Y-10517D02*
X10892Y-10517D01*
X10920Y-10535D01*
X10939Y-10554D01*
X10948Y-10573D01*
X11089Y-10129D02*
X11089Y-10242D01*
X11089Y-10186D02*
X10892Y-10186D01*
X10920Y-10204D01*
X10939Y-10223D01*
X10948Y-10242D01*
X10892Y-10007D02*
X10892Y-9989D01*
X10901Y-9970D01*
X10910Y-9960D01*
X10929Y-9951D01*
X10967Y-9942D01*
X11014Y-9942D01*
X11051Y-9951D01*
X11070Y-9960D01*
X11079Y-9970D01*
X11089Y-9989D01*
X11089Y-10007D01*
X11079Y-10026D01*
X11070Y-10036D01*
X11051Y-10045D01*
X11014Y-10054D01*
X10967Y-10054D01*
X10929Y-10045D01*
X10910Y-10036D01*
X10901Y-10026D01*
X10892Y-10007D01*
X10957Y-9773D02*
X11089Y-9773D01*
X10957Y-9857D02*
X11060Y-9857D01*
X11079Y-9848D01*
X11089Y-9829D01*
X11089Y-9801D01*
X11079Y-9782D01*
X11070Y-9773D01*
X11089Y-9679D02*
X10892Y-9679D01*
X10985Y-9679D02*
X10985Y-9566D01*
X11089Y-9566D02*
X10892Y-9566D01*
G54D16*
X466Y-13080D02*
X466Y-13366D01*
X447Y-13423D01*
X409Y-13461D01*
X352Y-13480D01*
X314Y-13480D01*
X866Y-13480D02*
X638Y-13480D01*
X752Y-13480D02*
X752Y-13080D01*
X714Y-13138D01*
X676Y-13176D01*
X638Y-13195D01*
G54D17*
G54D16*
X17661Y-4573D02*
X17623Y-4550D01*
X17585Y-4502D01*
X17528Y-4430D01*
X17490Y-4407D01*
X17452Y-4407D01*
X17471Y-4526D02*
X17433Y-4502D01*
X17395Y-4454D01*
X17376Y-4359D01*
X17376Y-4192D01*
X17395Y-4097D01*
X17433Y-4050D01*
X17471Y-4026D01*
X17547Y-4026D01*
X17585Y-4050D01*
X17623Y-4097D01*
X17642Y-4192D01*
X17642Y-4359D01*
X17623Y-4454D01*
X17585Y-4502D01*
X17547Y-4526D01*
X17471Y-4526D01*
X18023Y-4526D02*
X17795Y-4526D01*
X17909Y-4526D02*
X17909Y-4026D01*
X17871Y-4097D01*
X17833Y-4145D01*
X17795Y-4169D01*
X16566Y-7880D02*
X16566Y-7480D01*
X16795Y-7880D01*
X16795Y-7480D01*
X16985Y-7728D02*
X17290Y-7728D01*
X17480Y-7880D02*
X17480Y-7480D01*
X17614Y-7766D01*
X17747Y-7480D01*
X17747Y-7880D01*
X17995Y-7880D02*
X17957Y-7861D01*
X17938Y-7842D01*
X17919Y-7804D01*
X17919Y-7690D01*
X17938Y-7652D01*
X17957Y-7633D01*
X17995Y-7614D01*
X18052Y-7614D01*
X18090Y-7633D01*
X18109Y-7652D01*
X18128Y-7690D01*
X18128Y-7804D01*
X18109Y-7842D01*
X18090Y-7861D01*
X18052Y-7880D01*
X17995Y-7880D01*
X18280Y-7861D02*
X18319Y-7880D01*
X18395Y-7880D01*
X18433Y-7861D01*
X18452Y-7823D01*
X18452Y-7804D01*
X18433Y-7766D01*
X18395Y-7747D01*
X18338Y-7747D01*
X18300Y-7728D01*
X18280Y-7690D01*
X18280Y-7671D01*
X18300Y-7633D01*
X18338Y-7614D01*
X18395Y-7614D01*
X18433Y-7633D01*
G54D15*
X14167Y-11489D02*
X14101Y-11395D01*
X14054Y-11489D02*
X14054Y-11292D01*
X14129Y-11292D01*
X14148Y-11301D01*
X14157Y-11310D01*
X14167Y-11329D01*
X14167Y-11357D01*
X14157Y-11376D01*
X14148Y-11385D01*
X14129Y-11395D01*
X14054Y-11395D01*
X14354Y-11489D02*
X14242Y-11489D01*
X14298Y-11489D02*
X14298Y-11292D01*
X14279Y-11320D01*
X14260Y-11339D01*
X14242Y-11348D01*
X15076Y-11489D02*
X14963Y-11489D01*
X15020Y-11489D02*
X15020Y-11292D01*
X15001Y-11320D01*
X14982Y-11339D01*
X14963Y-11348D01*
X15160Y-11489D02*
X15160Y-11292D01*
X15179Y-11414D02*
X15236Y-11489D01*
X15236Y-11357D02*
X15160Y-11432D01*
X14067Y-8689D02*
X14001Y-8595D01*
X13954Y-8689D02*
X13954Y-8492D01*
X14029Y-8492D01*
X14048Y-8501D01*
X14057Y-8510D01*
X14067Y-8529D01*
X14067Y-8557D01*
X14057Y-8576D01*
X14048Y-8585D01*
X14029Y-8595D01*
X13954Y-8595D01*
X14142Y-8510D02*
X14151Y-8501D01*
X14170Y-8492D01*
X14217Y-8492D01*
X14236Y-8501D01*
X14245Y-8510D01*
X14254Y-8529D01*
X14254Y-8548D01*
X14245Y-8576D01*
X14132Y-8689D01*
X14254Y-8689D01*
X14882Y-8689D02*
X14770Y-8689D01*
X14826Y-8689D02*
X14826Y-8492D01*
X14807Y-8520D01*
X14788Y-8539D01*
X14770Y-8548D01*
X15004Y-8492D02*
X15023Y-8492D01*
X15042Y-8501D01*
X15051Y-8510D01*
X15060Y-8529D01*
X15070Y-8567D01*
X15070Y-8614D01*
X15060Y-8651D01*
X15051Y-8670D01*
X15042Y-8679D01*
X15023Y-8689D01*
X15004Y-8689D01*
X14985Y-8679D01*
X14976Y-8670D01*
X14967Y-8651D01*
X14957Y-8614D01*
X14957Y-8567D01*
X14967Y-8529D01*
X14976Y-8510D01*
X14985Y-8501D01*
X15004Y-8492D01*
X15154Y-8689D02*
X15154Y-8492D01*
X15173Y-8614D02*
X15229Y-8689D01*
X15229Y-8557D02*
X15154Y-8632D01*
X3667Y-10389D02*
X3601Y-10295D01*
X3554Y-10389D02*
X3554Y-10192D01*
X3629Y-10192D01*
X3648Y-10201D01*
X3657Y-10210D01*
X3667Y-10229D01*
X3667Y-10257D01*
X3657Y-10276D01*
X3648Y-10285D01*
X3629Y-10295D01*
X3554Y-10295D01*
X3732Y-10192D02*
X3854Y-10192D01*
X3789Y-10267D01*
X3817Y-10267D01*
X3836Y-10276D01*
X3845Y-10285D01*
X3854Y-10304D01*
X3854Y-10351D01*
X3845Y-10370D01*
X3836Y-10379D01*
X3817Y-10389D01*
X3760Y-10389D01*
X3742Y-10379D01*
X3732Y-10370D01*
X4460Y-10389D02*
X4395Y-10295D01*
X4348Y-10389D02*
X4348Y-10192D01*
X4423Y-10192D01*
X4442Y-10201D01*
X4451Y-10210D01*
X4460Y-10229D01*
X4460Y-10257D01*
X4451Y-10276D01*
X4442Y-10285D01*
X4423Y-10295D01*
X4348Y-10295D01*
X2367Y-7489D02*
X2301Y-7395D01*
X2254Y-7489D02*
X2254Y-7292D01*
X2329Y-7292D01*
X2348Y-7301D01*
X2357Y-7310D01*
X2367Y-7329D01*
X2367Y-7357D01*
X2357Y-7376D01*
X2348Y-7385D01*
X2329Y-7395D01*
X2254Y-7395D01*
X2536Y-7357D02*
X2536Y-7489D01*
X2489Y-7282D02*
X2442Y-7423D01*
X2564Y-7423D01*
X3243Y-7292D02*
X3206Y-7292D01*
X3187Y-7301D01*
X3178Y-7310D01*
X3159Y-7339D01*
X3149Y-7376D01*
X3149Y-7451D01*
X3159Y-7470D01*
X3168Y-7479D01*
X3187Y-7489D01*
X3224Y-7489D01*
X3243Y-7479D01*
X3253Y-7470D01*
X3262Y-7451D01*
X3262Y-7404D01*
X3253Y-7385D01*
X3243Y-7376D01*
X3224Y-7367D01*
X3187Y-7367D01*
X3168Y-7376D01*
X3159Y-7385D01*
X3149Y-7404D01*
X3375Y-7376D02*
X3356Y-7367D01*
X3346Y-7357D01*
X3337Y-7339D01*
X3337Y-7329D01*
X3346Y-7310D01*
X3356Y-7301D01*
X3375Y-7292D01*
X3412Y-7292D01*
X3431Y-7301D01*
X3440Y-7310D01*
X3450Y-7329D01*
X3450Y-7339D01*
X3440Y-7357D01*
X3431Y-7367D01*
X3412Y-7376D01*
X3375Y-7376D01*
X3356Y-7385D01*
X3346Y-7395D01*
X3337Y-7414D01*
X3337Y-7451D01*
X3346Y-7470D01*
X3356Y-7479D01*
X3375Y-7489D01*
X3412Y-7489D01*
X3431Y-7479D01*
X3440Y-7470D01*
X3450Y-7451D01*
X3450Y-7414D01*
X3440Y-7395D01*
X3431Y-7385D01*
X3412Y-7376D01*
X10567Y-17789D02*
X10501Y-17695D01*
X10454Y-17789D02*
X10454Y-17592D01*
X10529Y-17592D01*
X10548Y-17601D01*
X10557Y-17610D01*
X10567Y-17629D01*
X10567Y-17657D01*
X10557Y-17676D01*
X10548Y-17685D01*
X10529Y-17695D01*
X10454Y-17695D01*
X10679Y-17676D02*
X10660Y-17667D01*
X10651Y-17657D01*
X10642Y-17639D01*
X10642Y-17629D01*
X10651Y-17610D01*
X10660Y-17601D01*
X10679Y-17592D01*
X10717Y-17592D01*
X10736Y-17601D01*
X10745Y-17610D01*
X10754Y-17629D01*
X10754Y-17639D01*
X10745Y-17657D01*
X10736Y-17667D01*
X10717Y-17676D01*
X10679Y-17676D01*
X10660Y-17685D01*
X10651Y-17695D01*
X10642Y-17714D01*
X10642Y-17751D01*
X10651Y-17770D01*
X10660Y-17779D01*
X10679Y-17789D01*
X10717Y-17789D01*
X10736Y-17779D01*
X10745Y-17770D01*
X10754Y-17751D01*
X10754Y-17714D01*
X10745Y-17695D01*
X10736Y-17685D01*
X10717Y-17676D01*
X10576Y-18089D02*
X10463Y-18089D01*
X10520Y-18089D02*
X10520Y-17892D01*
X10501Y-17920D01*
X10482Y-17939D01*
X10463Y-17948D01*
X10660Y-18089D02*
X10660Y-17892D01*
X10679Y-18014D02*
X10736Y-18089D01*
X10736Y-17957D02*
X10660Y-18032D01*
X10460Y-18942D02*
X10394Y-18848D01*
X10347Y-18942D02*
X10347Y-18745D01*
X10422Y-18745D01*
X10441Y-18754D01*
X10450Y-18763D01*
X10460Y-18782D01*
X10460Y-18810D01*
X10450Y-18829D01*
X10441Y-18838D01*
X10422Y-18848D01*
X10347Y-18848D01*
X10553Y-18942D02*
X10591Y-18942D01*
X10610Y-18932D01*
X10619Y-18923D01*
X10638Y-18895D01*
X10647Y-18857D01*
X10647Y-18782D01*
X10638Y-18763D01*
X10628Y-18754D01*
X10610Y-18745D01*
X10572Y-18745D01*
X10553Y-18754D01*
X10544Y-18763D01*
X10535Y-18782D01*
X10535Y-18829D01*
X10544Y-18848D01*
X10553Y-18857D01*
X10572Y-18867D01*
X10610Y-18867D01*
X10628Y-18857D01*
X10638Y-18848D01*
X10647Y-18829D01*
X10469Y-19217D02*
X10356Y-19217D01*
X10413Y-19217D02*
X10413Y-19020D01*
X10394Y-19048D01*
X10375Y-19066D01*
X10356Y-19076D01*
X10553Y-19217D02*
X10553Y-19020D01*
X10572Y-19142D02*
X10628Y-19217D01*
X10628Y-19085D02*
X10553Y-19160D01*
X11589Y-5926D02*
X11495Y-5992D01*
X11589Y-6039D02*
X11392Y-6039D01*
X11392Y-5964D01*
X11401Y-5945D01*
X11410Y-5936D01*
X11429Y-5926D01*
X11457Y-5926D01*
X11476Y-5936D01*
X11485Y-5945D01*
X11495Y-5964D01*
X11495Y-6039D01*
X11589Y-5739D02*
X11589Y-5851D01*
X11589Y-5795D02*
X11392Y-5795D01*
X11420Y-5814D01*
X11439Y-5832D01*
X11448Y-5851D01*
X11589Y-5551D02*
X11589Y-5663D01*
X11589Y-5607D02*
X11392Y-5607D01*
X11420Y-5626D01*
X11439Y-5645D01*
X11448Y-5663D01*
X11589Y-5123D02*
X11589Y-5236D01*
X11589Y-5179D02*
X11392Y-5179D01*
X11420Y-5198D01*
X11439Y-5217D01*
X11448Y-5236D01*
X11589Y-5039D02*
X11392Y-5039D01*
X11514Y-5020D02*
X11589Y-4963D01*
X11457Y-4963D02*
X11532Y-5039D01*
G54D12*
X14507Y-1835D02*
X14407Y-1692D01*
X14335Y-1835D02*
X14335Y-1535D01*
X14450Y-1535D01*
X14478Y-1550D01*
X14492Y-1564D01*
X14507Y-1592D01*
X14507Y-1635D01*
X14492Y-1664D01*
X14478Y-1678D01*
X14450Y-1692D01*
X14335Y-1692D01*
X14792Y-1835D02*
X14621Y-1835D01*
X14707Y-1835D02*
X14707Y-1535D01*
X14678Y-1578D01*
X14650Y-1607D01*
X14621Y-1621D01*
X14907Y-1564D02*
X14921Y-1550D01*
X14950Y-1535D01*
X15021Y-1535D01*
X15050Y-1550D01*
X15064Y-1564D01*
X15078Y-1592D01*
X15078Y-1621D01*
X15064Y-1664D01*
X14892Y-1835D01*
X15078Y-1835D01*
X14507Y-4435D02*
X14407Y-4292D01*
X14335Y-4435D02*
X14335Y-4135D01*
X14450Y-4135D01*
X14478Y-4150D01*
X14492Y-4164D01*
X14507Y-4192D01*
X14507Y-4235D01*
X14492Y-4264D01*
X14478Y-4278D01*
X14450Y-4292D01*
X14335Y-4292D01*
X14792Y-4435D02*
X14621Y-4435D01*
X14707Y-4435D02*
X14707Y-4135D01*
X14678Y-4178D01*
X14650Y-4207D01*
X14621Y-4221D01*
X14892Y-4135D02*
X15078Y-4135D01*
X14978Y-4250D01*
X15021Y-4250D01*
X15050Y-4264D01*
X15064Y-4278D01*
X15078Y-4307D01*
X15078Y-4378D01*
X15064Y-4407D01*
X15050Y-4421D01*
X15021Y-4435D01*
X14935Y-4435D01*
X14907Y-4421D01*
X14892Y-4407D01*
G54D15*
X5489Y-8326D02*
X5395Y-8392D01*
X5489Y-8439D02*
X5292Y-8439D01*
X5292Y-8364D01*
X5301Y-8345D01*
X5310Y-8336D01*
X5329Y-8326D01*
X5357Y-8326D01*
X5376Y-8336D01*
X5385Y-8345D01*
X5395Y-8364D01*
X5395Y-8439D01*
X5489Y-8139D02*
X5489Y-8251D01*
X5489Y-8195D02*
X5292Y-8195D01*
X5320Y-8214D01*
X5339Y-8232D01*
X5348Y-8251D01*
X5357Y-7970D02*
X5489Y-7970D01*
X5282Y-8017D02*
X5423Y-8063D01*
X5423Y-7942D01*
X5292Y-7656D02*
X5292Y-7693D01*
X5301Y-7712D01*
X5310Y-7721D01*
X5339Y-7740D01*
X5376Y-7750D01*
X5451Y-7750D01*
X5470Y-7740D01*
X5479Y-7731D01*
X5489Y-7712D01*
X5489Y-7675D01*
X5479Y-7656D01*
X5470Y-7646D01*
X5451Y-7637D01*
X5404Y-7637D01*
X5385Y-7646D01*
X5376Y-7656D01*
X5367Y-7675D01*
X5367Y-7712D01*
X5376Y-7731D01*
X5385Y-7740D01*
X5404Y-7750D01*
X5376Y-7524D02*
X5367Y-7543D01*
X5357Y-7553D01*
X5339Y-7562D01*
X5329Y-7562D01*
X5310Y-7553D01*
X5301Y-7543D01*
X5292Y-7524D01*
X5292Y-7487D01*
X5301Y-7468D01*
X5310Y-7459D01*
X5329Y-7449D01*
X5339Y-7449D01*
X5357Y-7459D01*
X5367Y-7468D01*
X5376Y-7487D01*
X5376Y-7524D01*
X5385Y-7543D01*
X5395Y-7553D01*
X5414Y-7562D01*
X5451Y-7562D01*
X5470Y-7553D01*
X5479Y-7543D01*
X5489Y-7524D01*
X5489Y-7487D01*
X5479Y-7468D01*
X5470Y-7459D01*
X5451Y-7449D01*
X5414Y-7449D01*
X5395Y-7459D01*
X5385Y-7468D01*
X5376Y-7487D01*
X3689Y-8426D02*
X3595Y-8492D01*
X3689Y-8539D02*
X3492Y-8539D01*
X3492Y-8464D01*
X3501Y-8445D01*
X3510Y-8436D01*
X3529Y-8426D01*
X3557Y-8426D01*
X3576Y-8436D01*
X3585Y-8445D01*
X3595Y-8464D01*
X3595Y-8539D01*
X3689Y-8239D02*
X3689Y-8351D01*
X3689Y-8295D02*
X3492Y-8295D01*
X3520Y-8314D01*
X3539Y-8332D01*
X3548Y-8351D01*
X3492Y-8060D02*
X3492Y-8154D01*
X3585Y-8163D01*
X3576Y-8154D01*
X3567Y-8135D01*
X3567Y-8088D01*
X3576Y-8070D01*
X3585Y-8060D01*
X3604Y-8051D01*
X3651Y-8051D01*
X3670Y-8060D01*
X3679Y-8070D01*
X3689Y-8088D01*
X3689Y-8135D01*
X3679Y-8154D01*
X3670Y-8163D01*
X3982Y-7989D02*
X3870Y-7989D01*
X3926Y-7989D02*
X3926Y-7792D01*
X3907Y-7820D01*
X3888Y-7839D01*
X3870Y-7848D01*
X4067Y-7989D02*
X4067Y-7792D01*
X4085Y-7914D02*
X4142Y-7989D01*
X4142Y-7857D02*
X4067Y-7932D01*
X4320Y-7792D02*
X4226Y-7792D01*
X4217Y-7885D01*
X4226Y-7876D01*
X4245Y-7867D01*
X4292Y-7867D01*
X4311Y-7876D01*
X4320Y-7885D01*
X4329Y-7904D01*
X4329Y-7951D01*
X4320Y-7970D01*
X4311Y-7979D01*
X4292Y-7989D01*
X4245Y-7989D01*
X4226Y-7979D01*
X4217Y-7970D01*
X12873Y-889D02*
X12807Y-795D01*
X12760Y-889D02*
X12760Y-692D01*
X12835Y-692D01*
X12854Y-701D01*
X12863Y-710D01*
X12873Y-729D01*
X12873Y-757D01*
X12863Y-776D01*
X12854Y-785D01*
X12835Y-795D01*
X12760Y-795D01*
X13060Y-889D02*
X12948Y-889D01*
X13004Y-889D02*
X13004Y-692D01*
X12985Y-720D01*
X12967Y-739D01*
X12948Y-748D01*
X13229Y-692D02*
X13192Y-692D01*
X13173Y-701D01*
X13164Y-710D01*
X13145Y-739D01*
X13136Y-776D01*
X13136Y-851D01*
X13145Y-870D01*
X13154Y-879D01*
X13173Y-889D01*
X13211Y-889D01*
X13229Y-879D01*
X13239Y-870D01*
X13248Y-851D01*
X13248Y-804D01*
X13239Y-785D01*
X13229Y-776D01*
X13211Y-767D01*
X13173Y-767D01*
X13154Y-776D01*
X13145Y-785D01*
X13136Y-804D01*
X13466Y-692D02*
X13588Y-692D01*
X13523Y-767D01*
X13551Y-767D01*
X13570Y-776D01*
X13579Y-785D01*
X13588Y-804D01*
X13588Y-851D01*
X13579Y-870D01*
X13570Y-879D01*
X13551Y-889D01*
X13495Y-889D01*
X13476Y-879D01*
X13466Y-870D01*
X13710Y-692D02*
X13729Y-692D01*
X13748Y-701D01*
X13757Y-710D01*
X13767Y-729D01*
X13776Y-767D01*
X13776Y-814D01*
X13767Y-851D01*
X13757Y-870D01*
X13748Y-879D01*
X13729Y-889D01*
X13710Y-889D01*
X13692Y-879D01*
X13682Y-870D01*
X13673Y-851D01*
X13663Y-814D01*
X13663Y-767D01*
X13673Y-729D01*
X13682Y-710D01*
X13692Y-701D01*
X13710Y-692D01*
X13898Y-692D02*
X13917Y-692D01*
X13936Y-701D01*
X13945Y-710D01*
X13954Y-729D01*
X13964Y-767D01*
X13964Y-814D01*
X13954Y-851D01*
X13945Y-870D01*
X13936Y-879D01*
X13917Y-889D01*
X13898Y-889D01*
X13879Y-879D01*
X13870Y-870D01*
X13860Y-851D01*
X13851Y-814D01*
X13851Y-767D01*
X13860Y-729D01*
X13870Y-710D01*
X13879Y-701D01*
X13898Y-692D01*
X14048Y-889D02*
X14048Y-692D01*
X14067Y-814D02*
X14123Y-889D01*
X14123Y-757D02*
X14048Y-832D01*
X11089Y-9126D02*
X10995Y-9192D01*
X11089Y-9239D02*
X10892Y-9239D01*
X10892Y-9164D01*
X10901Y-9145D01*
X10910Y-9136D01*
X10929Y-9126D01*
X10957Y-9126D01*
X10976Y-9136D01*
X10985Y-9145D01*
X10995Y-9164D01*
X10995Y-9239D01*
X11089Y-8939D02*
X11089Y-9051D01*
X11089Y-8995D02*
X10892Y-8995D01*
X10920Y-9014D01*
X10939Y-9032D01*
X10948Y-9051D01*
X10892Y-8873D02*
X10892Y-8742D01*
X11089Y-8826D01*
X11089Y-8339D02*
X10995Y-8404D01*
X11089Y-8451D02*
X10892Y-8451D01*
X10892Y-8376D01*
X10901Y-8357D01*
X10910Y-8348D01*
X10929Y-8339D01*
X10957Y-8339D01*
X10976Y-8348D01*
X10985Y-8357D01*
X10995Y-8376D01*
X10995Y-8451D01*
X4089Y-6026D02*
X3995Y-6092D01*
X4089Y-6139D02*
X3892Y-6139D01*
X3892Y-6064D01*
X3901Y-6045D01*
X3910Y-6036D01*
X3929Y-6026D01*
X3957Y-6026D01*
X3976Y-6036D01*
X3985Y-6045D01*
X3995Y-6064D01*
X3995Y-6139D01*
X3910Y-5951D02*
X3901Y-5942D01*
X3892Y-5923D01*
X3892Y-5876D01*
X3901Y-5857D01*
X3910Y-5848D01*
X3929Y-5839D01*
X3948Y-5839D01*
X3976Y-5848D01*
X4089Y-5960D01*
X4089Y-5839D01*
X3892Y-5773D02*
X3892Y-5642D01*
X4089Y-5726D01*
X4089Y-5239D02*
X3995Y-5304D01*
X4089Y-5351D02*
X3892Y-5351D01*
X3892Y-5276D01*
X3901Y-5257D01*
X3910Y-5248D01*
X3929Y-5239D01*
X3957Y-5239D01*
X3976Y-5248D01*
X3985Y-5257D01*
X3995Y-5276D01*
X3995Y-5351D01*
X5189Y-6026D02*
X5095Y-6092D01*
X5189Y-6139D02*
X4992Y-6139D01*
X4992Y-6064D01*
X5001Y-6045D01*
X5010Y-6036D01*
X5029Y-6026D01*
X5057Y-6026D01*
X5076Y-6036D01*
X5085Y-6045D01*
X5095Y-6064D01*
X5095Y-6139D01*
X5010Y-5951D02*
X5001Y-5942D01*
X4992Y-5923D01*
X4992Y-5876D01*
X5001Y-5857D01*
X5010Y-5848D01*
X5029Y-5839D01*
X5048Y-5839D01*
X5076Y-5848D01*
X5189Y-5960D01*
X5189Y-5839D01*
X5076Y-5726D02*
X5067Y-5745D01*
X5057Y-5754D01*
X5039Y-5763D01*
X5029Y-5763D01*
X5010Y-5754D01*
X5001Y-5745D01*
X4992Y-5726D01*
X4992Y-5688D01*
X5001Y-5670D01*
X5010Y-5660D01*
X5029Y-5651D01*
X5039Y-5651D01*
X5057Y-5660D01*
X5067Y-5670D01*
X5076Y-5688D01*
X5076Y-5726D01*
X5085Y-5745D01*
X5095Y-5754D01*
X5114Y-5763D01*
X5151Y-5763D01*
X5170Y-5754D01*
X5179Y-5745D01*
X5189Y-5726D01*
X5189Y-5688D01*
X5179Y-5670D01*
X5170Y-5660D01*
X5151Y-5651D01*
X5114Y-5651D01*
X5095Y-5660D01*
X5085Y-5670D01*
X5076Y-5688D01*
X5189Y-5239D02*
X5095Y-5304D01*
X5189Y-5351D02*
X4992Y-5351D01*
X4992Y-5276D01*
X5001Y-5257D01*
X5010Y-5248D01*
X5029Y-5239D01*
X5057Y-5239D01*
X5076Y-5248D01*
X5085Y-5257D01*
X5095Y-5276D01*
X5095Y-5351D01*
X6189Y-6026D02*
X6095Y-6092D01*
X6189Y-6139D02*
X5992Y-6139D01*
X5992Y-6064D01*
X6001Y-6045D01*
X6010Y-6036D01*
X6029Y-6026D01*
X6057Y-6026D01*
X6076Y-6036D01*
X6085Y-6045D01*
X6095Y-6064D01*
X6095Y-6139D01*
X6010Y-5951D02*
X6001Y-5942D01*
X5992Y-5923D01*
X5992Y-5876D01*
X6001Y-5857D01*
X6010Y-5848D01*
X6029Y-5839D01*
X6048Y-5839D01*
X6076Y-5848D01*
X6189Y-5960D01*
X6189Y-5839D01*
X6189Y-5745D02*
X6189Y-5707D01*
X6179Y-5688D01*
X6170Y-5679D01*
X6142Y-5660D01*
X6104Y-5651D01*
X6029Y-5651D01*
X6010Y-5660D01*
X6001Y-5670D01*
X5992Y-5688D01*
X5992Y-5726D01*
X6001Y-5745D01*
X6010Y-5754D01*
X6029Y-5763D01*
X6076Y-5763D01*
X6095Y-5754D01*
X6104Y-5745D01*
X6114Y-5726D01*
X6114Y-5688D01*
X6104Y-5670D01*
X6095Y-5660D01*
X6076Y-5651D01*
X6189Y-5239D02*
X6095Y-5304D01*
X6189Y-5351D02*
X5992Y-5351D01*
X5992Y-5276D01*
X6001Y-5257D01*
X6010Y-5248D01*
X6029Y-5239D01*
X6057Y-5239D01*
X6076Y-5248D01*
X6085Y-5257D01*
X6095Y-5276D01*
X6095Y-5351D01*
G54D16*
X6595Y-18226D02*
X6595Y-18630D01*
X6614Y-18678D01*
X6633Y-18702D01*
X6671Y-18726D01*
X6747Y-18726D01*
X6785Y-18702D01*
X6804Y-18678D01*
X6823Y-18630D01*
X6823Y-18226D01*
X7223Y-18726D02*
X6995Y-18726D01*
X7109Y-18726D02*
X7109Y-18226D01*
X7071Y-18297D01*
X7033Y-18345D01*
X6995Y-18369D01*
X6188Y-17208D02*
X6454Y-17208D01*
X6283Y-17608D01*
X6664Y-17380D02*
X6626Y-17361D01*
X6607Y-17342D01*
X6588Y-17304D01*
X6588Y-17285D01*
X6607Y-17247D01*
X6626Y-17227D01*
X6664Y-17208D01*
X6740Y-17208D01*
X6778Y-17227D01*
X6797Y-17247D01*
X6816Y-17285D01*
X6816Y-17304D01*
X6797Y-17342D01*
X6778Y-17361D01*
X6740Y-17380D01*
X6664Y-17380D01*
X6626Y-17399D01*
X6607Y-17418D01*
X6588Y-17456D01*
X6588Y-17532D01*
X6607Y-17570D01*
X6626Y-17589D01*
X6664Y-17608D01*
X6740Y-17608D01*
X6778Y-17589D01*
X6797Y-17570D01*
X6816Y-17532D01*
X6816Y-17456D01*
X6797Y-17418D01*
X6778Y-17399D01*
X6740Y-17380D01*
X7064Y-17208D02*
X7102Y-17208D01*
X7140Y-17227D01*
X7159Y-17247D01*
X7178Y-17285D01*
X7197Y-17361D01*
X7197Y-17456D01*
X7178Y-17532D01*
X7159Y-17570D01*
X7140Y-17589D01*
X7102Y-17608D01*
X7064Y-17608D01*
X7026Y-17589D01*
X7007Y-17570D01*
X6988Y-17532D01*
X6969Y-17456D01*
X6969Y-17361D01*
X6988Y-17285D01*
X7007Y-17247D01*
X7026Y-17227D01*
X7064Y-17208D01*
X7559Y-17208D02*
X7369Y-17208D01*
X7350Y-17399D01*
X7369Y-17380D01*
X7407Y-17361D01*
X7502Y-17361D01*
X7540Y-17380D01*
X7559Y-17399D01*
X7578Y-17437D01*
X7578Y-17532D01*
X7559Y-17570D01*
X7540Y-17589D01*
X7502Y-17608D01*
X7407Y-17608D01*
X7369Y-17589D01*
X7350Y-17570D01*
G54D10*
X6345Y-13227D02*
X6555Y-13542D01*
X6555Y-13227D02*
X6345Y-13542D01*
X6839Y-13542D02*
X6659Y-13542D01*
X6749Y-13542D02*
X6749Y-13227D01*
X6719Y-13272D01*
X6689Y-13302D01*
X6659Y-13317D01*
X6167Y-14442D02*
X5987Y-14442D01*
X6077Y-14442D02*
X6077Y-14127D01*
X6047Y-14172D01*
X6017Y-14202D01*
X5987Y-14217D01*
X6287Y-14157D02*
X6302Y-14142D01*
X6332Y-14127D01*
X6407Y-14127D01*
X6437Y-14142D01*
X6452Y-14157D01*
X6467Y-14187D01*
X6467Y-14217D01*
X6452Y-14262D01*
X6272Y-14442D01*
X6467Y-14442D01*
X6602Y-14442D02*
X6602Y-14127D01*
X6707Y-14352D01*
X6812Y-14127D01*
X6812Y-14442D01*
X6962Y-14442D02*
X6962Y-14127D01*
X6962Y-14277D02*
X7142Y-14277D01*
X7142Y-14442D02*
X7142Y-14127D01*
X7262Y-14232D02*
X7427Y-14232D01*
X7262Y-14442D01*
X7427Y-14442D01*
G54D16*
X7202Y-9504D02*
X7202Y-9004D01*
X7621Y-9456D02*
X7602Y-9480D01*
X7545Y-9504D01*
X7507Y-9504D01*
X7450Y-9480D01*
X7411Y-9432D01*
X7392Y-9385D01*
X7373Y-9289D01*
X7373Y-9218D01*
X7392Y-9123D01*
X7411Y-9075D01*
X7450Y-9027D01*
X7507Y-9004D01*
X7545Y-9004D01*
X7602Y-9027D01*
X7621Y-9051D01*
X8002Y-9504D02*
X7773Y-9504D01*
X7888Y-9504D02*
X7888Y-9004D01*
X7850Y-9075D01*
X7811Y-9123D01*
X7773Y-9147D01*
X6392Y-10611D02*
X6583Y-10611D01*
X6354Y-10754D02*
X6488Y-10254D01*
X6621Y-10754D01*
X6697Y-10420D02*
X6850Y-10420D01*
X6754Y-10254D02*
X6754Y-10682D01*
X6773Y-10730D01*
X6811Y-10754D01*
X6850Y-10754D01*
X6983Y-10754D02*
X6983Y-10420D01*
X6983Y-10468D02*
X7002Y-10444D01*
X7040Y-10420D01*
X7097Y-10420D01*
X7135Y-10444D01*
X7154Y-10492D01*
X7154Y-10754D01*
X7154Y-10492D02*
X7173Y-10444D01*
X7211Y-10420D01*
X7269Y-10420D01*
X7307Y-10444D01*
X7326Y-10492D01*
X7326Y-10754D01*
X7669Y-10730D02*
X7631Y-10754D01*
X7554Y-10754D01*
X7516Y-10730D01*
X7497Y-10682D01*
X7497Y-10492D01*
X7516Y-10444D01*
X7554Y-10420D01*
X7631Y-10420D01*
X7669Y-10444D01*
X7688Y-10492D01*
X7688Y-10539D01*
X7497Y-10587D01*
X8031Y-10420D02*
X8031Y-10825D01*
X8011Y-10873D01*
X7992Y-10897D01*
X7954Y-10920D01*
X7897Y-10920D01*
X7859Y-10897D01*
X8031Y-10730D02*
X7992Y-10754D01*
X7916Y-10754D01*
X7878Y-10730D01*
X7859Y-10706D01*
X7840Y-10658D01*
X7840Y-10516D01*
X7859Y-10468D01*
X7878Y-10444D01*
X7916Y-10420D01*
X7992Y-10420D01*
X8031Y-10444D01*
X8392Y-10754D02*
X8392Y-10492D01*
X8373Y-10444D01*
X8335Y-10420D01*
X8259Y-10420D01*
X8221Y-10444D01*
X8392Y-10730D02*
X8354Y-10754D01*
X8259Y-10754D01*
X8221Y-10730D01*
X8202Y-10682D01*
X8202Y-10635D01*
X8221Y-10587D01*
X8259Y-10563D01*
X8354Y-10563D01*
X8392Y-10539D01*
X8640Y-10468D02*
X8602Y-10444D01*
X8583Y-10420D01*
X8564Y-10373D01*
X8564Y-10349D01*
X8583Y-10301D01*
X8602Y-10277D01*
X8640Y-10254D01*
X8716Y-10254D01*
X8754Y-10277D01*
X8773Y-10301D01*
X8792Y-10349D01*
X8792Y-10373D01*
X8773Y-10420D01*
X8754Y-10444D01*
X8716Y-10468D01*
X8640Y-10468D01*
X8602Y-10492D01*
X8583Y-10516D01*
X8564Y-10563D01*
X8564Y-10658D01*
X8583Y-10706D01*
X8602Y-10730D01*
X8640Y-10754D01*
X8716Y-10754D01*
X8754Y-10730D01*
X8773Y-10706D01*
X8792Y-10658D01*
X8792Y-10563D01*
X8773Y-10516D01*
X8754Y-10492D01*
X8716Y-10468D01*
X11351Y-17749D02*
X11351Y-17149D01*
X11467Y-17577D01*
X11584Y-17149D01*
X11584Y-17749D01*
X11817Y-17149D02*
X11884Y-17149D01*
X11917Y-17177D01*
X11951Y-17235D01*
X11967Y-17349D01*
X11967Y-17549D01*
X11951Y-17663D01*
X11917Y-17720D01*
X11884Y-17749D01*
X11817Y-17749D01*
X11784Y-17720D01*
X11751Y-17663D01*
X11734Y-17549D01*
X11734Y-17349D01*
X11751Y-17235D01*
X11784Y-17177D01*
X11817Y-17149D01*
X12317Y-17692D02*
X12301Y-17720D01*
X12251Y-17749D01*
X12217Y-17749D01*
X12167Y-17720D01*
X12134Y-17663D01*
X12117Y-17606D01*
X12101Y-17492D01*
X12101Y-17406D01*
X12117Y-17292D01*
X12134Y-17235D01*
X12167Y-17177D01*
X12217Y-17149D01*
X12251Y-17149D01*
X12301Y-17177D01*
X12317Y-17206D01*
X12434Y-17149D02*
X12651Y-17149D01*
X12534Y-17377D01*
X12584Y-17377D01*
X12617Y-17406D01*
X12634Y-17435D01*
X12651Y-17492D01*
X12651Y-17635D01*
X12634Y-17692D01*
X12617Y-17720D01*
X12584Y-17749D01*
X12484Y-17749D01*
X12451Y-17720D01*
X12434Y-17692D01*
X12867Y-17149D02*
X12901Y-17149D01*
X12934Y-17177D01*
X12951Y-17206D01*
X12967Y-17263D01*
X12984Y-17377D01*
X12984Y-17520D01*
X12967Y-17635D01*
X12951Y-17692D01*
X12934Y-17720D01*
X12901Y-17749D01*
X12867Y-17749D01*
X12834Y-17720D01*
X12817Y-17692D01*
X12801Y-17635D01*
X12784Y-17520D01*
X12784Y-17377D01*
X12801Y-17263D01*
X12817Y-17206D01*
X12834Y-17177D01*
X12867Y-17149D01*
X13284Y-17349D02*
X13284Y-17749D01*
X13201Y-17120D02*
X13117Y-17549D01*
X13334Y-17549D01*
X13451Y-17206D02*
X13467Y-17177D01*
X13501Y-17149D01*
X13584Y-17149D01*
X13617Y-17177D01*
X13634Y-17206D01*
X13651Y-17263D01*
X13651Y-17320D01*
X13634Y-17406D01*
X13434Y-17749D01*
X13651Y-17749D01*
X13801Y-17749D02*
X13801Y-17149D01*
X13917Y-17577D01*
X14034Y-17149D01*
X14034Y-17749D01*
G54D14*
X11850Y-2681D02*
X11850Y-3045D01*
X11871Y-3088D01*
X11892Y-3110D01*
X11935Y-3131D01*
X12021Y-3131D01*
X12064Y-3110D01*
X12085Y-3088D01*
X12107Y-3045D01*
X12107Y-2681D01*
X12514Y-2831D02*
X12514Y-3131D01*
X12407Y-2660D02*
X12300Y-2981D01*
X12578Y-2981D01*
X11251Y-3486D02*
X11451Y-3486D01*
X11351Y-3836D02*
X11351Y-3486D01*
X11767Y-3802D02*
X11751Y-3819D01*
X11701Y-3836D01*
X11667Y-3836D01*
X11617Y-3819D01*
X11584Y-3786D01*
X11567Y-3752D01*
X11551Y-3686D01*
X11551Y-3636D01*
X11567Y-3569D01*
X11584Y-3536D01*
X11617Y-3502D01*
X11667Y-3486D01*
X11701Y-3486D01*
X11751Y-3502D01*
X11767Y-3519D01*
X12067Y-3602D02*
X12067Y-3836D01*
X11984Y-3469D02*
X11901Y-3719D01*
X12117Y-3719D01*
X12401Y-3602D02*
X12401Y-3836D01*
X12317Y-3469D02*
X12234Y-3719D01*
X12451Y-3719D01*
X12567Y-3519D02*
X12584Y-3502D01*
X12617Y-3486D01*
X12701Y-3486D01*
X12734Y-3502D01*
X12751Y-3519D01*
X12767Y-3552D01*
X12767Y-3586D01*
X12751Y-3636D01*
X12551Y-3836D01*
X12767Y-3836D01*
X12984Y-3486D02*
X13017Y-3486D01*
X13051Y-3502D01*
X13067Y-3519D01*
X13084Y-3552D01*
X13101Y-3619D01*
X13101Y-3702D01*
X13084Y-3769D01*
X13067Y-3802D01*
X13051Y-3819D01*
X13017Y-3836D01*
X12984Y-3836D01*
X12951Y-3819D01*
X12934Y-3802D01*
X12917Y-3769D01*
X12901Y-3702D01*
X12901Y-3619D01*
X12917Y-3552D01*
X12934Y-3519D01*
X12951Y-3502D01*
X12984Y-3486D01*
%LPC*%
G54D18*
X10917Y-7577D03*
X11667Y-7577D03*
G54D19*
X6592Y-4452D03*
X6592Y-3702D03*
X9292Y-14952D03*
X9292Y-14202D03*
X12992Y-5852D03*
X12992Y-5102D03*
G54D18*
X11617Y-1277D03*
X12367Y-1277D03*
X7467Y-2577D03*
X6717Y-2577D03*
X4217Y-16477D03*
X4967Y-16477D03*
X4217Y-14877D03*
X4967Y-14877D03*
X14367Y-9977D03*
X13617Y-9977D03*
G54D19*
X4692Y-10702D03*
X4692Y-11452D03*
X3892Y-11452D03*
X3892Y-10702D03*
G54D18*
X3817Y-8977D03*
X4567Y-8977D03*
X9317Y-17077D03*
X10067Y-17077D03*
G54D20*
X14292Y-7027D03*
X14292Y-5727D03*
G54D19*
X10492Y-9902D03*
X10492Y-10652D03*
G54D21*
X2850Y-9947D03*
X2850Y-10262D03*
X2850Y-10577D03*
X2850Y-10892D03*
X2850Y-11207D03*
G54D22*
X2811Y-8825D03*
X646Y-8825D03*
X2811Y-12329D03*
X646Y-12329D03*
G54D23*
X1827Y-9711D03*
X1827Y-11443D03*
G54D24*
X5592Y-577D03*
G54D25*
X4592Y-577D03*
X3592Y-577D03*
X2592Y-577D03*
G54D26*
X13392Y-9177D03*
X9492Y-12377D03*
X10592Y-12377D03*
G54D27*
X1592Y-17977D03*
G54D28*
X3992Y-17977D03*
G54D27*
X2492Y-15977D03*
G54D26*
X10592Y-11577D03*
X9992Y-7577D03*
X14592Y-9177D03*
G54D24*
X11692Y-10377D03*
G54D25*
X11692Y-9377D03*
G54D24*
X10192Y-5877D03*
G54D25*
X10192Y-4877D03*
X10192Y-3877D03*
X10192Y-2877D03*
X10192Y-1877D03*
G54D29*
X15692Y-5177D03*
G54D30*
X18192Y-6077D03*
G54D29*
X15692Y-6977D03*
G54D18*
X15067Y-10777D03*
X14317Y-10777D03*
X14217Y-8027D03*
X14967Y-8027D03*
X4567Y-9777D03*
X3817Y-9777D03*
X2517Y-7877D03*
X3267Y-7877D03*
X10067Y-17877D03*
X9317Y-17877D03*
X10117Y-18977D03*
X10867Y-18977D03*
G54D31*
X12192Y-14977D03*
X12192Y-11977D03*
G54D19*
X11992Y-5852D03*
X11992Y-5102D03*
G54D32*
X13942Y-2477D03*
X15242Y-2477D03*
X13942Y-3577D03*
X15242Y-3577D03*
G54D19*
X4892Y-7502D03*
X4892Y-8252D03*
X4092Y-7502D03*
X4092Y-8252D03*
G54D18*
X13767Y-1277D03*
X13017Y-1277D03*
G54D19*
X10492Y-8502D03*
X10492Y-9252D03*
X4592Y-5952D03*
X4592Y-5202D03*
X5592Y-5952D03*
X5592Y-5202D03*
X6592Y-5952D03*
X6592Y-5202D03*
G54D31*
X19092Y-10477D03*
X19092Y-8477D03*
X16092Y-10477D03*
X16092Y-8477D03*
G54D33*
X5992Y-18377D03*
G54D30*
X6892Y-15877D03*
G54D33*
X7792Y-18377D03*
G54D34*
X13692Y-12477D03*
X13692Y-13477D03*
G54D35*
X13692Y-14477D03*
G54D24*
X592Y-1677D03*
G54D25*
X1592Y-1677D03*
X2592Y-1677D03*
X3592Y-1677D03*
X4592Y-1677D03*
X5592Y-1677D03*
G54D24*
X6592Y-1677D03*
G54D25*
X7592Y-1677D03*
X7592Y-6677D03*
X6592Y-6677D03*
X5592Y-6677D03*
X4592Y-6677D03*
X3592Y-6677D03*
X2592Y-6677D03*
X1592Y-6677D03*
X592Y-6677D03*
G54D36*
X4742Y-13377D03*
X8442Y-13377D03*
G54D37*
X5696Y-10870D03*
X5696Y-10555D03*
X5696Y-10240D03*
X5696Y-9925D03*
X5696Y-9610D03*
X5696Y-9295D03*
X5696Y-8980D03*
X5696Y-8665D03*
X9462Y-8667D03*
X9462Y-10877D03*
X9462Y-10557D03*
X9462Y-10237D03*
X9462Y-9927D03*
X9462Y-9607D03*
X9462Y-9297D03*
X9462Y-8977D03*
G54D38*
X6480Y-7877D03*
X6794Y-7877D03*
X7110Y-7877D03*
X7424Y-7877D03*
X7740Y-7877D03*
X8054Y-7877D03*
X8370Y-7877D03*
X8684Y-7877D03*
X6482Y-11657D03*
X6792Y-11657D03*
X7112Y-11657D03*
X7422Y-11657D03*
X7732Y-11657D03*
X8052Y-11657D03*
X8372Y-11657D03*
X8692Y-11657D03*
G54D39*
X11692Y-18977D03*
G54D31*
X12692Y-18977D03*
X13692Y-18977D03*
X13692Y-15977D03*
X12692Y-15977D03*
X11692Y-15977D03*
G54D40*
X11442Y-2227D03*
X11442Y-4327D03*
X11942Y-2227D03*
X12442Y-2227D03*
X12942Y-2227D03*
X11942Y-4327D03*
X12442Y-4327D03*
X12942Y-4327D03*
M02*
